G04 #@! TF.GenerationSoftware,KiCad,Pcbnew,7.0.2-6a45011f42~172~ubuntu22.04.1*
G04 #@! TF.CreationDate,2023-06-14T15:19:40+02:00*
G04 #@! TF.ProjectId,imu_module,696d755f-6d6f-4647-956c-652e6b696361,rev?*
G04 #@! TF.SameCoordinates,Original*
G04 #@! TF.FileFunction,Legend,Bot*
G04 #@! TF.FilePolarity,Positive*
%FSLAX46Y46*%
G04 Gerber Fmt 4.6, Leading zero omitted, Abs format (unit mm)*
G04 Created by KiCad (PCBNEW 7.0.2-6a45011f42~172~ubuntu22.04.1) date 2023-06-14 15:19:40*
%MOMM*%
%LPD*%
G01*
G04 APERTURE LIST*
%ADD10C,0.254000*%
%ADD11C,0.150000*%
%ADD12C,0.100000*%
%ADD13C,0.120000*%
%ADD14C,0.127000*%
%ADD15C,0.200000*%
G04 APERTURE END LIST*
D10*
X16337526Y-4488333D02*
X16337526Y-3883571D01*
X16337526Y-3883571D02*
X15067526Y-3883571D01*
X16337526Y-5576905D02*
X16337526Y-4851190D01*
X16337526Y-5214047D02*
X15067526Y-5214047D01*
X15067526Y-5214047D02*
X15248954Y-5093095D01*
X15248954Y-5093095D02*
X15369907Y-4972143D01*
X15369907Y-4972143D02*
X15430383Y-4851190D01*
D11*
X24238094Y-25712619D02*
X24238094Y-24712619D01*
X24238094Y-24712619D02*
X23999999Y-24712619D01*
X23999999Y-24712619D02*
X23857142Y-24760238D01*
X23857142Y-24760238D02*
X23761904Y-24855476D01*
X23761904Y-24855476D02*
X23714285Y-24950714D01*
X23714285Y-24950714D02*
X23666666Y-25141190D01*
X23666666Y-25141190D02*
X23666666Y-25284047D01*
X23666666Y-25284047D02*
X23714285Y-25474523D01*
X23714285Y-25474523D02*
X23761904Y-25569761D01*
X23761904Y-25569761D02*
X23857142Y-25665000D01*
X23857142Y-25665000D02*
X23999999Y-25712619D01*
X23999999Y-25712619D02*
X24238094Y-25712619D01*
X23333332Y-24712619D02*
X22714285Y-24712619D01*
X22714285Y-24712619D02*
X23047618Y-25093571D01*
X23047618Y-25093571D02*
X22904761Y-25093571D01*
X22904761Y-25093571D02*
X22809523Y-25141190D01*
X22809523Y-25141190D02*
X22761904Y-25188809D01*
X22761904Y-25188809D02*
X22714285Y-25284047D01*
X22714285Y-25284047D02*
X22714285Y-25522142D01*
X22714285Y-25522142D02*
X22761904Y-25617380D01*
X22761904Y-25617380D02*
X22809523Y-25665000D01*
X22809523Y-25665000D02*
X22904761Y-25712619D01*
X22904761Y-25712619D02*
X23190475Y-25712619D01*
X23190475Y-25712619D02*
X23285713Y-25665000D01*
X23285713Y-25665000D02*
X23333332Y-25617380D01*
X15738094Y-25712619D02*
X15738094Y-24712619D01*
X15738094Y-24712619D02*
X15499999Y-24712619D01*
X15499999Y-24712619D02*
X15357142Y-24760238D01*
X15357142Y-24760238D02*
X15261904Y-24855476D01*
X15261904Y-24855476D02*
X15214285Y-24950714D01*
X15214285Y-24950714D02*
X15166666Y-25141190D01*
X15166666Y-25141190D02*
X15166666Y-25284047D01*
X15166666Y-25284047D02*
X15214285Y-25474523D01*
X15214285Y-25474523D02*
X15261904Y-25569761D01*
X15261904Y-25569761D02*
X15357142Y-25665000D01*
X15357142Y-25665000D02*
X15499999Y-25712619D01*
X15499999Y-25712619D02*
X15738094Y-25712619D01*
X14785713Y-24807857D02*
X14738094Y-24760238D01*
X14738094Y-24760238D02*
X14642856Y-24712619D01*
X14642856Y-24712619D02*
X14404761Y-24712619D01*
X14404761Y-24712619D02*
X14309523Y-24760238D01*
X14309523Y-24760238D02*
X14261904Y-24807857D01*
X14261904Y-24807857D02*
X14214285Y-24903095D01*
X14214285Y-24903095D02*
X14214285Y-24998333D01*
X14214285Y-24998333D02*
X14261904Y-25141190D01*
X14261904Y-25141190D02*
X14833332Y-25712619D01*
X14833332Y-25712619D02*
X14214285Y-25712619D01*
X7488094Y-25712619D02*
X7488094Y-24712619D01*
X7488094Y-24712619D02*
X7249999Y-24712619D01*
X7249999Y-24712619D02*
X7107142Y-24760238D01*
X7107142Y-24760238D02*
X7011904Y-24855476D01*
X7011904Y-24855476D02*
X6964285Y-24950714D01*
X6964285Y-24950714D02*
X6916666Y-25141190D01*
X6916666Y-25141190D02*
X6916666Y-25284047D01*
X6916666Y-25284047D02*
X6964285Y-25474523D01*
X6964285Y-25474523D02*
X7011904Y-25569761D01*
X7011904Y-25569761D02*
X7107142Y-25665000D01*
X7107142Y-25665000D02*
X7249999Y-25712619D01*
X7249999Y-25712619D02*
X7488094Y-25712619D01*
X5964285Y-25712619D02*
X6535713Y-25712619D01*
X6249999Y-25712619D02*
X6249999Y-24712619D01*
X6249999Y-24712619D02*
X6345237Y-24855476D01*
X6345237Y-24855476D02*
X6440475Y-24950714D01*
X6440475Y-24950714D02*
X6535713Y-24998333D01*
X5639285Y-24097619D02*
X5639285Y-23097619D01*
X5639285Y-23097619D02*
X5258333Y-23097619D01*
X5258333Y-23097619D02*
X5163095Y-23145238D01*
X5163095Y-23145238D02*
X5115476Y-23192857D01*
X5115476Y-23192857D02*
X5067857Y-23288095D01*
X5067857Y-23288095D02*
X5067857Y-23430952D01*
X5067857Y-23430952D02*
X5115476Y-23526190D01*
X5115476Y-23526190D02*
X5163095Y-23573809D01*
X5163095Y-23573809D02*
X5258333Y-23621428D01*
X5258333Y-23621428D02*
X5639285Y-23621428D01*
X4686904Y-24050000D02*
X4544047Y-24097619D01*
X4544047Y-24097619D02*
X4305952Y-24097619D01*
X4305952Y-24097619D02*
X4210714Y-24050000D01*
X4210714Y-24050000D02*
X4163095Y-24002380D01*
X4163095Y-24002380D02*
X4115476Y-23907142D01*
X4115476Y-23907142D02*
X4115476Y-23811904D01*
X4115476Y-23811904D02*
X4163095Y-23716666D01*
X4163095Y-23716666D02*
X4210714Y-23669047D01*
X4210714Y-23669047D02*
X4305952Y-23621428D01*
X4305952Y-23621428D02*
X4496428Y-23573809D01*
X4496428Y-23573809D02*
X4591666Y-23526190D01*
X4591666Y-23526190D02*
X4639285Y-23478571D01*
X4639285Y-23478571D02*
X4686904Y-23383333D01*
X4686904Y-23383333D02*
X4686904Y-23288095D01*
X4686904Y-23288095D02*
X4639285Y-23192857D01*
X4639285Y-23192857D02*
X4591666Y-23145238D01*
X4591666Y-23145238D02*
X4496428Y-23097619D01*
X4496428Y-23097619D02*
X4258333Y-23097619D01*
X4258333Y-23097619D02*
X4115476Y-23145238D01*
X3163095Y-24097619D02*
X3734523Y-24097619D01*
X3448809Y-24097619D02*
X3448809Y-23097619D01*
X3448809Y-23097619D02*
X3544047Y-23240476D01*
X3544047Y-23240476D02*
X3639285Y-23335714D01*
X3639285Y-23335714D02*
X3734523Y-23383333D01*
X22392857Y-9017380D02*
X22440476Y-9065000D01*
X22440476Y-9065000D02*
X22583333Y-9112619D01*
X22583333Y-9112619D02*
X22678571Y-9112619D01*
X22678571Y-9112619D02*
X22821428Y-9065000D01*
X22821428Y-9065000D02*
X22916666Y-8969761D01*
X22916666Y-8969761D02*
X22964285Y-8874523D01*
X22964285Y-8874523D02*
X23011904Y-8684047D01*
X23011904Y-8684047D02*
X23011904Y-8541190D01*
X23011904Y-8541190D02*
X22964285Y-8350714D01*
X22964285Y-8350714D02*
X22916666Y-8255476D01*
X22916666Y-8255476D02*
X22821428Y-8160238D01*
X22821428Y-8160238D02*
X22678571Y-8112619D01*
X22678571Y-8112619D02*
X22583333Y-8112619D01*
X22583333Y-8112619D02*
X22440476Y-8160238D01*
X22440476Y-8160238D02*
X22392857Y-8207857D01*
X21440476Y-9112619D02*
X22011904Y-9112619D01*
X21726190Y-9112619D02*
X21726190Y-8112619D01*
X21726190Y-8112619D02*
X21821428Y-8255476D01*
X21821428Y-8255476D02*
X21916666Y-8350714D01*
X21916666Y-8350714D02*
X22011904Y-8398333D01*
X20821428Y-8112619D02*
X20726190Y-8112619D01*
X20726190Y-8112619D02*
X20630952Y-8160238D01*
X20630952Y-8160238D02*
X20583333Y-8207857D01*
X20583333Y-8207857D02*
X20535714Y-8303095D01*
X20535714Y-8303095D02*
X20488095Y-8493571D01*
X20488095Y-8493571D02*
X20488095Y-8731666D01*
X20488095Y-8731666D02*
X20535714Y-8922142D01*
X20535714Y-8922142D02*
X20583333Y-9017380D01*
X20583333Y-9017380D02*
X20630952Y-9065000D01*
X20630952Y-9065000D02*
X20726190Y-9112619D01*
X20726190Y-9112619D02*
X20821428Y-9112619D01*
X20821428Y-9112619D02*
X20916666Y-9065000D01*
X20916666Y-9065000D02*
X20964285Y-9017380D01*
X20964285Y-9017380D02*
X21011904Y-8922142D01*
X21011904Y-8922142D02*
X21059523Y-8731666D01*
X21059523Y-8731666D02*
X21059523Y-8493571D01*
X21059523Y-8493571D02*
X21011904Y-8303095D01*
X21011904Y-8303095D02*
X20964285Y-8207857D01*
X20964285Y-8207857D02*
X20916666Y-8160238D01*
X20916666Y-8160238D02*
X20821428Y-8112619D01*
X22392857Y-20517380D02*
X22440476Y-20565000D01*
X22440476Y-20565000D02*
X22583333Y-20612619D01*
X22583333Y-20612619D02*
X22678571Y-20612619D01*
X22678571Y-20612619D02*
X22821428Y-20565000D01*
X22821428Y-20565000D02*
X22916666Y-20469761D01*
X22916666Y-20469761D02*
X22964285Y-20374523D01*
X22964285Y-20374523D02*
X23011904Y-20184047D01*
X23011904Y-20184047D02*
X23011904Y-20041190D01*
X23011904Y-20041190D02*
X22964285Y-19850714D01*
X22964285Y-19850714D02*
X22916666Y-19755476D01*
X22916666Y-19755476D02*
X22821428Y-19660238D01*
X22821428Y-19660238D02*
X22678571Y-19612619D01*
X22678571Y-19612619D02*
X22583333Y-19612619D01*
X22583333Y-19612619D02*
X22440476Y-19660238D01*
X22440476Y-19660238D02*
X22392857Y-19707857D01*
X21440476Y-20612619D02*
X22011904Y-20612619D01*
X21726190Y-20612619D02*
X21726190Y-19612619D01*
X21726190Y-19612619D02*
X21821428Y-19755476D01*
X21821428Y-19755476D02*
X21916666Y-19850714D01*
X21916666Y-19850714D02*
X22011904Y-19898333D01*
X20488095Y-20612619D02*
X21059523Y-20612619D01*
X20773809Y-20612619D02*
X20773809Y-19612619D01*
X20773809Y-19612619D02*
X20869047Y-19755476D01*
X20869047Y-19755476D02*
X20964285Y-19850714D01*
X20964285Y-19850714D02*
X21059523Y-19898333D01*
X22011904Y-10962619D02*
X22011904Y-11772142D01*
X22011904Y-11772142D02*
X21964285Y-11867380D01*
X21964285Y-11867380D02*
X21916666Y-11915000D01*
X21916666Y-11915000D02*
X21821428Y-11962619D01*
X21821428Y-11962619D02*
X21630952Y-11962619D01*
X21630952Y-11962619D02*
X21535714Y-11915000D01*
X21535714Y-11915000D02*
X21488095Y-11867380D01*
X21488095Y-11867380D02*
X21440476Y-11772142D01*
X21440476Y-11772142D02*
X21440476Y-10962619D01*
X20488095Y-10962619D02*
X20964285Y-10962619D01*
X20964285Y-10962619D02*
X21011904Y-11438809D01*
X21011904Y-11438809D02*
X20964285Y-11391190D01*
X20964285Y-11391190D02*
X20869047Y-11343571D01*
X20869047Y-11343571D02*
X20630952Y-11343571D01*
X20630952Y-11343571D02*
X20535714Y-11391190D01*
X20535714Y-11391190D02*
X20488095Y-11438809D01*
X20488095Y-11438809D02*
X20440476Y-11534047D01*
X20440476Y-11534047D02*
X20440476Y-11772142D01*
X20440476Y-11772142D02*
X20488095Y-11867380D01*
X20488095Y-11867380D02*
X20535714Y-11915000D01*
X20535714Y-11915000D02*
X20630952Y-11962619D01*
X20630952Y-11962619D02*
X20869047Y-11962619D01*
X20869047Y-11962619D02*
X20964285Y-11915000D01*
X20964285Y-11915000D02*
X21011904Y-11867380D01*
X12217380Y-5333333D02*
X12265000Y-5285714D01*
X12265000Y-5285714D02*
X12312619Y-5142857D01*
X12312619Y-5142857D02*
X12312619Y-5047619D01*
X12312619Y-5047619D02*
X12265000Y-4904762D01*
X12265000Y-4904762D02*
X12169761Y-4809524D01*
X12169761Y-4809524D02*
X12074523Y-4761905D01*
X12074523Y-4761905D02*
X11884047Y-4714286D01*
X11884047Y-4714286D02*
X11741190Y-4714286D01*
X11741190Y-4714286D02*
X11550714Y-4761905D01*
X11550714Y-4761905D02*
X11455476Y-4809524D01*
X11455476Y-4809524D02*
X11360238Y-4904762D01*
X11360238Y-4904762D02*
X11312619Y-5047619D01*
X11312619Y-5047619D02*
X11312619Y-5142857D01*
X11312619Y-5142857D02*
X11360238Y-5285714D01*
X11360238Y-5285714D02*
X11407857Y-5333333D01*
X11312619Y-5666667D02*
X11312619Y-6333333D01*
X11312619Y-6333333D02*
X12312619Y-5904762D01*
X19517380Y-6108333D02*
X19565000Y-6060714D01*
X19565000Y-6060714D02*
X19612619Y-5917857D01*
X19612619Y-5917857D02*
X19612619Y-5822619D01*
X19612619Y-5822619D02*
X19565000Y-5679762D01*
X19565000Y-5679762D02*
X19469761Y-5584524D01*
X19469761Y-5584524D02*
X19374523Y-5536905D01*
X19374523Y-5536905D02*
X19184047Y-5489286D01*
X19184047Y-5489286D02*
X19041190Y-5489286D01*
X19041190Y-5489286D02*
X18850714Y-5536905D01*
X18850714Y-5536905D02*
X18755476Y-5584524D01*
X18755476Y-5584524D02*
X18660238Y-5679762D01*
X18660238Y-5679762D02*
X18612619Y-5822619D01*
X18612619Y-5822619D02*
X18612619Y-5917857D01*
X18612619Y-5917857D02*
X18660238Y-6060714D01*
X18660238Y-6060714D02*
X18707857Y-6108333D01*
X19612619Y-6584524D02*
X19612619Y-6775000D01*
X19612619Y-6775000D02*
X19565000Y-6870238D01*
X19565000Y-6870238D02*
X19517380Y-6917857D01*
X19517380Y-6917857D02*
X19374523Y-7013095D01*
X19374523Y-7013095D02*
X19184047Y-7060714D01*
X19184047Y-7060714D02*
X18803095Y-7060714D01*
X18803095Y-7060714D02*
X18707857Y-7013095D01*
X18707857Y-7013095D02*
X18660238Y-6965476D01*
X18660238Y-6965476D02*
X18612619Y-6870238D01*
X18612619Y-6870238D02*
X18612619Y-6679762D01*
X18612619Y-6679762D02*
X18660238Y-6584524D01*
X18660238Y-6584524D02*
X18707857Y-6536905D01*
X18707857Y-6536905D02*
X18803095Y-6489286D01*
X18803095Y-6489286D02*
X19041190Y-6489286D01*
X19041190Y-6489286D02*
X19136428Y-6536905D01*
X19136428Y-6536905D02*
X19184047Y-6584524D01*
X19184047Y-6584524D02*
X19231666Y-6679762D01*
X19231666Y-6679762D02*
X19231666Y-6870238D01*
X19231666Y-6870238D02*
X19184047Y-6965476D01*
X19184047Y-6965476D02*
X19136428Y-7013095D01*
X19136428Y-7013095D02*
X19041190Y-7060714D01*
X8916666Y-25717380D02*
X8964285Y-25765000D01*
X8964285Y-25765000D02*
X9107142Y-25812619D01*
X9107142Y-25812619D02*
X9202380Y-25812619D01*
X9202380Y-25812619D02*
X9345237Y-25765000D01*
X9345237Y-25765000D02*
X9440475Y-25669761D01*
X9440475Y-25669761D02*
X9488094Y-25574523D01*
X9488094Y-25574523D02*
X9535713Y-25384047D01*
X9535713Y-25384047D02*
X9535713Y-25241190D01*
X9535713Y-25241190D02*
X9488094Y-25050714D01*
X9488094Y-25050714D02*
X9440475Y-24955476D01*
X9440475Y-24955476D02*
X9345237Y-24860238D01*
X9345237Y-24860238D02*
X9202380Y-24812619D01*
X9202380Y-24812619D02*
X9107142Y-24812619D01*
X9107142Y-24812619D02*
X8964285Y-24860238D01*
X8964285Y-24860238D02*
X8916666Y-24907857D01*
X8059523Y-24812619D02*
X8249999Y-24812619D01*
X8249999Y-24812619D02*
X8345237Y-24860238D01*
X8345237Y-24860238D02*
X8392856Y-24907857D01*
X8392856Y-24907857D02*
X8488094Y-25050714D01*
X8488094Y-25050714D02*
X8535713Y-25241190D01*
X8535713Y-25241190D02*
X8535713Y-25622142D01*
X8535713Y-25622142D02*
X8488094Y-25717380D01*
X8488094Y-25717380D02*
X8440475Y-25765000D01*
X8440475Y-25765000D02*
X8345237Y-25812619D01*
X8345237Y-25812619D02*
X8154761Y-25812619D01*
X8154761Y-25812619D02*
X8059523Y-25765000D01*
X8059523Y-25765000D02*
X8011904Y-25717380D01*
X8011904Y-25717380D02*
X7964285Y-25622142D01*
X7964285Y-25622142D02*
X7964285Y-25384047D01*
X7964285Y-25384047D02*
X8011904Y-25288809D01*
X8011904Y-25288809D02*
X8059523Y-25241190D01*
X8059523Y-25241190D02*
X8154761Y-25193571D01*
X8154761Y-25193571D02*
X8345237Y-25193571D01*
X8345237Y-25193571D02*
X8440475Y-25241190D01*
X8440475Y-25241190D02*
X8488094Y-25288809D01*
X8488094Y-25288809D02*
X8535713Y-25384047D01*
D12*
X18250000Y-7200000D02*
X18250000Y-2200000D01*
X13250000Y-7200000D02*
X13250000Y-2160000D01*
D13*
X19850000Y-31500000D02*
X19850000Y-30350000D01*
X27150000Y-31500000D02*
X19850000Y-31500000D01*
X27150000Y-26000000D02*
X19850000Y-26000000D01*
X11350000Y-31500000D02*
X11350000Y-30350000D01*
X18650000Y-31500000D02*
X11350000Y-31500000D01*
X18650000Y-26000000D02*
X11350000Y-26000000D01*
X3100000Y-31500000D02*
X3100000Y-30350000D01*
X10400000Y-31500000D02*
X3100000Y-31500000D01*
X10400000Y-26000000D02*
X3100000Y-26000000D01*
D14*
X2000000Y-18930000D02*
X2000000Y-11570000D01*
X4320000Y-21250000D02*
X11680000Y-21250000D01*
X14000000Y-18930000D02*
X14000000Y-11570000D01*
X4320000Y-9250000D02*
X11680000Y-9250000D01*
D15*
X310000Y-20500000D02*
G75*
G03*
X310000Y-20500000I-100000J0D01*
G01*
D13*
X22461252Y-9590000D02*
X21038748Y-9590000D01*
X22461252Y-11410000D02*
X21038748Y-11410000D01*
X22461252Y-21090000D02*
X21038748Y-21090000D01*
X22461252Y-22910000D02*
X21038748Y-22910000D01*
X25350000Y-12590000D02*
X19340000Y-12590000D01*
X23100000Y-19410000D02*
X19340000Y-19410000D01*
X19340000Y-12590000D02*
X19340000Y-13850000D01*
X19340000Y-19410000D02*
X19340000Y-18150000D01*
X10910000Y-6211252D02*
X10910000Y-4788748D01*
X9090000Y-6211252D02*
X9090000Y-4788748D01*
X20090000Y-5563748D02*
X20090000Y-6986252D01*
X21910000Y-5563748D02*
X21910000Y-6986252D01*
X8038748Y-24410000D02*
X9461252Y-24410000D01*
X8038748Y-22590000D02*
X9461252Y-22590000D01*
M02*
