G04 #@! TF.GenerationSoftware,KiCad,Pcbnew,7.0.2-6a45011f42~172~ubuntu22.04.1*
G04 #@! TF.CreationDate,2023-06-14T15:19:40+02:00*
G04 #@! TF.ProjectId,imu_module,696d755f-6d6f-4647-956c-652e6b696361,rev?*
G04 #@! TF.SameCoordinates,Original*
G04 #@! TF.FileFunction,Legend,Top*
G04 #@! TF.FilePolarity,Positive*
%FSLAX46Y46*%
G04 Gerber Fmt 4.6, Leading zero omitted, Abs format (unit mm)*
G04 Created by KiCad (PCBNEW 7.0.2-6a45011f42~172~ubuntu22.04.1) date 2023-06-14 15:19:40*
%MOMM*%
%LPD*%
G01*
G04 APERTURE LIST*
%ADD10C,0.150000*%
%ADD11C,0.120000*%
%ADD12C,0.127000*%
%ADD13C,0.200000*%
G04 APERTURE END LIST*
D10*
X312619Y-32166666D02*
X-163571Y-32499999D01*
X312619Y-32738094D02*
X-687380Y-32738094D01*
X-687380Y-32738094D02*
X-687380Y-32357142D01*
X-687380Y-32357142D02*
X-639761Y-32261904D01*
X-639761Y-32261904D02*
X-592142Y-32214285D01*
X-592142Y-32214285D02*
X-496904Y-32166666D01*
X-496904Y-32166666D02*
X-354047Y-32166666D01*
X-354047Y-32166666D02*
X-258809Y-32214285D01*
X-258809Y-32214285D02*
X-211190Y-32261904D01*
X-211190Y-32261904D02*
X-163571Y-32357142D01*
X-163571Y-32357142D02*
X-163571Y-32738094D01*
X-687380Y-31833332D02*
X-687380Y-31214285D01*
X-687380Y-31214285D02*
X-306428Y-31547618D01*
X-306428Y-31547618D02*
X-306428Y-31404761D01*
X-306428Y-31404761D02*
X-258809Y-31309523D01*
X-258809Y-31309523D02*
X-211190Y-31261904D01*
X-211190Y-31261904D02*
X-115952Y-31214285D01*
X-115952Y-31214285D02*
X122142Y-31214285D01*
X122142Y-31214285D02*
X217380Y-31261904D01*
X217380Y-31261904D02*
X265000Y-31309523D01*
X265000Y-31309523D02*
X312619Y-31404761D01*
X312619Y-31404761D02*
X312619Y-31690475D01*
X312619Y-31690475D02*
X265000Y-31785713D01*
X265000Y-31785713D02*
X217380Y-31833332D01*
X2508333Y-33462619D02*
X2175000Y-32986428D01*
X1936905Y-33462619D02*
X1936905Y-32462619D01*
X1936905Y-32462619D02*
X2317857Y-32462619D01*
X2317857Y-32462619D02*
X2413095Y-32510238D01*
X2413095Y-32510238D02*
X2460714Y-32557857D01*
X2460714Y-32557857D02*
X2508333Y-32653095D01*
X2508333Y-32653095D02*
X2508333Y-32795952D01*
X2508333Y-32795952D02*
X2460714Y-32891190D01*
X2460714Y-32891190D02*
X2413095Y-32938809D01*
X2413095Y-32938809D02*
X2317857Y-32986428D01*
X2317857Y-32986428D02*
X1936905Y-32986428D01*
X2889286Y-32557857D02*
X2936905Y-32510238D01*
X2936905Y-32510238D02*
X3032143Y-32462619D01*
X3032143Y-32462619D02*
X3270238Y-32462619D01*
X3270238Y-32462619D02*
X3365476Y-32510238D01*
X3365476Y-32510238D02*
X3413095Y-32557857D01*
X3413095Y-32557857D02*
X3460714Y-32653095D01*
X3460714Y-32653095D02*
X3460714Y-32748333D01*
X3460714Y-32748333D02*
X3413095Y-32891190D01*
X3413095Y-32891190D02*
X2841667Y-33462619D01*
X2841667Y-33462619D02*
X3460714Y-33462619D01*
X27738095Y-12127619D02*
X27738095Y-12937142D01*
X27738095Y-12937142D02*
X27785714Y-13032380D01*
X27785714Y-13032380D02*
X27833333Y-13080000D01*
X27833333Y-13080000D02*
X27928571Y-13127619D01*
X27928571Y-13127619D02*
X28119047Y-13127619D01*
X28119047Y-13127619D02*
X28214285Y-13080000D01*
X28214285Y-13080000D02*
X28261904Y-13032380D01*
X28261904Y-13032380D02*
X28309523Y-12937142D01*
X28309523Y-12937142D02*
X28309523Y-12127619D01*
X28738095Y-12222857D02*
X28785714Y-12175238D01*
X28785714Y-12175238D02*
X28880952Y-12127619D01*
X28880952Y-12127619D02*
X29119047Y-12127619D01*
X29119047Y-12127619D02*
X29214285Y-12175238D01*
X29214285Y-12175238D02*
X29261904Y-12222857D01*
X29261904Y-12222857D02*
X29309523Y-12318095D01*
X29309523Y-12318095D02*
X29309523Y-12413333D01*
X29309523Y-12413333D02*
X29261904Y-12556190D01*
X29261904Y-12556190D02*
X28690476Y-13127619D01*
X28690476Y-13127619D02*
X29309523Y-13127619D01*
X19833333Y-687380D02*
X19785714Y-735000D01*
X19785714Y-735000D02*
X19642857Y-782619D01*
X19642857Y-782619D02*
X19547619Y-782619D01*
X19547619Y-782619D02*
X19404762Y-735000D01*
X19404762Y-735000D02*
X19309524Y-639761D01*
X19309524Y-639761D02*
X19261905Y-544523D01*
X19261905Y-544523D02*
X19214286Y-354047D01*
X19214286Y-354047D02*
X19214286Y-211190D01*
X19214286Y-211190D02*
X19261905Y-20714D01*
X19261905Y-20714D02*
X19309524Y74523D01*
X19309524Y74523D02*
X19404762Y169761D01*
X19404762Y169761D02*
X19547619Y217380D01*
X19547619Y217380D02*
X19642857Y217380D01*
X19642857Y217380D02*
X19785714Y169761D01*
X19785714Y169761D02*
X19833333Y122142D01*
X20214286Y122142D02*
X20261905Y169761D01*
X20261905Y169761D02*
X20357143Y217380D01*
X20357143Y217380D02*
X20595238Y217380D01*
X20595238Y217380D02*
X20690476Y169761D01*
X20690476Y169761D02*
X20738095Y122142D01*
X20738095Y122142D02*
X20785714Y26904D01*
X20785714Y26904D02*
X20785714Y-68333D01*
X20785714Y-68333D02*
X20738095Y-211190D01*
X20738095Y-211190D02*
X20166667Y-782619D01*
X20166667Y-782619D02*
X20785714Y-782619D01*
X15583333Y-3687380D02*
X15535714Y-3735000D01*
X15535714Y-3735000D02*
X15392857Y-3782619D01*
X15392857Y-3782619D02*
X15297619Y-3782619D01*
X15297619Y-3782619D02*
X15154762Y-3735000D01*
X15154762Y-3735000D02*
X15059524Y-3639761D01*
X15059524Y-3639761D02*
X15011905Y-3544523D01*
X15011905Y-3544523D02*
X14964286Y-3354047D01*
X14964286Y-3354047D02*
X14964286Y-3211190D01*
X14964286Y-3211190D02*
X15011905Y-3020714D01*
X15011905Y-3020714D02*
X15059524Y-2925476D01*
X15059524Y-2925476D02*
X15154762Y-2830238D01*
X15154762Y-2830238D02*
X15297619Y-2782619D01*
X15297619Y-2782619D02*
X15392857Y-2782619D01*
X15392857Y-2782619D02*
X15535714Y-2830238D01*
X15535714Y-2830238D02*
X15583333Y-2877857D01*
X16440476Y-3115952D02*
X16440476Y-3782619D01*
X16202381Y-2735000D02*
X15964286Y-3449285D01*
X15964286Y-3449285D02*
X16583333Y-3449285D01*
X9808333Y-3687380D02*
X9760714Y-3735000D01*
X9760714Y-3735000D02*
X9617857Y-3782619D01*
X9617857Y-3782619D02*
X9522619Y-3782619D01*
X9522619Y-3782619D02*
X9379762Y-3735000D01*
X9379762Y-3735000D02*
X9284524Y-3639761D01*
X9284524Y-3639761D02*
X9236905Y-3544523D01*
X9236905Y-3544523D02*
X9189286Y-3354047D01*
X9189286Y-3354047D02*
X9189286Y-3211190D01*
X9189286Y-3211190D02*
X9236905Y-3020714D01*
X9236905Y-3020714D02*
X9284524Y-2925476D01*
X9284524Y-2925476D02*
X9379762Y-2830238D01*
X9379762Y-2830238D02*
X9522619Y-2782619D01*
X9522619Y-2782619D02*
X9617857Y-2782619D01*
X9617857Y-2782619D02*
X9760714Y-2830238D01*
X9760714Y-2830238D02*
X9808333Y-2877857D01*
X10713095Y-2782619D02*
X10236905Y-2782619D01*
X10236905Y-2782619D02*
X10189286Y-3258809D01*
X10189286Y-3258809D02*
X10236905Y-3211190D01*
X10236905Y-3211190D02*
X10332143Y-3163571D01*
X10332143Y-3163571D02*
X10570238Y-3163571D01*
X10570238Y-3163571D02*
X10665476Y-3211190D01*
X10665476Y-3211190D02*
X10713095Y-3258809D01*
X10713095Y-3258809D02*
X10760714Y-3354047D01*
X10760714Y-3354047D02*
X10760714Y-3592142D01*
X10760714Y-3592142D02*
X10713095Y-3687380D01*
X10713095Y-3687380D02*
X10665476Y-3735000D01*
X10665476Y-3735000D02*
X10570238Y-3782619D01*
X10570238Y-3782619D02*
X10332143Y-3782619D01*
X10332143Y-3782619D02*
X10236905Y-3735000D01*
X10236905Y-3735000D02*
X10189286Y-3687380D01*
X19937380Y-30666666D02*
X19985000Y-30714285D01*
X19985000Y-30714285D02*
X20032619Y-30857142D01*
X20032619Y-30857142D02*
X20032619Y-30952380D01*
X20032619Y-30952380D02*
X19985000Y-31095237D01*
X19985000Y-31095237D02*
X19889761Y-31190475D01*
X19889761Y-31190475D02*
X19794523Y-31238094D01*
X19794523Y-31238094D02*
X19604047Y-31285713D01*
X19604047Y-31285713D02*
X19461190Y-31285713D01*
X19461190Y-31285713D02*
X19270714Y-31238094D01*
X19270714Y-31238094D02*
X19175476Y-31190475D01*
X19175476Y-31190475D02*
X19080238Y-31095237D01*
X19080238Y-31095237D02*
X19032619Y-30952380D01*
X19032619Y-30952380D02*
X19032619Y-30857142D01*
X19032619Y-30857142D02*
X19080238Y-30714285D01*
X19080238Y-30714285D02*
X19127857Y-30666666D01*
X19461190Y-30095237D02*
X19413571Y-30190475D01*
X19413571Y-30190475D02*
X19365952Y-30238094D01*
X19365952Y-30238094D02*
X19270714Y-30285713D01*
X19270714Y-30285713D02*
X19223095Y-30285713D01*
X19223095Y-30285713D02*
X19127857Y-30238094D01*
X19127857Y-30238094D02*
X19080238Y-30190475D01*
X19080238Y-30190475D02*
X19032619Y-30095237D01*
X19032619Y-30095237D02*
X19032619Y-29904761D01*
X19032619Y-29904761D02*
X19080238Y-29809523D01*
X19080238Y-29809523D02*
X19127857Y-29761904D01*
X19127857Y-29761904D02*
X19223095Y-29714285D01*
X19223095Y-29714285D02*
X19270714Y-29714285D01*
X19270714Y-29714285D02*
X19365952Y-29761904D01*
X19365952Y-29761904D02*
X19413571Y-29809523D01*
X19413571Y-29809523D02*
X19461190Y-29904761D01*
X19461190Y-29904761D02*
X19461190Y-30095237D01*
X19461190Y-30095237D02*
X19508809Y-30190475D01*
X19508809Y-30190475D02*
X19556428Y-30238094D01*
X19556428Y-30238094D02*
X19651666Y-30285713D01*
X19651666Y-30285713D02*
X19842142Y-30285713D01*
X19842142Y-30285713D02*
X19937380Y-30238094D01*
X19937380Y-30238094D02*
X19985000Y-30190475D01*
X19985000Y-30190475D02*
X20032619Y-30095237D01*
X20032619Y-30095237D02*
X20032619Y-29904761D01*
X20032619Y-29904761D02*
X19985000Y-29809523D01*
X19985000Y-29809523D02*
X19937380Y-29761904D01*
X19937380Y-29761904D02*
X19842142Y-29714285D01*
X19842142Y-29714285D02*
X19651666Y-29714285D01*
X19651666Y-29714285D02*
X19556428Y-29761904D01*
X19556428Y-29761904D02*
X19508809Y-29809523D01*
X19508809Y-29809523D02*
X19461190Y-29904761D01*
X14956666Y-29962619D02*
X14956666Y-30676904D01*
X14956666Y-30676904D02*
X14909047Y-30819761D01*
X14909047Y-30819761D02*
X14813809Y-30915000D01*
X14813809Y-30915000D02*
X14670952Y-30962619D01*
X14670952Y-30962619D02*
X14575714Y-30962619D01*
X15956666Y-30962619D02*
X15385238Y-30962619D01*
X15670952Y-30962619D02*
X15670952Y-29962619D01*
X15670952Y-29962619D02*
X15575714Y-30105476D01*
X15575714Y-30105476D02*
X15480476Y-30200714D01*
X15480476Y-30200714D02*
X15385238Y-30248333D01*
X23266666Y-40312619D02*
X23266666Y-41026904D01*
X23266666Y-41026904D02*
X23219047Y-41169761D01*
X23219047Y-41169761D02*
X23123809Y-41265000D01*
X23123809Y-41265000D02*
X22980952Y-41312619D01*
X22980952Y-41312619D02*
X22885714Y-41312619D01*
X23647619Y-40312619D02*
X24266666Y-40312619D01*
X24266666Y-40312619D02*
X23933333Y-40693571D01*
X23933333Y-40693571D02*
X24076190Y-40693571D01*
X24076190Y-40693571D02*
X24171428Y-40741190D01*
X24171428Y-40741190D02*
X24219047Y-40788809D01*
X24219047Y-40788809D02*
X24266666Y-40884047D01*
X24266666Y-40884047D02*
X24266666Y-41122142D01*
X24266666Y-41122142D02*
X24219047Y-41217380D01*
X24219047Y-41217380D02*
X24171428Y-41265000D01*
X24171428Y-41265000D02*
X24076190Y-41312619D01*
X24076190Y-41312619D02*
X23790476Y-41312619D01*
X23790476Y-41312619D02*
X23695238Y-41265000D01*
X23695238Y-41265000D02*
X23647619Y-41217380D01*
X6066666Y-40312619D02*
X6066666Y-41026904D01*
X6066666Y-41026904D02*
X6019047Y-41169761D01*
X6019047Y-41169761D02*
X5923809Y-41265000D01*
X5923809Y-41265000D02*
X5780952Y-41312619D01*
X5780952Y-41312619D02*
X5685714Y-41312619D01*
X6971428Y-40645952D02*
X6971428Y-41312619D01*
X6733333Y-40265000D02*
X6495238Y-40979285D01*
X6495238Y-40979285D02*
X7114285Y-40979285D01*
X29112619Y-30761904D02*
X29922142Y-30761904D01*
X29922142Y-30761904D02*
X30017380Y-30714285D01*
X30017380Y-30714285D02*
X30065000Y-30666666D01*
X30065000Y-30666666D02*
X30112619Y-30571428D01*
X30112619Y-30571428D02*
X30112619Y-30380952D01*
X30112619Y-30380952D02*
X30065000Y-30285714D01*
X30065000Y-30285714D02*
X30017380Y-30238095D01*
X30017380Y-30238095D02*
X29922142Y-30190476D01*
X29922142Y-30190476D02*
X29112619Y-30190476D01*
X29445952Y-29285714D02*
X30112619Y-29285714D01*
X29065000Y-29523809D02*
X29779285Y-29761904D01*
X29779285Y-29761904D02*
X29779285Y-29142857D01*
X4238095Y287380D02*
X4238095Y1287380D01*
X4238095Y811190D02*
X4809523Y811190D01*
X4809523Y287380D02*
X4809523Y1287380D01*
X5809523Y287380D02*
X5238095Y287380D01*
X5523809Y287380D02*
X5523809Y1287380D01*
X5523809Y1287380D02*
X5428571Y1144523D01*
X5428571Y1144523D02*
X5333333Y1049285D01*
X5333333Y1049285D02*
X5238095Y1001666D01*
X24398095Y195380D02*
X24398095Y1195380D01*
X24398095Y719190D02*
X24969523Y719190D01*
X24969523Y195380D02*
X24969523Y1195380D01*
X25398095Y1100142D02*
X25445714Y1147761D01*
X25445714Y1147761D02*
X25540952Y1195380D01*
X25540952Y1195380D02*
X25779047Y1195380D01*
X25779047Y1195380D02*
X25874285Y1147761D01*
X25874285Y1147761D02*
X25921904Y1100142D01*
X25921904Y1100142D02*
X25969523Y1004904D01*
X25969523Y1004904D02*
X25969523Y909666D01*
X25969523Y909666D02*
X25921904Y766809D01*
X25921904Y766809D02*
X25350476Y195380D01*
X25350476Y195380D02*
X25969523Y195380D01*
X14238095Y-34712619D02*
X14238095Y-33712619D01*
X14238095Y-34188809D02*
X14809523Y-34188809D01*
X14809523Y-34712619D02*
X14809523Y-33712619D01*
X15190476Y-33712619D02*
X15809523Y-33712619D01*
X15809523Y-33712619D02*
X15476190Y-34093571D01*
X15476190Y-34093571D02*
X15619047Y-34093571D01*
X15619047Y-34093571D02*
X15714285Y-34141190D01*
X15714285Y-34141190D02*
X15761904Y-34188809D01*
X15761904Y-34188809D02*
X15809523Y-34284047D01*
X15809523Y-34284047D02*
X15809523Y-34522142D01*
X15809523Y-34522142D02*
X15761904Y-34617380D01*
X15761904Y-34617380D02*
X15714285Y-34665000D01*
X15714285Y-34665000D02*
X15619047Y-34712619D01*
X15619047Y-34712619D02*
X15333333Y-34712619D01*
X15333333Y-34712619D02*
X15238095Y-34665000D01*
X15238095Y-34665000D02*
X15190476Y-34617380D01*
X16333095Y-15212619D02*
X16333095Y-16022142D01*
X16333095Y-16022142D02*
X16380714Y-16117380D01*
X16380714Y-16117380D02*
X16428333Y-16165000D01*
X16428333Y-16165000D02*
X16523571Y-16212619D01*
X16523571Y-16212619D02*
X16714047Y-16212619D01*
X16714047Y-16212619D02*
X16809285Y-16165000D01*
X16809285Y-16165000D02*
X16856904Y-16117380D01*
X16856904Y-16117380D02*
X16904523Y-16022142D01*
X16904523Y-16022142D02*
X16904523Y-15212619D01*
X17904523Y-16212619D02*
X17333095Y-16212619D01*
X17618809Y-16212619D02*
X17618809Y-15212619D01*
X17618809Y-15212619D02*
X17523571Y-15355476D01*
X17523571Y-15355476D02*
X17428333Y-15450714D01*
X17428333Y-15450714D02*
X17333095Y-15498333D01*
X23658095Y-21652620D02*
X23658095Y-22462143D01*
X23658095Y-22462143D02*
X23705714Y-22557381D01*
X23705714Y-22557381D02*
X23753333Y-22605001D01*
X23753333Y-22605001D02*
X23848571Y-22652620D01*
X23848571Y-22652620D02*
X24039047Y-22652620D01*
X24039047Y-22652620D02*
X24134285Y-22605001D01*
X24134285Y-22605001D02*
X24181904Y-22557381D01*
X24181904Y-22557381D02*
X24229523Y-22462143D01*
X24229523Y-22462143D02*
X24229523Y-21652620D01*
X24610476Y-21652620D02*
X25229523Y-21652620D01*
X25229523Y-21652620D02*
X24896190Y-22033572D01*
X24896190Y-22033572D02*
X25039047Y-22033572D01*
X25039047Y-22033572D02*
X25134285Y-22081191D01*
X25134285Y-22081191D02*
X25181904Y-22128810D01*
X25181904Y-22128810D02*
X25229523Y-22224048D01*
X25229523Y-22224048D02*
X25229523Y-22462143D01*
X25229523Y-22462143D02*
X25181904Y-22557381D01*
X25181904Y-22557381D02*
X25134285Y-22605001D01*
X25134285Y-22605001D02*
X25039047Y-22652620D01*
X25039047Y-22652620D02*
X24753333Y-22652620D01*
X24753333Y-22652620D02*
X24658095Y-22605001D01*
X24658095Y-22605001D02*
X24610476Y-22557381D01*
X17366666Y-24115001D02*
X17509523Y-24162620D01*
X17509523Y-24162620D02*
X17747618Y-24162620D01*
X17747618Y-24162620D02*
X17842856Y-24115001D01*
X17842856Y-24115001D02*
X17890475Y-24067381D01*
X17890475Y-24067381D02*
X17938094Y-23972143D01*
X17938094Y-23972143D02*
X17938094Y-23876905D01*
X17938094Y-23876905D02*
X17890475Y-23781667D01*
X17890475Y-23781667D02*
X17842856Y-23734048D01*
X17842856Y-23734048D02*
X17747618Y-23686429D01*
X17747618Y-23686429D02*
X17557142Y-23638810D01*
X17557142Y-23638810D02*
X17461904Y-23591191D01*
X17461904Y-23591191D02*
X17414285Y-23543572D01*
X17414285Y-23543572D02*
X17366666Y-23448334D01*
X17366666Y-23448334D02*
X17366666Y-23353096D01*
X17366666Y-23353096D02*
X17414285Y-23257858D01*
X17414285Y-23257858D02*
X17461904Y-23210239D01*
X17461904Y-23210239D02*
X17557142Y-23162620D01*
X17557142Y-23162620D02*
X17795237Y-23162620D01*
X17795237Y-23162620D02*
X17938094Y-23210239D01*
X18366666Y-24162620D02*
X18366666Y-23162620D01*
X18366666Y-23162620D02*
X18938094Y-24162620D01*
X18938094Y-24162620D02*
X18938094Y-23162620D01*
X19319047Y-23162620D02*
X19985713Y-23162620D01*
X19985713Y-23162620D02*
X19557142Y-24162620D01*
X20795237Y-23495953D02*
X20795237Y-24162620D01*
X20557142Y-23115001D02*
X20319047Y-23829286D01*
X20319047Y-23829286D02*
X20938094Y-23829286D01*
X21795237Y-24162620D02*
X21319047Y-24162620D01*
X21319047Y-24162620D02*
X21319047Y-23162620D01*
X21985714Y-23162620D02*
X22319047Y-24162620D01*
X22319047Y-24162620D02*
X22652380Y-23162620D01*
X23509523Y-24162620D02*
X22938095Y-24162620D01*
X23223809Y-24162620D02*
X23223809Y-23162620D01*
X23223809Y-23162620D02*
X23128571Y-23305477D01*
X23128571Y-23305477D02*
X23033333Y-23400715D01*
X23033333Y-23400715D02*
X22938095Y-23448334D01*
X23795238Y-23162620D02*
X24366666Y-23162620D01*
X24080952Y-24162620D02*
X24080952Y-23162620D01*
X24604762Y-23162620D02*
X25223809Y-23162620D01*
X25223809Y-23162620D02*
X24890476Y-23543572D01*
X24890476Y-23543572D02*
X25033333Y-23543572D01*
X25033333Y-23543572D02*
X25128571Y-23591191D01*
X25128571Y-23591191D02*
X25176190Y-23638810D01*
X25176190Y-23638810D02*
X25223809Y-23734048D01*
X25223809Y-23734048D02*
X25223809Y-23972143D01*
X25223809Y-23972143D02*
X25176190Y-24067381D01*
X25176190Y-24067381D02*
X25128571Y-24115001D01*
X25128571Y-24115001D02*
X25033333Y-24162620D01*
X25033333Y-24162620D02*
X24747619Y-24162620D01*
X24747619Y-24162620D02*
X24652381Y-24115001D01*
X24652381Y-24115001D02*
X24604762Y-24067381D01*
X26080952Y-23495953D02*
X26080952Y-24162620D01*
X25842857Y-23115001D02*
X25604762Y-23829286D01*
X25604762Y-23829286D02*
X26223809Y-23829286D01*
X26604762Y-24162620D02*
X26604762Y-23162620D01*
X26604762Y-23162620D02*
X26842857Y-23162620D01*
X26842857Y-23162620D02*
X26985714Y-23210239D01*
X26985714Y-23210239D02*
X27080952Y-23305477D01*
X27080952Y-23305477D02*
X27128571Y-23400715D01*
X27128571Y-23400715D02*
X27176190Y-23591191D01*
X27176190Y-23591191D02*
X27176190Y-23734048D01*
X27176190Y-23734048D02*
X27128571Y-23924524D01*
X27128571Y-23924524D02*
X27080952Y-24019762D01*
X27080952Y-24019762D02*
X26985714Y-24115001D01*
X26985714Y-24115001D02*
X26842857Y-24162620D01*
X26842857Y-24162620D02*
X26604762Y-24162620D01*
X27938095Y-23638810D02*
X28080952Y-23686429D01*
X28080952Y-23686429D02*
X28128571Y-23734048D01*
X28128571Y-23734048D02*
X28176190Y-23829286D01*
X28176190Y-23829286D02*
X28176190Y-23972143D01*
X28176190Y-23972143D02*
X28128571Y-24067381D01*
X28128571Y-24067381D02*
X28080952Y-24115001D01*
X28080952Y-24115001D02*
X27985714Y-24162620D01*
X27985714Y-24162620D02*
X27604762Y-24162620D01*
X27604762Y-24162620D02*
X27604762Y-23162620D01*
X27604762Y-23162620D02*
X27938095Y-23162620D01*
X27938095Y-23162620D02*
X28033333Y-23210239D01*
X28033333Y-23210239D02*
X28080952Y-23257858D01*
X28080952Y-23257858D02*
X28128571Y-23353096D01*
X28128571Y-23353096D02*
X28128571Y-23448334D01*
X28128571Y-23448334D02*
X28080952Y-23543572D01*
X28080952Y-23543572D02*
X28033333Y-23591191D01*
X28033333Y-23591191D02*
X27938095Y-23638810D01*
X27938095Y-23638810D02*
X27604762Y-23638810D01*
X28461905Y-23162620D02*
X28795238Y-24162620D01*
X28795238Y-24162620D02*
X29128571Y-23162620D01*
X30033333Y-24162620D02*
X29700000Y-23686429D01*
X29461905Y-24162620D02*
X29461905Y-23162620D01*
X29461905Y-23162620D02*
X29842857Y-23162620D01*
X29842857Y-23162620D02*
X29938095Y-23210239D01*
X29938095Y-23210239D02*
X29985714Y-23257858D01*
X29985714Y-23257858D02*
X30033333Y-23353096D01*
X30033333Y-23353096D02*
X30033333Y-23495953D01*
X30033333Y-23495953D02*
X29985714Y-23591191D01*
X29985714Y-23591191D02*
X29938095Y-23638810D01*
X29938095Y-23638810D02*
X29842857Y-23686429D01*
X29842857Y-23686429D02*
X29461905Y-23686429D01*
X23700000Y-23162620D02*
X23700000Y-23400715D01*
X23461905Y-23305477D02*
X23700000Y-23400715D01*
X23700000Y-23400715D02*
X23938095Y-23305477D01*
X23557143Y-23591191D02*
X23700000Y-23400715D01*
X23700000Y-23400715D02*
X23842857Y-23591191D01*
X12333333Y-1062619D02*
X12000000Y-586428D01*
X11761905Y-1062619D02*
X11761905Y-62619D01*
X11761905Y-62619D02*
X12142857Y-62619D01*
X12142857Y-62619D02*
X12238095Y-110238D01*
X12238095Y-110238D02*
X12285714Y-157857D01*
X12285714Y-157857D02*
X12333333Y-253095D01*
X12333333Y-253095D02*
X12333333Y-395952D01*
X12333333Y-395952D02*
X12285714Y-491190D01*
X12285714Y-491190D02*
X12238095Y-538809D01*
X12238095Y-538809D02*
X12142857Y-586428D01*
X12142857Y-586428D02*
X11761905Y-586428D01*
X13285714Y-1062619D02*
X12714286Y-1062619D01*
X13000000Y-1062619D02*
X13000000Y-62619D01*
X13000000Y-62619D02*
X12904762Y-205476D01*
X12904762Y-205476D02*
X12809524Y-300714D01*
X12809524Y-300714D02*
X12714286Y-348333D01*
X21333333Y-9867380D02*
X21285714Y-9915000D01*
X21285714Y-9915000D02*
X21142857Y-9962619D01*
X21142857Y-9962619D02*
X21047619Y-9962619D01*
X21047619Y-9962619D02*
X20904762Y-9915000D01*
X20904762Y-9915000D02*
X20809524Y-9819761D01*
X20809524Y-9819761D02*
X20761905Y-9724523D01*
X20761905Y-9724523D02*
X20714286Y-9534047D01*
X20714286Y-9534047D02*
X20714286Y-9391190D01*
X20714286Y-9391190D02*
X20761905Y-9200714D01*
X20761905Y-9200714D02*
X20809524Y-9105476D01*
X20809524Y-9105476D02*
X20904762Y-9010238D01*
X20904762Y-9010238D02*
X21047619Y-8962619D01*
X21047619Y-8962619D02*
X21142857Y-8962619D01*
X21142857Y-8962619D02*
X21285714Y-9010238D01*
X21285714Y-9010238D02*
X21333333Y-9057857D01*
X21666667Y-8962619D02*
X22285714Y-8962619D01*
X22285714Y-8962619D02*
X21952381Y-9343571D01*
X21952381Y-9343571D02*
X22095238Y-9343571D01*
X22095238Y-9343571D02*
X22190476Y-9391190D01*
X22190476Y-9391190D02*
X22238095Y-9438809D01*
X22238095Y-9438809D02*
X22285714Y-9534047D01*
X22285714Y-9534047D02*
X22285714Y-9772142D01*
X22285714Y-9772142D02*
X22238095Y-9867380D01*
X22238095Y-9867380D02*
X22190476Y-9915000D01*
X22190476Y-9915000D02*
X22095238Y-9962619D01*
X22095238Y-9962619D02*
X21809524Y-9962619D01*
X21809524Y-9962619D02*
X21714286Y-9915000D01*
X21714286Y-9915000D02*
X21666667Y-9867380D01*
X21583333Y-16117380D02*
X21535714Y-16165000D01*
X21535714Y-16165000D02*
X21392857Y-16212619D01*
X21392857Y-16212619D02*
X21297619Y-16212619D01*
X21297619Y-16212619D02*
X21154762Y-16165000D01*
X21154762Y-16165000D02*
X21059524Y-16069761D01*
X21059524Y-16069761D02*
X21011905Y-15974523D01*
X21011905Y-15974523D02*
X20964286Y-15784047D01*
X20964286Y-15784047D02*
X20964286Y-15641190D01*
X20964286Y-15641190D02*
X21011905Y-15450714D01*
X21011905Y-15450714D02*
X21059524Y-15355476D01*
X21059524Y-15355476D02*
X21154762Y-15260238D01*
X21154762Y-15260238D02*
X21297619Y-15212619D01*
X21297619Y-15212619D02*
X21392857Y-15212619D01*
X21392857Y-15212619D02*
X21535714Y-15260238D01*
X21535714Y-15260238D02*
X21583333Y-15307857D01*
X22535714Y-16212619D02*
X21964286Y-16212619D01*
X22250000Y-16212619D02*
X22250000Y-15212619D01*
X22250000Y-15212619D02*
X22154762Y-15355476D01*
X22154762Y-15355476D02*
X22059524Y-15450714D01*
X22059524Y-15450714D02*
X21964286Y-15498333D01*
X27266666Y-6162619D02*
X27266666Y-6876904D01*
X27266666Y-6876904D02*
X27219047Y-7019761D01*
X27219047Y-7019761D02*
X27123809Y-7115000D01*
X27123809Y-7115000D02*
X26980952Y-7162619D01*
X26980952Y-7162619D02*
X26885714Y-7162619D01*
X27742857Y-7162619D02*
X27742857Y-6162619D01*
X27742857Y-6162619D02*
X28123809Y-6162619D01*
X28123809Y-6162619D02*
X28219047Y-6210238D01*
X28219047Y-6210238D02*
X28266666Y-6257857D01*
X28266666Y-6257857D02*
X28314285Y-6353095D01*
X28314285Y-6353095D02*
X28314285Y-6495952D01*
X28314285Y-6495952D02*
X28266666Y-6591190D01*
X28266666Y-6591190D02*
X28219047Y-6638809D01*
X28219047Y-6638809D02*
X28123809Y-6686428D01*
X28123809Y-6686428D02*
X27742857Y-6686428D01*
X29266666Y-7162619D02*
X28695238Y-7162619D01*
X28980952Y-7162619D02*
X28980952Y-6162619D01*
X28980952Y-6162619D02*
X28885714Y-6305476D01*
X28885714Y-6305476D02*
X28790476Y-6400714D01*
X28790476Y-6400714D02*
X28695238Y-6448333D01*
X27916666Y-13842619D02*
X27916666Y-14556904D01*
X27916666Y-14556904D02*
X27869047Y-14699761D01*
X27869047Y-14699761D02*
X27773809Y-14795000D01*
X27773809Y-14795000D02*
X27630952Y-14842619D01*
X27630952Y-14842619D02*
X27535714Y-14842619D01*
X28345238Y-13937857D02*
X28392857Y-13890238D01*
X28392857Y-13890238D02*
X28488095Y-13842619D01*
X28488095Y-13842619D02*
X28726190Y-13842619D01*
X28726190Y-13842619D02*
X28821428Y-13890238D01*
X28821428Y-13890238D02*
X28869047Y-13937857D01*
X28869047Y-13937857D02*
X28916666Y-14033095D01*
X28916666Y-14033095D02*
X28916666Y-14128333D01*
X28916666Y-14128333D02*
X28869047Y-14271190D01*
X28869047Y-14271190D02*
X28297619Y-14842619D01*
X28297619Y-14842619D02*
X28916666Y-14842619D01*
D11*
X765000Y-32227064D02*
X765000Y-31772936D01*
X2235000Y-32227064D02*
X2235000Y-31772936D01*
X5814564Y-33735000D02*
X5360436Y-33735000D01*
X5814564Y-32265000D02*
X5360436Y-32265000D01*
D12*
X27000000Y-12165000D02*
X27000000Y-11165000D01*
X27000000Y-11165000D02*
X26750000Y-11165000D01*
X27000000Y-13165000D02*
X27000000Y-14165000D01*
X27000000Y-14165000D02*
X26750000Y-14165000D01*
X22750000Y-14165000D02*
X22500000Y-14165000D01*
X22500000Y-14165000D02*
X22500000Y-13165000D01*
X22500000Y-12165000D02*
X22500000Y-11165000D01*
X22500000Y-11165000D02*
X22750000Y-11165000D01*
D13*
X23221000Y-10565000D02*
G75*
G03*
X23221000Y-10565000I-100000J0D01*
G01*
D11*
X19738748Y-1265000D02*
X20261252Y-1265000D01*
X19738748Y-2735000D02*
X20261252Y-2735000D01*
X15488748Y-4265000D02*
X16011252Y-4265000D01*
X15488748Y-5735000D02*
X16011252Y-5735000D01*
X9713748Y-4265000D02*
X10236252Y-4265000D01*
X9713748Y-5735000D02*
X10236252Y-5735000D01*
X20515000Y-30761252D02*
X20515000Y-30238748D01*
X21985000Y-30761252D02*
X21985000Y-30238748D01*
X17290000Y-35640000D02*
X17290000Y-39760000D01*
X17290000Y-39760000D02*
X29910000Y-39760000D01*
X18290000Y-34640000D02*
X17290000Y-35640000D01*
X29910000Y-34640000D02*
X18290000Y-34640000D01*
X29910000Y-39760000D02*
X29910000Y-34640000D01*
X30210000Y-34340000D02*
X27800000Y-34340000D01*
X30210000Y-36750000D02*
X30210000Y-34340000D01*
X90000Y-35640000D02*
X90000Y-39760000D01*
X90000Y-39760000D02*
X12710000Y-39760000D01*
X1090000Y-34640000D02*
X90000Y-35640000D01*
X12710000Y-34640000D02*
X1090000Y-34640000D01*
X12710000Y-39760000D02*
X12710000Y-34640000D01*
X13010000Y-34340000D02*
X10600000Y-34340000D01*
X13010000Y-36750000D02*
X13010000Y-34340000D01*
X28810000Y-30000000D02*
X28810000Y-26550000D01*
X28810000Y-30000000D02*
X28810000Y-31950000D01*
X23690000Y-30000000D02*
X23690000Y-28050000D01*
X23690000Y-30000000D02*
X23690000Y-31950000D01*
X1375000Y-25870000D02*
X1375000Y-24870000D01*
X1995000Y-25870000D02*
X1375000Y-25870000D01*
X20815000Y-25870000D02*
X20395000Y-25870000D01*
X1375000Y-7630000D02*
X1375000Y-8630000D01*
X1995000Y-7630000D02*
X1375000Y-7630000D01*
X20395000Y-7630000D02*
X20395000Y-7250000D01*
X20815000Y-7630000D02*
X20815000Y-25870000D01*
X20815000Y-7630000D02*
X20395000Y-7630000D01*
X23450000Y-22150002D02*
X23950000Y-22150002D01*
X23450000Y-25250000D02*
X23450000Y-22150002D01*
X23450000Y-25250000D02*
X23950000Y-25250000D01*
X23950000Y-25250000D02*
X23950000Y-22150002D01*
X12272936Y-1515000D02*
X12727064Y-1515000D01*
X12272936Y-2985000D02*
X12727064Y-2985000D01*
X23938748Y-8765000D02*
X24461252Y-8765000D01*
X23938748Y-10235000D02*
X24461252Y-10235000D01*
X23988748Y-15015000D02*
X24511252Y-15015000D01*
X23988748Y-16485000D02*
X24511252Y-16485000D01*
X26700000Y-8800000D02*
X26700000Y-8200000D01*
X27400000Y-7500000D02*
X28800000Y-7500000D01*
X28800000Y-9500000D02*
X27400000Y-9500000D01*
X29500000Y-8200000D02*
X29500000Y-8800000D01*
X27400000Y-7500000D02*
G75*
G03*
X26700000Y-8200000I-1J-699999D01*
G01*
X26700000Y-8800000D02*
G75*
G03*
X27400000Y-9500000I699999J-1D01*
G01*
X29500000Y-8200000D02*
G75*
G03*
X28800000Y-7500000I-700000J0D01*
G01*
X28800000Y-9500000D02*
G75*
G03*
X29500000Y-8800000I0J700000D01*
G01*
X26920000Y-15380000D02*
X28250000Y-15380000D01*
X26920000Y-16710000D02*
X26920000Y-15380000D01*
X26920000Y-17980000D02*
X26920000Y-23120000D01*
X26920000Y-17980000D02*
X29580000Y-17980000D01*
X26920000Y-23120000D02*
X29580000Y-23120000D01*
X29580000Y-17980000D02*
X29580000Y-23120000D01*
M02*
