G04 #@! TF.GenerationSoftware,KiCad,Pcbnew,7.0.2-6a45011f42~172~ubuntu22.04.1*
G04 #@! TF.CreationDate,2023-06-14T15:19:40+02:00*
G04 #@! TF.ProjectId,imu_module,696d755f-6d6f-4647-956c-652e6b696361,rev?*
G04 #@! TF.SameCoordinates,Original*
G04 #@! TF.FileFunction,Soldermask,Bot*
G04 #@! TF.FilePolarity,Negative*
%FSLAX46Y46*%
G04 Gerber Fmt 4.6, Leading zero omitted, Abs format (unit mm)*
G04 Created by KiCad (PCBNEW 7.0.2-6a45011f42~172~ubuntu22.04.1) date 2023-06-14 15:19:40*
%MOMM*%
%LPD*%
G01*
G04 APERTURE LIST*
G04 APERTURE END LIST*
G36*
X15073037Y-35153787D02*
G01*
X15144468Y-35153787D01*
X15221486Y-35163516D01*
X15300341Y-35168685D01*
X15366379Y-35181820D01*
X15431115Y-35189999D01*
X15512353Y-35210857D01*
X15595543Y-35227405D01*
X15653728Y-35247156D01*
X15710973Y-35261854D01*
X15794797Y-35295042D01*
X15880555Y-35324153D01*
X15930371Y-35348719D01*
X15979613Y-35368216D01*
X16064184Y-35414709D01*
X16150500Y-35457276D01*
X16191759Y-35484844D01*
X16232802Y-35507408D01*
X16316072Y-35567907D01*
X16400760Y-35624494D01*
X16433619Y-35653310D01*
X16466555Y-35677240D01*
X16546354Y-35752176D01*
X16627053Y-35822947D01*
X16651952Y-35851339D01*
X16677174Y-35875024D01*
X16751251Y-35964569D01*
X16825506Y-36049240D01*
X16843181Y-36075693D01*
X16861348Y-36097653D01*
X16927421Y-36201767D01*
X16992724Y-36299500D01*
X17004155Y-36322680D01*
X17016166Y-36341606D01*
X17071961Y-36460176D01*
X17125847Y-36569445D01*
X17132235Y-36588263D01*
X17139185Y-36603033D01*
X17182472Y-36736260D01*
X17222595Y-36854457D01*
X17225307Y-36868091D01*
X17228470Y-36877826D01*
X17257155Y-37028203D01*
X17281315Y-37149659D01*
X17281833Y-37157570D01*
X17282610Y-37161641D01*
X17294831Y-37355887D01*
X17301000Y-37450000D01*
X17294829Y-37544152D01*
X17282610Y-37738358D01*
X17281833Y-37742427D01*
X17281315Y-37750341D01*
X17257151Y-37871820D01*
X17228470Y-38022173D01*
X17225307Y-38031905D01*
X17222595Y-38045543D01*
X17182465Y-38163761D01*
X17139185Y-38296966D01*
X17132236Y-38311732D01*
X17125847Y-38330555D01*
X17071951Y-38439843D01*
X17016166Y-38558393D01*
X17004157Y-38577315D01*
X16992724Y-38600500D01*
X16927408Y-38698251D01*
X16861348Y-38802346D01*
X16843185Y-38824301D01*
X16825506Y-38850760D01*
X16751237Y-38935447D01*
X16677174Y-39024975D01*
X16651957Y-39048655D01*
X16627053Y-39077053D01*
X16546338Y-39147837D01*
X16466555Y-39222759D01*
X16433625Y-39246683D01*
X16400760Y-39275506D01*
X16316055Y-39332103D01*
X16232802Y-39392591D01*
X16191768Y-39415149D01*
X16150500Y-39442724D01*
X16064166Y-39485299D01*
X15979613Y-39531783D01*
X15930381Y-39551275D01*
X15880555Y-39575847D01*
X15794779Y-39604963D01*
X15710973Y-39638145D01*
X15653740Y-39652839D01*
X15595543Y-39672595D01*
X15512335Y-39689146D01*
X15431115Y-39710000D01*
X15366389Y-39718176D01*
X15300341Y-39731315D01*
X15221481Y-39736483D01*
X15144468Y-39746213D01*
X15073037Y-39746213D01*
X15000000Y-39751000D01*
X14926963Y-39746213D01*
X14855532Y-39746213D01*
X14778517Y-39736483D01*
X14699659Y-39731315D01*
X14633611Y-39718177D01*
X14568884Y-39710000D01*
X14487659Y-39689145D01*
X14404457Y-39672595D01*
X14346262Y-39652840D01*
X14289026Y-39638145D01*
X14205213Y-39604961D01*
X14119445Y-39575847D01*
X14069622Y-39551277D01*
X14020386Y-39531783D01*
X13935823Y-39485294D01*
X13849500Y-39442724D01*
X13808236Y-39415152D01*
X13767197Y-39392591D01*
X13683931Y-39332095D01*
X13599240Y-39275506D01*
X13566378Y-39246687D01*
X13533444Y-39222759D01*
X13453646Y-39147824D01*
X13372947Y-39077053D01*
X13348047Y-39048660D01*
X13322825Y-39024975D01*
X13248744Y-38935427D01*
X13174494Y-38850760D01*
X13156818Y-38824307D01*
X13138651Y-38802346D01*
X13072571Y-38698221D01*
X13007276Y-38600500D01*
X12995845Y-38577322D01*
X12983833Y-38558393D01*
X12928026Y-38439799D01*
X12874153Y-38330555D01*
X12867766Y-38311740D01*
X12860814Y-38296966D01*
X12817511Y-38163692D01*
X12777405Y-38045543D01*
X12774693Y-38031913D01*
X12771529Y-38022173D01*
X12742824Y-37871697D01*
X12718685Y-37750341D01*
X12718166Y-37742435D01*
X12717389Y-37738358D01*
X12705144Y-37543755D01*
X12699000Y-37450000D01*
X12705144Y-37356252D01*
X12717389Y-37161641D01*
X12718166Y-37157562D01*
X12718685Y-37149659D01*
X12742819Y-37028325D01*
X12771529Y-36877826D01*
X12774694Y-36868083D01*
X12777405Y-36854457D01*
X12817503Y-36736329D01*
X12860814Y-36603033D01*
X12867767Y-36588256D01*
X12874153Y-36569445D01*
X12928016Y-36460221D01*
X12983833Y-36341606D01*
X12995848Y-36322673D01*
X13007276Y-36299500D01*
X13072558Y-36201797D01*
X13138651Y-36097653D01*
X13156822Y-36075687D01*
X13174494Y-36049240D01*
X13248730Y-35964589D01*
X13322825Y-35875024D01*
X13348052Y-35851333D01*
X13372947Y-35822947D01*
X13453630Y-35752189D01*
X13533444Y-35677240D01*
X13566385Y-35653306D01*
X13599240Y-35624494D01*
X13683914Y-35567916D01*
X13767197Y-35507408D01*
X13808245Y-35484841D01*
X13849500Y-35457276D01*
X13935805Y-35414714D01*
X14020386Y-35368216D01*
X14069632Y-35348717D01*
X14119445Y-35324153D01*
X14205195Y-35295044D01*
X14289026Y-35261854D01*
X14346274Y-35247155D01*
X14404457Y-35227405D01*
X14487642Y-35210858D01*
X14568884Y-35189999D01*
X14633622Y-35181820D01*
X14699659Y-35168685D01*
X14778513Y-35163516D01*
X14855532Y-35153787D01*
X14926963Y-35153787D01*
X15000000Y-35149000D01*
X15073037Y-35153787D01*
G37*
G36*
X10818914Y-35581995D02*
G01*
X10834726Y-35588976D01*
X10842531Y-35590213D01*
X10875039Y-35606776D01*
X10920106Y-35626676D01*
X10998324Y-35704894D01*
X11018226Y-35749967D01*
X11034786Y-35782468D01*
X11036021Y-35790270D01*
X11043005Y-35806086D01*
X11051000Y-35875000D01*
X11051000Y-37225000D01*
X11043005Y-37293914D01*
X11036021Y-37309729D01*
X11034786Y-37317531D01*
X11018229Y-37350024D01*
X10998324Y-37395106D01*
X10920106Y-37473324D01*
X10875024Y-37493229D01*
X10842531Y-37509786D01*
X10834729Y-37511021D01*
X10818914Y-37518005D01*
X10750000Y-37526000D01*
X9550000Y-37526000D01*
X9481086Y-37518005D01*
X9465270Y-37511021D01*
X9457468Y-37509786D01*
X9424967Y-37493226D01*
X9379894Y-37473324D01*
X9301676Y-37395106D01*
X9281776Y-37350039D01*
X9265213Y-37317531D01*
X9263976Y-37309726D01*
X9256995Y-37293914D01*
X9249000Y-37225000D01*
X9249000Y-35875000D01*
X9256995Y-35806086D01*
X9263976Y-35790274D01*
X9265213Y-35782468D01*
X9281780Y-35749953D01*
X9301676Y-35704894D01*
X9379894Y-35626676D01*
X9424953Y-35606780D01*
X9457468Y-35590213D01*
X9465274Y-35588976D01*
X9481086Y-35581995D01*
X9550000Y-35574000D01*
X10750000Y-35574000D01*
X10818914Y-35581995D01*
G37*
G36*
X28018914Y-35581995D02*
G01*
X28034726Y-35588976D01*
X28042531Y-35590213D01*
X28075039Y-35606776D01*
X28120106Y-35626676D01*
X28198324Y-35704894D01*
X28218226Y-35749967D01*
X28234786Y-35782468D01*
X28236021Y-35790270D01*
X28243005Y-35806086D01*
X28251000Y-35875000D01*
X28251000Y-37225000D01*
X28243005Y-37293914D01*
X28236021Y-37309729D01*
X28234786Y-37317531D01*
X28218229Y-37350024D01*
X28198324Y-37395106D01*
X28120106Y-37473324D01*
X28075024Y-37493229D01*
X28042531Y-37509786D01*
X28034729Y-37511021D01*
X28018914Y-37518005D01*
X27950000Y-37526000D01*
X26750000Y-37526000D01*
X26681086Y-37518005D01*
X26665270Y-37511021D01*
X26657468Y-37509786D01*
X26624967Y-37493226D01*
X26579894Y-37473324D01*
X26501676Y-37395106D01*
X26481776Y-37350039D01*
X26465213Y-37317531D01*
X26463976Y-37309726D01*
X26456995Y-37293914D01*
X26449000Y-37225000D01*
X26449000Y-35875000D01*
X26456995Y-35806086D01*
X26463976Y-35790274D01*
X26465213Y-35782468D01*
X26481780Y-35749953D01*
X26501676Y-35704894D01*
X26579894Y-35626676D01*
X26624953Y-35606780D01*
X26657468Y-35590213D01*
X26665274Y-35588976D01*
X26681086Y-35581995D01*
X26750000Y-35574000D01*
X27950000Y-35574000D01*
X28018914Y-35581995D01*
G37*
G36*
X2693983Y-35578936D02*
G01*
X2744180Y-35578936D01*
X2787524Y-35588149D01*
X2825659Y-35591905D01*
X2873566Y-35606437D01*
X2928424Y-35618098D01*
X2963530Y-35633728D01*
X2994566Y-35643143D01*
X3043884Y-35669504D01*
X3100500Y-35694711D01*
X3126822Y-35713835D01*
X3150232Y-35726348D01*
X3197988Y-35765540D01*
X3252887Y-35805427D01*
X3270711Y-35825223D01*
X3286675Y-35838324D01*
X3329572Y-35890594D01*
X3378924Y-35945405D01*
X3389292Y-35963363D01*
X3398651Y-35974767D01*
X3433273Y-36039542D01*
X3473104Y-36108530D01*
X3477685Y-36122630D01*
X3481856Y-36130433D01*
X3504852Y-36206242D01*
X3531311Y-36287672D01*
X3532242Y-36296532D01*
X3533094Y-36299340D01*
X3541387Y-36383539D01*
X3551000Y-36475000D01*
X3551000Y-36625000D01*
X3541385Y-36716475D01*
X3533094Y-36800659D01*
X3532242Y-36803466D01*
X3531311Y-36812328D01*
X3504848Y-36893771D01*
X3481856Y-36969566D01*
X3477686Y-36977366D01*
X3473104Y-36991470D01*
X3433266Y-37060470D01*
X3398651Y-37125232D01*
X3389294Y-37136633D01*
X3378924Y-37154595D01*
X3329563Y-37209415D01*
X3286675Y-37261675D01*
X3270714Y-37274773D01*
X3252887Y-37294573D01*
X3197977Y-37334467D01*
X3150232Y-37373651D01*
X3126827Y-37386161D01*
X3100500Y-37405289D01*
X3043873Y-37430500D01*
X2994566Y-37456856D01*
X2963537Y-37466268D01*
X2928424Y-37481902D01*
X2873555Y-37493564D01*
X2825659Y-37508094D01*
X2787532Y-37511849D01*
X2744180Y-37521064D01*
X2693973Y-37521064D01*
X2650000Y-37525395D01*
X2606027Y-37521064D01*
X2555820Y-37521064D01*
X2512467Y-37511849D01*
X2474340Y-37508094D01*
X2426441Y-37493563D01*
X2371576Y-37481902D01*
X2336464Y-37466269D01*
X2305433Y-37456856D01*
X2256120Y-37430498D01*
X2199500Y-37405289D01*
X2173175Y-37386163D01*
X2149767Y-37373651D01*
X2102013Y-37334460D01*
X2047113Y-37294573D01*
X2029287Y-37274776D01*
X2013324Y-37261675D01*
X1970425Y-37209402D01*
X1921076Y-37154595D01*
X1910708Y-37136637D01*
X1901348Y-37125232D01*
X1866719Y-37060447D01*
X1826896Y-36991470D01*
X1822315Y-36977371D01*
X1818143Y-36969566D01*
X1795136Y-36893725D01*
X1768689Y-36812328D01*
X1767758Y-36803471D01*
X1766905Y-36800659D01*
X1758605Y-36716394D01*
X1749000Y-36625000D01*
X1749000Y-36475000D01*
X1758604Y-36383620D01*
X1766905Y-36299340D01*
X1767758Y-36296527D01*
X1768689Y-36287672D01*
X1795132Y-36206288D01*
X1818143Y-36130433D01*
X1822315Y-36122626D01*
X1826896Y-36108530D01*
X1866712Y-36039565D01*
X1901348Y-35974767D01*
X1910710Y-35963359D01*
X1921076Y-35945405D01*
X1970416Y-35890607D01*
X2013324Y-35838324D01*
X2029291Y-35825219D01*
X2047113Y-35805427D01*
X2102002Y-35765546D01*
X2149767Y-35726348D01*
X2173180Y-35713833D01*
X2199500Y-35694711D01*
X2256109Y-35669506D01*
X2305433Y-35643143D01*
X2336471Y-35633727D01*
X2371576Y-35618098D01*
X2426430Y-35606438D01*
X2474340Y-35591905D01*
X2512476Y-35588148D01*
X2555820Y-35578936D01*
X2606016Y-35578936D01*
X2649999Y-35574604D01*
X2693983Y-35578936D01*
G37*
G36*
X5193983Y-35578936D02*
G01*
X5244180Y-35578936D01*
X5287524Y-35588149D01*
X5325659Y-35591905D01*
X5373566Y-35606437D01*
X5428424Y-35618098D01*
X5463530Y-35633728D01*
X5494566Y-35643143D01*
X5543884Y-35669504D01*
X5600500Y-35694711D01*
X5626822Y-35713835D01*
X5650232Y-35726348D01*
X5697988Y-35765540D01*
X5752887Y-35805427D01*
X5770711Y-35825223D01*
X5786675Y-35838324D01*
X5829572Y-35890594D01*
X5878924Y-35945405D01*
X5889292Y-35963363D01*
X5898651Y-35974767D01*
X5933273Y-36039542D01*
X5973104Y-36108530D01*
X5977685Y-36122630D01*
X5981856Y-36130433D01*
X6004852Y-36206242D01*
X6031311Y-36287672D01*
X6032242Y-36296532D01*
X6033094Y-36299340D01*
X6041387Y-36383539D01*
X6051000Y-36475000D01*
X6051000Y-36625000D01*
X6041385Y-36716475D01*
X6033094Y-36800659D01*
X6032242Y-36803466D01*
X6031311Y-36812328D01*
X6004848Y-36893771D01*
X5981856Y-36969566D01*
X5977686Y-36977366D01*
X5973104Y-36991470D01*
X5933266Y-37060470D01*
X5898651Y-37125232D01*
X5889294Y-37136633D01*
X5878924Y-37154595D01*
X5829563Y-37209415D01*
X5786675Y-37261675D01*
X5770714Y-37274773D01*
X5752887Y-37294573D01*
X5697977Y-37334467D01*
X5650232Y-37373651D01*
X5626827Y-37386161D01*
X5600500Y-37405289D01*
X5543873Y-37430500D01*
X5494566Y-37456856D01*
X5463537Y-37466268D01*
X5428424Y-37481902D01*
X5373555Y-37493564D01*
X5325659Y-37508094D01*
X5287533Y-37511849D01*
X5244180Y-37521064D01*
X5193972Y-37521064D01*
X5149999Y-37525395D01*
X5106026Y-37521064D01*
X5055820Y-37521064D01*
X5012467Y-37511849D01*
X4974340Y-37508094D01*
X4926441Y-37493563D01*
X4871576Y-37481902D01*
X4836464Y-37466269D01*
X4805433Y-37456856D01*
X4756120Y-37430498D01*
X4699500Y-37405289D01*
X4673175Y-37386163D01*
X4649767Y-37373651D01*
X4602013Y-37334460D01*
X4547113Y-37294573D01*
X4529287Y-37274776D01*
X4513324Y-37261675D01*
X4470425Y-37209402D01*
X4421076Y-37154595D01*
X4410708Y-37136637D01*
X4401348Y-37125232D01*
X4366719Y-37060447D01*
X4326896Y-36991470D01*
X4322315Y-36977371D01*
X4318143Y-36969566D01*
X4295136Y-36893725D01*
X4268689Y-36812328D01*
X4267758Y-36803471D01*
X4266905Y-36800659D01*
X4258605Y-36716394D01*
X4249000Y-36625000D01*
X4249000Y-36475000D01*
X4258604Y-36383620D01*
X4266905Y-36299340D01*
X4267758Y-36296527D01*
X4268689Y-36287672D01*
X4295132Y-36206288D01*
X4318143Y-36130433D01*
X4322315Y-36122626D01*
X4326896Y-36108530D01*
X4366712Y-36039565D01*
X4401348Y-35974767D01*
X4410710Y-35963359D01*
X4421076Y-35945405D01*
X4470416Y-35890607D01*
X4513324Y-35838324D01*
X4529291Y-35825219D01*
X4547113Y-35805427D01*
X4602002Y-35765546D01*
X4649767Y-35726348D01*
X4673180Y-35713833D01*
X4699500Y-35694711D01*
X4756109Y-35669506D01*
X4805433Y-35643143D01*
X4836471Y-35633727D01*
X4871576Y-35618098D01*
X4926430Y-35606438D01*
X4974340Y-35591905D01*
X5012476Y-35588148D01*
X5055820Y-35578936D01*
X5106016Y-35578936D01*
X5150000Y-35574604D01*
X5193983Y-35578936D01*
G37*
G36*
X7693983Y-35578936D02*
G01*
X7744180Y-35578936D01*
X7787524Y-35588149D01*
X7825659Y-35591905D01*
X7873566Y-35606437D01*
X7928424Y-35618098D01*
X7963530Y-35633728D01*
X7994566Y-35643143D01*
X8043884Y-35669504D01*
X8100500Y-35694711D01*
X8126822Y-35713835D01*
X8150232Y-35726348D01*
X8197988Y-35765540D01*
X8252887Y-35805427D01*
X8270711Y-35825223D01*
X8286675Y-35838324D01*
X8329572Y-35890594D01*
X8378924Y-35945405D01*
X8389292Y-35963363D01*
X8398651Y-35974767D01*
X8433273Y-36039542D01*
X8473104Y-36108530D01*
X8477685Y-36122630D01*
X8481856Y-36130433D01*
X8504852Y-36206242D01*
X8531311Y-36287672D01*
X8532242Y-36296532D01*
X8533094Y-36299340D01*
X8541387Y-36383539D01*
X8551000Y-36475000D01*
X8551000Y-36625000D01*
X8541385Y-36716475D01*
X8533094Y-36800659D01*
X8532242Y-36803466D01*
X8531311Y-36812328D01*
X8504848Y-36893771D01*
X8481856Y-36969566D01*
X8477686Y-36977366D01*
X8473104Y-36991470D01*
X8433266Y-37060470D01*
X8398651Y-37125232D01*
X8389294Y-37136633D01*
X8378924Y-37154595D01*
X8329563Y-37209415D01*
X8286675Y-37261675D01*
X8270714Y-37274773D01*
X8252887Y-37294573D01*
X8197977Y-37334467D01*
X8150232Y-37373651D01*
X8126827Y-37386161D01*
X8100500Y-37405289D01*
X8043873Y-37430500D01*
X7994566Y-37456856D01*
X7963537Y-37466268D01*
X7928424Y-37481902D01*
X7873555Y-37493564D01*
X7825659Y-37508094D01*
X7787532Y-37511849D01*
X7744180Y-37521064D01*
X7693973Y-37521064D01*
X7650000Y-37525395D01*
X7606027Y-37521064D01*
X7555820Y-37521064D01*
X7512467Y-37511849D01*
X7474340Y-37508094D01*
X7426441Y-37493563D01*
X7371576Y-37481902D01*
X7336464Y-37466269D01*
X7305433Y-37456856D01*
X7256120Y-37430498D01*
X7199500Y-37405289D01*
X7173175Y-37386163D01*
X7149767Y-37373651D01*
X7102013Y-37334460D01*
X7047113Y-37294573D01*
X7029287Y-37274776D01*
X7013324Y-37261675D01*
X6970425Y-37209402D01*
X6921076Y-37154595D01*
X6910708Y-37136637D01*
X6901348Y-37125232D01*
X6866719Y-37060447D01*
X6826896Y-36991470D01*
X6822315Y-36977371D01*
X6818143Y-36969566D01*
X6795136Y-36893725D01*
X6768689Y-36812328D01*
X6767758Y-36803471D01*
X6766905Y-36800659D01*
X6758605Y-36716394D01*
X6749000Y-36625000D01*
X6749000Y-36475000D01*
X6758604Y-36383620D01*
X6766905Y-36299340D01*
X6767758Y-36296527D01*
X6768689Y-36287672D01*
X6795132Y-36206288D01*
X6818143Y-36130433D01*
X6822315Y-36122626D01*
X6826896Y-36108530D01*
X6866712Y-36039565D01*
X6901348Y-35974767D01*
X6910710Y-35963359D01*
X6921076Y-35945405D01*
X6970416Y-35890607D01*
X7013324Y-35838324D01*
X7029291Y-35825219D01*
X7047113Y-35805427D01*
X7102002Y-35765546D01*
X7149767Y-35726348D01*
X7173180Y-35713833D01*
X7199500Y-35694711D01*
X7256109Y-35669506D01*
X7305433Y-35643143D01*
X7336471Y-35633727D01*
X7371576Y-35618098D01*
X7426430Y-35606438D01*
X7474340Y-35591905D01*
X7512476Y-35588148D01*
X7555820Y-35578936D01*
X7606016Y-35578936D01*
X7649999Y-35574604D01*
X7693983Y-35578936D01*
G37*
G36*
X19893983Y-35578936D02*
G01*
X19944180Y-35578936D01*
X19987524Y-35588149D01*
X20025659Y-35591905D01*
X20073566Y-35606437D01*
X20128424Y-35618098D01*
X20163530Y-35633728D01*
X20194566Y-35643143D01*
X20243884Y-35669504D01*
X20300500Y-35694711D01*
X20326822Y-35713835D01*
X20350232Y-35726348D01*
X20397988Y-35765540D01*
X20452887Y-35805427D01*
X20470711Y-35825223D01*
X20486675Y-35838324D01*
X20529572Y-35890594D01*
X20578924Y-35945405D01*
X20589292Y-35963363D01*
X20598651Y-35974767D01*
X20633273Y-36039542D01*
X20673104Y-36108530D01*
X20677685Y-36122630D01*
X20681856Y-36130433D01*
X20704852Y-36206242D01*
X20731311Y-36287672D01*
X20732242Y-36296532D01*
X20733094Y-36299340D01*
X20741387Y-36383539D01*
X20751000Y-36475000D01*
X20751000Y-36625000D01*
X20741385Y-36716475D01*
X20733094Y-36800659D01*
X20732242Y-36803466D01*
X20731311Y-36812328D01*
X20704848Y-36893771D01*
X20681856Y-36969566D01*
X20677686Y-36977366D01*
X20673104Y-36991470D01*
X20633266Y-37060470D01*
X20598651Y-37125232D01*
X20589294Y-37136633D01*
X20578924Y-37154595D01*
X20529563Y-37209415D01*
X20486675Y-37261675D01*
X20470714Y-37274773D01*
X20452887Y-37294573D01*
X20397977Y-37334467D01*
X20350232Y-37373651D01*
X20326827Y-37386161D01*
X20300500Y-37405289D01*
X20243873Y-37430500D01*
X20194566Y-37456856D01*
X20163537Y-37466268D01*
X20128424Y-37481902D01*
X20073555Y-37493564D01*
X20025659Y-37508094D01*
X19987532Y-37511849D01*
X19944180Y-37521064D01*
X19893973Y-37521064D01*
X19850000Y-37525395D01*
X19806027Y-37521064D01*
X19755820Y-37521064D01*
X19712467Y-37511849D01*
X19674340Y-37508094D01*
X19626441Y-37493563D01*
X19571576Y-37481902D01*
X19536464Y-37466269D01*
X19505433Y-37456856D01*
X19456120Y-37430498D01*
X19399500Y-37405289D01*
X19373175Y-37386163D01*
X19349767Y-37373651D01*
X19302013Y-37334460D01*
X19247113Y-37294573D01*
X19229287Y-37274776D01*
X19213324Y-37261675D01*
X19170425Y-37209402D01*
X19121076Y-37154595D01*
X19110708Y-37136637D01*
X19101348Y-37125232D01*
X19066719Y-37060447D01*
X19026896Y-36991470D01*
X19022315Y-36977371D01*
X19018143Y-36969566D01*
X18995136Y-36893725D01*
X18968689Y-36812328D01*
X18967758Y-36803471D01*
X18966905Y-36800659D01*
X18958605Y-36716394D01*
X18949000Y-36625000D01*
X18949000Y-36475000D01*
X18958604Y-36383620D01*
X18966905Y-36299340D01*
X18967758Y-36296527D01*
X18968689Y-36287672D01*
X18995132Y-36206288D01*
X19018143Y-36130433D01*
X19022315Y-36122626D01*
X19026896Y-36108530D01*
X19066712Y-36039565D01*
X19101348Y-35974767D01*
X19110710Y-35963359D01*
X19121076Y-35945405D01*
X19170416Y-35890607D01*
X19213324Y-35838324D01*
X19229291Y-35825219D01*
X19247113Y-35805427D01*
X19302002Y-35765546D01*
X19349767Y-35726348D01*
X19373180Y-35713833D01*
X19399500Y-35694711D01*
X19456109Y-35669506D01*
X19505433Y-35643143D01*
X19536471Y-35633727D01*
X19571576Y-35618098D01*
X19626430Y-35606438D01*
X19674340Y-35591905D01*
X19712476Y-35588148D01*
X19755820Y-35578936D01*
X19806016Y-35578936D01*
X19849999Y-35574604D01*
X19893983Y-35578936D01*
G37*
G36*
X22393983Y-35578936D02*
G01*
X22444180Y-35578936D01*
X22487524Y-35588149D01*
X22525659Y-35591905D01*
X22573566Y-35606437D01*
X22628424Y-35618098D01*
X22663530Y-35633728D01*
X22694566Y-35643143D01*
X22743884Y-35669504D01*
X22800500Y-35694711D01*
X22826822Y-35713835D01*
X22850232Y-35726348D01*
X22897988Y-35765540D01*
X22952887Y-35805427D01*
X22970711Y-35825223D01*
X22986675Y-35838324D01*
X23029572Y-35890594D01*
X23078924Y-35945405D01*
X23089292Y-35963363D01*
X23098651Y-35974767D01*
X23133273Y-36039542D01*
X23173104Y-36108530D01*
X23177685Y-36122630D01*
X23181856Y-36130433D01*
X23204852Y-36206242D01*
X23231311Y-36287672D01*
X23232242Y-36296532D01*
X23233094Y-36299340D01*
X23241387Y-36383539D01*
X23251000Y-36475000D01*
X23251000Y-36625000D01*
X23241385Y-36716475D01*
X23233094Y-36800659D01*
X23232242Y-36803466D01*
X23231311Y-36812328D01*
X23204848Y-36893771D01*
X23181856Y-36969566D01*
X23177686Y-36977366D01*
X23173104Y-36991470D01*
X23133266Y-37060470D01*
X23098651Y-37125232D01*
X23089294Y-37136633D01*
X23078924Y-37154595D01*
X23029563Y-37209415D01*
X22986675Y-37261675D01*
X22970714Y-37274773D01*
X22952887Y-37294573D01*
X22897977Y-37334467D01*
X22850232Y-37373651D01*
X22826827Y-37386161D01*
X22800500Y-37405289D01*
X22743873Y-37430500D01*
X22694566Y-37456856D01*
X22663537Y-37466268D01*
X22628424Y-37481902D01*
X22573555Y-37493564D01*
X22525659Y-37508094D01*
X22487533Y-37511849D01*
X22444180Y-37521064D01*
X22393972Y-37521064D01*
X22349999Y-37525395D01*
X22306026Y-37521064D01*
X22255820Y-37521064D01*
X22212467Y-37511849D01*
X22174340Y-37508094D01*
X22126441Y-37493563D01*
X22071576Y-37481902D01*
X22036464Y-37466269D01*
X22005433Y-37456856D01*
X21956120Y-37430498D01*
X21899500Y-37405289D01*
X21873175Y-37386163D01*
X21849767Y-37373651D01*
X21802013Y-37334460D01*
X21747113Y-37294573D01*
X21729287Y-37274776D01*
X21713324Y-37261675D01*
X21670425Y-37209402D01*
X21621076Y-37154595D01*
X21610708Y-37136637D01*
X21601348Y-37125232D01*
X21566719Y-37060447D01*
X21526896Y-36991470D01*
X21522315Y-36977371D01*
X21518143Y-36969566D01*
X21495136Y-36893725D01*
X21468689Y-36812328D01*
X21467758Y-36803471D01*
X21466905Y-36800659D01*
X21458605Y-36716394D01*
X21449000Y-36625000D01*
X21449000Y-36475000D01*
X21458604Y-36383620D01*
X21466905Y-36299340D01*
X21467758Y-36296527D01*
X21468689Y-36287672D01*
X21495132Y-36206288D01*
X21518143Y-36130433D01*
X21522315Y-36122626D01*
X21526896Y-36108530D01*
X21566712Y-36039565D01*
X21601348Y-35974767D01*
X21610710Y-35963359D01*
X21621076Y-35945405D01*
X21670416Y-35890607D01*
X21713324Y-35838324D01*
X21729291Y-35825219D01*
X21747113Y-35805427D01*
X21802002Y-35765546D01*
X21849767Y-35726348D01*
X21873180Y-35713833D01*
X21899500Y-35694711D01*
X21956109Y-35669506D01*
X22005433Y-35643143D01*
X22036471Y-35633727D01*
X22071576Y-35618098D01*
X22126430Y-35606438D01*
X22174340Y-35591905D01*
X22212476Y-35588148D01*
X22255820Y-35578936D01*
X22306016Y-35578936D01*
X22350000Y-35574604D01*
X22393983Y-35578936D01*
G37*
G36*
X24893983Y-35578936D02*
G01*
X24944180Y-35578936D01*
X24987524Y-35588149D01*
X25025659Y-35591905D01*
X25073566Y-35606437D01*
X25128424Y-35618098D01*
X25163530Y-35633728D01*
X25194566Y-35643143D01*
X25243884Y-35669504D01*
X25300500Y-35694711D01*
X25326822Y-35713835D01*
X25350232Y-35726348D01*
X25397988Y-35765540D01*
X25452887Y-35805427D01*
X25470711Y-35825223D01*
X25486675Y-35838324D01*
X25529572Y-35890594D01*
X25578924Y-35945405D01*
X25589292Y-35963363D01*
X25598651Y-35974767D01*
X25633273Y-36039542D01*
X25673104Y-36108530D01*
X25677685Y-36122630D01*
X25681856Y-36130433D01*
X25704852Y-36206242D01*
X25731311Y-36287672D01*
X25732242Y-36296532D01*
X25733094Y-36299340D01*
X25741387Y-36383539D01*
X25751000Y-36475000D01*
X25751000Y-36625000D01*
X25741385Y-36716475D01*
X25733094Y-36800659D01*
X25732242Y-36803466D01*
X25731311Y-36812328D01*
X25704848Y-36893771D01*
X25681856Y-36969566D01*
X25677686Y-36977366D01*
X25673104Y-36991470D01*
X25633266Y-37060470D01*
X25598651Y-37125232D01*
X25589294Y-37136633D01*
X25578924Y-37154595D01*
X25529563Y-37209415D01*
X25486675Y-37261675D01*
X25470714Y-37274773D01*
X25452887Y-37294573D01*
X25397977Y-37334467D01*
X25350232Y-37373651D01*
X25326827Y-37386161D01*
X25300500Y-37405289D01*
X25243873Y-37430500D01*
X25194566Y-37456856D01*
X25163537Y-37466268D01*
X25128424Y-37481902D01*
X25073555Y-37493564D01*
X25025659Y-37508094D01*
X24987532Y-37511849D01*
X24944180Y-37521064D01*
X24893973Y-37521064D01*
X24850000Y-37525395D01*
X24806027Y-37521064D01*
X24755820Y-37521064D01*
X24712467Y-37511849D01*
X24674340Y-37508094D01*
X24626441Y-37493563D01*
X24571576Y-37481902D01*
X24536464Y-37466269D01*
X24505433Y-37456856D01*
X24456120Y-37430498D01*
X24399500Y-37405289D01*
X24373175Y-37386163D01*
X24349767Y-37373651D01*
X24302013Y-37334460D01*
X24247113Y-37294573D01*
X24229287Y-37274776D01*
X24213324Y-37261675D01*
X24170425Y-37209402D01*
X24121076Y-37154595D01*
X24110708Y-37136637D01*
X24101348Y-37125232D01*
X24066719Y-37060447D01*
X24026896Y-36991470D01*
X24022315Y-36977371D01*
X24018143Y-36969566D01*
X23995136Y-36893725D01*
X23968689Y-36812328D01*
X23967758Y-36803471D01*
X23966905Y-36800659D01*
X23958605Y-36716394D01*
X23949000Y-36625000D01*
X23949000Y-36475000D01*
X23958604Y-36383620D01*
X23966905Y-36299340D01*
X23967758Y-36296527D01*
X23968689Y-36287672D01*
X23995132Y-36206288D01*
X24018143Y-36130433D01*
X24022315Y-36122626D01*
X24026896Y-36108530D01*
X24066712Y-36039565D01*
X24101348Y-35974767D01*
X24110710Y-35963359D01*
X24121076Y-35945405D01*
X24170416Y-35890607D01*
X24213324Y-35838324D01*
X24229291Y-35825219D01*
X24247113Y-35805427D01*
X24302002Y-35765546D01*
X24349767Y-35726348D01*
X24373180Y-35713833D01*
X24399500Y-35694711D01*
X24456109Y-35669506D01*
X24505433Y-35643143D01*
X24536471Y-35633727D01*
X24571576Y-35618098D01*
X24626430Y-35606438D01*
X24674340Y-35591905D01*
X24712476Y-35588148D01*
X24755820Y-35578936D01*
X24806016Y-35578936D01*
X24849999Y-35574604D01*
X24893983Y-35578936D01*
G37*
G36*
X5069899Y-29801959D02*
G01*
X5086769Y-29813231D01*
X5098041Y-29830101D01*
X5100999Y-29844978D01*
X5101000Y-30855023D01*
X5098041Y-30869899D01*
X5086769Y-30886769D01*
X5069899Y-30898041D01*
X5055022Y-30900999D01*
X3544977Y-30901000D01*
X3530101Y-30898041D01*
X3513231Y-30886769D01*
X3501959Y-30869899D01*
X3499001Y-30855023D01*
X3499000Y-30855020D01*
X3499000Y-29844977D01*
X3501959Y-29830100D01*
X3513231Y-29813231D01*
X3530098Y-29801960D01*
X3530100Y-29801959D01*
X3530101Y-29801959D01*
X3535082Y-29800968D01*
X3544979Y-29799000D01*
X5055022Y-29799000D01*
X5055023Y-29799000D01*
X5069899Y-29801959D01*
G37*
G36*
X9969899Y-29801959D02*
G01*
X9986769Y-29813231D01*
X9998041Y-29830101D01*
X10000999Y-29844978D01*
X10001000Y-30855023D01*
X9998041Y-30869899D01*
X9986769Y-30886769D01*
X9969899Y-30898041D01*
X9955022Y-30900999D01*
X8444977Y-30901000D01*
X8430101Y-30898041D01*
X8413231Y-30886769D01*
X8401959Y-30869899D01*
X8399001Y-30855023D01*
X8399000Y-30855020D01*
X8399000Y-29844977D01*
X8401959Y-29830100D01*
X8413231Y-29813231D01*
X8430098Y-29801960D01*
X8430100Y-29801959D01*
X8430101Y-29801959D01*
X8435082Y-29800968D01*
X8444979Y-29799000D01*
X9955022Y-29799000D01*
X9955023Y-29799000D01*
X9969899Y-29801959D01*
G37*
G36*
X13319899Y-29801959D02*
G01*
X13336769Y-29813231D01*
X13348041Y-29830101D01*
X13350999Y-29844978D01*
X13351000Y-30855023D01*
X13348041Y-30869899D01*
X13336769Y-30886769D01*
X13319899Y-30898041D01*
X13305022Y-30900999D01*
X11794977Y-30901000D01*
X11780101Y-30898041D01*
X11763231Y-30886769D01*
X11751959Y-30869899D01*
X11749001Y-30855023D01*
X11749000Y-30855020D01*
X11749000Y-29844977D01*
X11751959Y-29830100D01*
X11763231Y-29813231D01*
X11780098Y-29801960D01*
X11780100Y-29801959D01*
X11780101Y-29801959D01*
X11785082Y-29800968D01*
X11794979Y-29799000D01*
X13305022Y-29799000D01*
X13305023Y-29799000D01*
X13319899Y-29801959D01*
G37*
G36*
X18219899Y-29801959D02*
G01*
X18236769Y-29813231D01*
X18248041Y-29830101D01*
X18250999Y-29844978D01*
X18251000Y-30855023D01*
X18248041Y-30869899D01*
X18236769Y-30886769D01*
X18219899Y-30898041D01*
X18205022Y-30900999D01*
X16694977Y-30901000D01*
X16680101Y-30898041D01*
X16663231Y-30886769D01*
X16651959Y-30869899D01*
X16649001Y-30855023D01*
X16649000Y-30855020D01*
X16649000Y-29844977D01*
X16651959Y-29830100D01*
X16663231Y-29813231D01*
X16680098Y-29801960D01*
X16680100Y-29801959D01*
X16680101Y-29801959D01*
X16685082Y-29800968D01*
X16694979Y-29799000D01*
X18205022Y-29799000D01*
X18205023Y-29799000D01*
X18219899Y-29801959D01*
G37*
G36*
X21819899Y-29801959D02*
G01*
X21836769Y-29813231D01*
X21848041Y-29830101D01*
X21850999Y-29844978D01*
X21851000Y-30855023D01*
X21848041Y-30869899D01*
X21836769Y-30886769D01*
X21819899Y-30898041D01*
X21805022Y-30900999D01*
X20294977Y-30901000D01*
X20280101Y-30898041D01*
X20263231Y-30886769D01*
X20251959Y-30869899D01*
X20249001Y-30855023D01*
X20249000Y-30855020D01*
X20249000Y-29844977D01*
X20251959Y-29830100D01*
X20263231Y-29813231D01*
X20280098Y-29801960D01*
X20280100Y-29801959D01*
X20280101Y-29801959D01*
X20285082Y-29800968D01*
X20294979Y-29799000D01*
X21805022Y-29799000D01*
X21805023Y-29799000D01*
X21819899Y-29801959D01*
G37*
G36*
X26719899Y-29801959D02*
G01*
X26736769Y-29813231D01*
X26748041Y-29830101D01*
X26750999Y-29844978D01*
X26751000Y-30855023D01*
X26748041Y-30869899D01*
X26736769Y-30886769D01*
X26719899Y-30898041D01*
X26705022Y-30900999D01*
X25194977Y-30901000D01*
X25180101Y-30898041D01*
X25163231Y-30886769D01*
X25151959Y-30869899D01*
X25149001Y-30855023D01*
X25149000Y-30855020D01*
X25149000Y-29844977D01*
X25151959Y-29830100D01*
X25163231Y-29813231D01*
X25180098Y-29801960D01*
X25180100Y-29801959D01*
X25180101Y-29801959D01*
X25185082Y-29800968D01*
X25194979Y-29799000D01*
X26705022Y-29799000D01*
X26705023Y-29799000D01*
X26719899Y-29801959D01*
G37*
G36*
X5069899Y-26601959D02*
G01*
X5086769Y-26613231D01*
X5098041Y-26630101D01*
X5100999Y-26644978D01*
X5101000Y-27655023D01*
X5098041Y-27669899D01*
X5086769Y-27686769D01*
X5069899Y-27698041D01*
X5055022Y-27700999D01*
X3544977Y-27701000D01*
X3530101Y-27698041D01*
X3513231Y-27686769D01*
X3501959Y-27669899D01*
X3499001Y-27655023D01*
X3499000Y-27655020D01*
X3499000Y-26644977D01*
X3501959Y-26630100D01*
X3513231Y-26613231D01*
X3530098Y-26601960D01*
X3530100Y-26601959D01*
X3530101Y-26601959D01*
X3535082Y-26600968D01*
X3544979Y-26599000D01*
X5055022Y-26599000D01*
X5055023Y-26599000D01*
X5069899Y-26601959D01*
G37*
G36*
X9969899Y-26601959D02*
G01*
X9986769Y-26613231D01*
X9998041Y-26630101D01*
X10000999Y-26644978D01*
X10001000Y-27655023D01*
X9998041Y-27669899D01*
X9986769Y-27686769D01*
X9969899Y-27698041D01*
X9955022Y-27700999D01*
X8444977Y-27701000D01*
X8430101Y-27698041D01*
X8413231Y-27686769D01*
X8401959Y-27669899D01*
X8399001Y-27655023D01*
X8399000Y-27655020D01*
X8399000Y-26644977D01*
X8401959Y-26630100D01*
X8413231Y-26613231D01*
X8430098Y-26601960D01*
X8430100Y-26601959D01*
X8430101Y-26601959D01*
X8435082Y-26600968D01*
X8444979Y-26599000D01*
X9955022Y-26599000D01*
X9955023Y-26599000D01*
X9969899Y-26601959D01*
G37*
G36*
X13319899Y-26601959D02*
G01*
X13336769Y-26613231D01*
X13348041Y-26630101D01*
X13350999Y-26644978D01*
X13351000Y-27655023D01*
X13348041Y-27669899D01*
X13336769Y-27686769D01*
X13319899Y-27698041D01*
X13305022Y-27700999D01*
X11794977Y-27701000D01*
X11780101Y-27698041D01*
X11763231Y-27686769D01*
X11751959Y-27669899D01*
X11749001Y-27655023D01*
X11749000Y-27655020D01*
X11749000Y-26644977D01*
X11751959Y-26630100D01*
X11763231Y-26613231D01*
X11780098Y-26601960D01*
X11780100Y-26601959D01*
X11780101Y-26601959D01*
X11785082Y-26600968D01*
X11794979Y-26599000D01*
X13305022Y-26599000D01*
X13305023Y-26599000D01*
X13319899Y-26601959D01*
G37*
G36*
X18219899Y-26601959D02*
G01*
X18236769Y-26613231D01*
X18248041Y-26630101D01*
X18250999Y-26644978D01*
X18251000Y-27655023D01*
X18248041Y-27669899D01*
X18236769Y-27686769D01*
X18219899Y-27698041D01*
X18205022Y-27700999D01*
X16694977Y-27701000D01*
X16680101Y-27698041D01*
X16663231Y-27686769D01*
X16651959Y-27669899D01*
X16649001Y-27655023D01*
X16649000Y-27655020D01*
X16649000Y-26644977D01*
X16651959Y-26630100D01*
X16663231Y-26613231D01*
X16680098Y-26601960D01*
X16680100Y-26601959D01*
X16680101Y-26601959D01*
X16685082Y-26600968D01*
X16694979Y-26599000D01*
X18205022Y-26599000D01*
X18205023Y-26599000D01*
X18219899Y-26601959D01*
G37*
G36*
X21819899Y-26601959D02*
G01*
X21836769Y-26613231D01*
X21848041Y-26630101D01*
X21850999Y-26644978D01*
X21851000Y-27655023D01*
X21848041Y-27669899D01*
X21836769Y-27686769D01*
X21819899Y-27698041D01*
X21805022Y-27700999D01*
X20294977Y-27701000D01*
X20280101Y-27698041D01*
X20263231Y-27686769D01*
X20251959Y-27669899D01*
X20249001Y-27655023D01*
X20249000Y-27655020D01*
X20249000Y-26644977D01*
X20251959Y-26630100D01*
X20263231Y-26613231D01*
X20280098Y-26601960D01*
X20280100Y-26601959D01*
X20280101Y-26601959D01*
X20285082Y-26600968D01*
X20294979Y-26599000D01*
X21805022Y-26599000D01*
X21805023Y-26599000D01*
X21819899Y-26601959D01*
G37*
G36*
X26719899Y-26601959D02*
G01*
X26736769Y-26613231D01*
X26748041Y-26630101D01*
X26750999Y-26644978D01*
X26751000Y-27655023D01*
X26748041Y-27669899D01*
X26736769Y-27686769D01*
X26719899Y-27698041D01*
X26705022Y-27700999D01*
X25194977Y-27701000D01*
X25180101Y-27698041D01*
X25163231Y-27686769D01*
X25151959Y-27669899D01*
X25149001Y-27655023D01*
X25149000Y-27655020D01*
X25149000Y-26644977D01*
X25151959Y-26630100D01*
X25163231Y-26613231D01*
X25180098Y-26601960D01*
X25180100Y-26601959D01*
X25180101Y-26601959D01*
X25185082Y-26600968D01*
X25194979Y-26599000D01*
X26705022Y-26599000D01*
X26705023Y-26599000D01*
X26719899Y-26601959D01*
G37*
G36*
X7668914Y-22556995D02*
G01*
X7684726Y-22563976D01*
X7692531Y-22565213D01*
X7725039Y-22581776D01*
X7770106Y-22601676D01*
X7848324Y-22679894D01*
X7868226Y-22724967D01*
X7884786Y-22757468D01*
X7886021Y-22765270D01*
X7893005Y-22781086D01*
X7901000Y-22850000D01*
X7901000Y-24150000D01*
X7893005Y-24218914D01*
X7886021Y-24234729D01*
X7884786Y-24242531D01*
X7868229Y-24275024D01*
X7848324Y-24320106D01*
X7770106Y-24398324D01*
X7725024Y-24418229D01*
X7692531Y-24434786D01*
X7684729Y-24436021D01*
X7668914Y-24443005D01*
X7600000Y-24451000D01*
X6950000Y-24451000D01*
X6881086Y-24443005D01*
X6865270Y-24436021D01*
X6857468Y-24434786D01*
X6824967Y-24418226D01*
X6779894Y-24398324D01*
X6701676Y-24320106D01*
X6681776Y-24275039D01*
X6665213Y-24242531D01*
X6663976Y-24234726D01*
X6656995Y-24218914D01*
X6649000Y-24150000D01*
X6649000Y-22850000D01*
X6656995Y-22781086D01*
X6663976Y-22765274D01*
X6665213Y-22757468D01*
X6681780Y-22724953D01*
X6701676Y-22679894D01*
X6779894Y-22601676D01*
X6824953Y-22581780D01*
X6857468Y-22565213D01*
X6865274Y-22563976D01*
X6881086Y-22556995D01*
X6950000Y-22549000D01*
X7600000Y-22549000D01*
X7668914Y-22556995D01*
G37*
G36*
X10618914Y-22556995D02*
G01*
X10634726Y-22563976D01*
X10642531Y-22565213D01*
X10675039Y-22581776D01*
X10720106Y-22601676D01*
X10798324Y-22679894D01*
X10818226Y-22724967D01*
X10834786Y-22757468D01*
X10836021Y-22765270D01*
X10843005Y-22781086D01*
X10851000Y-22850000D01*
X10851000Y-24150000D01*
X10843005Y-24218914D01*
X10836021Y-24234729D01*
X10834786Y-24242531D01*
X10818229Y-24275024D01*
X10798324Y-24320106D01*
X10720106Y-24398324D01*
X10675024Y-24418229D01*
X10642531Y-24434786D01*
X10634729Y-24436021D01*
X10618914Y-24443005D01*
X10550000Y-24451000D01*
X9900000Y-24451000D01*
X9831086Y-24443005D01*
X9815270Y-24436021D01*
X9807468Y-24434786D01*
X9774967Y-24418226D01*
X9729894Y-24398324D01*
X9651676Y-24320106D01*
X9631776Y-24275039D01*
X9615213Y-24242531D01*
X9613976Y-24234726D01*
X9606995Y-24218914D01*
X9599000Y-24150000D01*
X9599000Y-22850000D01*
X9606995Y-22781086D01*
X9613976Y-22765274D01*
X9615213Y-22757468D01*
X9631780Y-22724953D01*
X9651676Y-22679894D01*
X9729894Y-22601676D01*
X9774953Y-22581780D01*
X9807468Y-22565213D01*
X9815274Y-22563976D01*
X9831086Y-22556995D01*
X9900000Y-22549000D01*
X10550000Y-22549000D01*
X10618914Y-22556995D01*
G37*
G36*
X4019899Y-19201959D02*
G01*
X4036769Y-19213231D01*
X4048041Y-19230101D01*
X4050999Y-19244978D01*
X4051000Y-21755023D01*
X4048041Y-21769899D01*
X4036769Y-21786769D01*
X4019899Y-21798041D01*
X4005022Y-21800999D01*
X1494977Y-21801000D01*
X1480101Y-21798041D01*
X1463231Y-21786769D01*
X1451959Y-21769899D01*
X1449001Y-21755023D01*
X1449000Y-21755020D01*
X1449000Y-19244977D01*
X1451959Y-19230100D01*
X1463231Y-19213231D01*
X1480098Y-19201960D01*
X1480100Y-19201959D01*
X1480101Y-19201959D01*
X1485082Y-19200968D01*
X1494979Y-19199000D01*
X4005022Y-19199000D01*
X4005023Y-19199000D01*
X4019899Y-19201959D01*
G37*
G36*
X14519899Y-19201959D02*
G01*
X14536769Y-19213231D01*
X14548041Y-19230101D01*
X14550999Y-19244978D01*
X14551000Y-21755023D01*
X14548041Y-21769899D01*
X14536769Y-21786769D01*
X14519899Y-21798041D01*
X14505022Y-21800999D01*
X11994977Y-21801000D01*
X11980101Y-21798041D01*
X11963231Y-21786769D01*
X11951959Y-21769899D01*
X11949001Y-21755023D01*
X11949000Y-21755020D01*
X11949000Y-19244977D01*
X11951959Y-19230100D01*
X11963231Y-19213231D01*
X11980098Y-19201960D01*
X11980100Y-19201959D01*
X11980101Y-19201959D01*
X11985082Y-19200968D01*
X11994979Y-19199000D01*
X14505022Y-19199000D01*
X14505023Y-19199000D01*
X14519899Y-19201959D01*
G37*
G36*
X20668914Y-21056995D02*
G01*
X20684726Y-21063976D01*
X20692531Y-21065213D01*
X20725039Y-21081776D01*
X20770106Y-21101676D01*
X20848324Y-21179894D01*
X20868226Y-21224967D01*
X20884786Y-21257468D01*
X20886021Y-21265270D01*
X20893005Y-21281086D01*
X20901000Y-21350000D01*
X20901000Y-22650000D01*
X20893005Y-22718914D01*
X20886021Y-22734729D01*
X20884786Y-22742531D01*
X20868229Y-22775024D01*
X20848324Y-22820106D01*
X20770106Y-22898324D01*
X20725024Y-22918229D01*
X20692531Y-22934786D01*
X20684729Y-22936021D01*
X20668914Y-22943005D01*
X20600000Y-22951000D01*
X19950000Y-22951000D01*
X19881086Y-22943005D01*
X19865270Y-22936021D01*
X19857468Y-22934786D01*
X19824967Y-22918226D01*
X19779894Y-22898324D01*
X19701676Y-22820106D01*
X19681776Y-22775039D01*
X19665213Y-22742531D01*
X19663976Y-22734726D01*
X19656995Y-22718914D01*
X19649000Y-22650000D01*
X19649000Y-21350000D01*
X19656995Y-21281086D01*
X19663976Y-21265274D01*
X19665213Y-21257468D01*
X19681780Y-21224953D01*
X19701676Y-21179894D01*
X19779894Y-21101676D01*
X19824953Y-21081780D01*
X19857468Y-21065213D01*
X19865274Y-21063976D01*
X19881086Y-21056995D01*
X19950000Y-21049000D01*
X20600000Y-21049000D01*
X20668914Y-21056995D01*
G37*
G36*
X23618914Y-21056995D02*
G01*
X23634726Y-21063976D01*
X23642531Y-21065213D01*
X23675039Y-21081776D01*
X23720106Y-21101676D01*
X23798324Y-21179894D01*
X23818226Y-21224967D01*
X23834786Y-21257468D01*
X23836021Y-21265270D01*
X23843005Y-21281086D01*
X23851000Y-21350000D01*
X23851000Y-22650000D01*
X23843005Y-22718914D01*
X23836021Y-22734729D01*
X23834786Y-22742531D01*
X23818229Y-22775024D01*
X23798324Y-22820106D01*
X23720106Y-22898324D01*
X23675024Y-22918229D01*
X23642531Y-22934786D01*
X23634729Y-22936021D01*
X23618914Y-22943005D01*
X23550000Y-22951000D01*
X22900000Y-22951000D01*
X22831086Y-22943005D01*
X22815270Y-22936021D01*
X22807468Y-22934786D01*
X22774967Y-22918226D01*
X22729894Y-22898324D01*
X22651676Y-22820106D01*
X22631776Y-22775039D01*
X22615213Y-22742531D01*
X22613976Y-22734726D01*
X22606995Y-22718914D01*
X22599000Y-22650000D01*
X22599000Y-21350000D01*
X22606995Y-21281086D01*
X22613976Y-21265274D01*
X22615213Y-21257468D01*
X22631780Y-21224953D01*
X22651676Y-21179894D01*
X22729894Y-21101676D01*
X22774953Y-21081780D01*
X22807468Y-21065213D01*
X22815274Y-21063976D01*
X22831086Y-21056995D01*
X22900000Y-21049000D01*
X23550000Y-21049000D01*
X23618914Y-21056995D01*
G37*
G36*
X28293983Y-20893936D02*
G01*
X28344180Y-20893936D01*
X28387524Y-20903149D01*
X28425659Y-20906905D01*
X28473566Y-20921437D01*
X28528424Y-20933098D01*
X28563530Y-20948728D01*
X28594566Y-20958143D01*
X28643884Y-20984504D01*
X28700500Y-21009711D01*
X28726822Y-21028835D01*
X28750232Y-21041348D01*
X28797988Y-21080540D01*
X28852887Y-21120427D01*
X28870711Y-21140223D01*
X28886675Y-21153324D01*
X28929572Y-21205594D01*
X28978924Y-21260405D01*
X28989292Y-21278363D01*
X28998651Y-21289767D01*
X29033273Y-21354542D01*
X29073104Y-21423530D01*
X29077685Y-21437630D01*
X29081856Y-21445433D01*
X29104852Y-21521242D01*
X29131311Y-21602672D01*
X29132242Y-21611532D01*
X29133094Y-21614340D01*
X29141384Y-21698513D01*
X29151000Y-21790000D01*
X29141383Y-21881494D01*
X29133094Y-21965659D01*
X29132242Y-21968466D01*
X29131311Y-21977328D01*
X29104848Y-22058771D01*
X29081856Y-22134566D01*
X29077686Y-22142366D01*
X29073104Y-22156470D01*
X29033266Y-22225470D01*
X28998651Y-22290232D01*
X28989294Y-22301633D01*
X28978924Y-22319595D01*
X28929563Y-22374415D01*
X28886675Y-22426675D01*
X28870714Y-22439773D01*
X28852887Y-22459573D01*
X28797977Y-22499467D01*
X28750232Y-22538651D01*
X28726827Y-22551161D01*
X28700500Y-22570289D01*
X28643873Y-22595500D01*
X28594566Y-22621856D01*
X28563537Y-22631268D01*
X28528424Y-22646902D01*
X28473555Y-22658564D01*
X28425659Y-22673094D01*
X28387532Y-22676849D01*
X28344180Y-22686064D01*
X28293973Y-22686064D01*
X28250000Y-22690395D01*
X28206027Y-22686064D01*
X28155820Y-22686064D01*
X28112467Y-22676849D01*
X28074340Y-22673094D01*
X28026441Y-22658563D01*
X27971576Y-22646902D01*
X27936464Y-22631269D01*
X27905433Y-22621856D01*
X27856120Y-22595498D01*
X27799500Y-22570289D01*
X27773175Y-22551163D01*
X27749767Y-22538651D01*
X27702013Y-22499460D01*
X27647113Y-22459573D01*
X27629287Y-22439776D01*
X27613324Y-22426675D01*
X27570425Y-22374402D01*
X27521076Y-22319595D01*
X27510708Y-22301637D01*
X27501348Y-22290232D01*
X27466719Y-22225447D01*
X27426896Y-22156470D01*
X27422315Y-22142371D01*
X27418143Y-22134566D01*
X27395136Y-22058725D01*
X27368689Y-21977328D01*
X27367758Y-21968471D01*
X27366905Y-21965659D01*
X27358600Y-21881342D01*
X27349000Y-21790000D01*
X27358599Y-21698664D01*
X27366905Y-21614340D01*
X27367758Y-21611527D01*
X27368689Y-21602672D01*
X27395132Y-21521288D01*
X27418143Y-21445433D01*
X27422315Y-21437626D01*
X27426896Y-21423530D01*
X27466712Y-21354565D01*
X27501348Y-21289767D01*
X27510710Y-21278359D01*
X27521076Y-21260405D01*
X27570416Y-21205607D01*
X27613324Y-21153324D01*
X27629291Y-21140219D01*
X27647113Y-21120427D01*
X27702002Y-21080546D01*
X27749767Y-21041348D01*
X27773180Y-21028833D01*
X27799500Y-21009711D01*
X27856109Y-20984506D01*
X27905433Y-20958143D01*
X27936471Y-20948727D01*
X27971576Y-20933098D01*
X28026430Y-20921438D01*
X28074340Y-20906905D01*
X28112476Y-20903148D01*
X28155820Y-20893936D01*
X28206016Y-20893936D01*
X28250000Y-20889604D01*
X28293983Y-20893936D01*
G37*
G36*
X19119517Y-14052882D02*
G01*
X19136062Y-14063938D01*
X19147118Y-14080483D01*
X19151000Y-14100000D01*
X19151000Y-17900000D01*
X19147118Y-17919517D01*
X19136062Y-17936062D01*
X19119517Y-17947118D01*
X19100000Y-17951000D01*
X17100000Y-17951000D01*
X17080483Y-17947118D01*
X17063938Y-17936062D01*
X17052882Y-17919517D01*
X17049000Y-17900000D01*
X17049000Y-14100000D01*
X17052882Y-14080483D01*
X17063938Y-14063938D01*
X17080483Y-14052882D01*
X17100000Y-14049000D01*
X19100000Y-14049000D01*
X19119517Y-14052882D01*
G37*
G36*
X25419517Y-17502882D02*
G01*
X25436062Y-17513938D01*
X25447118Y-17530483D01*
X25451000Y-17550000D01*
X25451000Y-19050000D01*
X25447118Y-19069517D01*
X25436062Y-19086062D01*
X25419517Y-19097118D01*
X25400000Y-19101000D01*
X23400000Y-19101000D01*
X23380483Y-19097118D01*
X23363938Y-19086062D01*
X23352882Y-19069517D01*
X23349000Y-19050000D01*
X23349000Y-17550000D01*
X23352882Y-17530483D01*
X23363938Y-17513938D01*
X23380483Y-17502882D01*
X23400000Y-17499000D01*
X25400000Y-17499000D01*
X25419517Y-17502882D01*
G37*
G36*
X28293983Y-18353936D02*
G01*
X28344180Y-18353936D01*
X28387524Y-18363149D01*
X28425659Y-18366905D01*
X28473566Y-18381437D01*
X28528424Y-18393098D01*
X28563530Y-18408728D01*
X28594566Y-18418143D01*
X28643884Y-18444504D01*
X28700500Y-18469711D01*
X28726822Y-18488835D01*
X28750232Y-18501348D01*
X28797988Y-18540540D01*
X28852887Y-18580427D01*
X28870711Y-18600223D01*
X28886675Y-18613324D01*
X28929572Y-18665594D01*
X28978924Y-18720405D01*
X28989292Y-18738363D01*
X28998651Y-18749767D01*
X29033273Y-18814542D01*
X29073104Y-18883530D01*
X29077685Y-18897630D01*
X29081856Y-18905433D01*
X29104852Y-18981242D01*
X29131311Y-19062672D01*
X29132242Y-19071532D01*
X29133094Y-19074340D01*
X29141384Y-19158513D01*
X29151000Y-19250000D01*
X29141383Y-19341494D01*
X29133094Y-19425659D01*
X29132242Y-19428466D01*
X29131311Y-19437328D01*
X29104848Y-19518771D01*
X29081856Y-19594566D01*
X29077686Y-19602366D01*
X29073104Y-19616470D01*
X29033266Y-19685470D01*
X28998651Y-19750232D01*
X28989294Y-19761633D01*
X28978924Y-19779595D01*
X28929563Y-19834415D01*
X28886675Y-19886675D01*
X28870714Y-19899773D01*
X28852887Y-19919573D01*
X28797977Y-19959467D01*
X28750232Y-19998651D01*
X28726827Y-20011161D01*
X28700500Y-20030289D01*
X28643873Y-20055500D01*
X28594566Y-20081856D01*
X28563537Y-20091268D01*
X28528424Y-20106902D01*
X28473555Y-20118564D01*
X28425659Y-20133094D01*
X28387532Y-20136849D01*
X28344180Y-20146064D01*
X28293973Y-20146064D01*
X28250000Y-20150395D01*
X28206027Y-20146064D01*
X28155820Y-20146064D01*
X28112467Y-20136849D01*
X28074340Y-20133094D01*
X28026441Y-20118563D01*
X27971576Y-20106902D01*
X27936464Y-20091269D01*
X27905433Y-20081856D01*
X27856120Y-20055498D01*
X27799500Y-20030289D01*
X27773175Y-20011163D01*
X27749767Y-19998651D01*
X27702013Y-19959460D01*
X27647113Y-19919573D01*
X27629287Y-19899776D01*
X27613324Y-19886675D01*
X27570425Y-19834402D01*
X27521076Y-19779595D01*
X27510708Y-19761637D01*
X27501348Y-19750232D01*
X27466719Y-19685447D01*
X27426896Y-19616470D01*
X27422315Y-19602371D01*
X27418143Y-19594566D01*
X27395136Y-19518725D01*
X27368689Y-19437328D01*
X27367758Y-19428471D01*
X27366905Y-19425659D01*
X27358601Y-19341349D01*
X27349000Y-19250000D01*
X27358598Y-19158672D01*
X27366905Y-19074340D01*
X27367758Y-19071527D01*
X27368689Y-19062672D01*
X27395132Y-18981288D01*
X27418143Y-18905433D01*
X27422315Y-18897626D01*
X27426896Y-18883530D01*
X27466712Y-18814565D01*
X27501348Y-18749767D01*
X27510710Y-18738359D01*
X27521076Y-18720405D01*
X27570416Y-18665607D01*
X27613324Y-18613324D01*
X27629291Y-18600219D01*
X27647113Y-18580427D01*
X27702002Y-18540546D01*
X27749767Y-18501348D01*
X27773180Y-18488833D01*
X27799500Y-18469711D01*
X27856109Y-18444506D01*
X27905433Y-18418143D01*
X27936471Y-18408727D01*
X27971576Y-18393098D01*
X28026430Y-18381438D01*
X28074340Y-18366905D01*
X28112476Y-18363148D01*
X28155820Y-18353936D01*
X28206016Y-18353936D01*
X28250000Y-18349604D01*
X28293983Y-18353936D01*
G37*
G36*
X25419517Y-15202882D02*
G01*
X25436062Y-15213938D01*
X25447118Y-15230483D01*
X25451000Y-15250000D01*
X25451000Y-16750000D01*
X25447118Y-16769517D01*
X25436062Y-16786062D01*
X25419517Y-16797118D01*
X25400000Y-16801000D01*
X23400000Y-16801000D01*
X23380483Y-16797118D01*
X23363938Y-16786062D01*
X23352882Y-16769517D01*
X23349000Y-16750000D01*
X23349000Y-15250000D01*
X23352882Y-15230483D01*
X23363938Y-15213938D01*
X23380483Y-15202882D01*
X23400000Y-15199000D01*
X25400000Y-15199000D01*
X25419517Y-15202882D01*
G37*
G36*
X29119517Y-15812882D02*
G01*
X29136062Y-15823938D01*
X29147118Y-15840483D01*
X29151000Y-15860000D01*
X29151000Y-17560000D01*
X29147118Y-17579517D01*
X29136062Y-17596062D01*
X29119517Y-17607118D01*
X29100000Y-17611000D01*
X27400000Y-17611000D01*
X27380483Y-17607118D01*
X27363938Y-17596062D01*
X27352882Y-17579517D01*
X27349000Y-17560000D01*
X27349000Y-15860000D01*
X27352882Y-15840483D01*
X27363938Y-15823938D01*
X27380483Y-15812882D01*
X27400000Y-15809000D01*
X29100000Y-15809000D01*
X29119517Y-15812882D01*
G37*
G36*
X25419517Y-12902882D02*
G01*
X25436062Y-12913938D01*
X25447118Y-12930483D01*
X25451000Y-12950000D01*
X25451000Y-14450000D01*
X25447118Y-14469517D01*
X25436062Y-14486062D01*
X25419517Y-14497118D01*
X25400000Y-14501000D01*
X23400000Y-14501000D01*
X23380483Y-14497118D01*
X23363938Y-14486062D01*
X23352882Y-14469517D01*
X23349000Y-14450000D01*
X23349000Y-12950000D01*
X23352882Y-12930483D01*
X23363938Y-12913938D01*
X23380483Y-12902882D01*
X23400000Y-12899000D01*
X25400000Y-12899000D01*
X25419517Y-12902882D01*
G37*
G36*
X4019899Y-8701959D02*
G01*
X4036769Y-8713231D01*
X4048041Y-8730101D01*
X4050999Y-8744978D01*
X4051000Y-11255023D01*
X4048041Y-11269899D01*
X4036769Y-11286769D01*
X4019899Y-11298041D01*
X4005022Y-11300999D01*
X1494977Y-11301000D01*
X1480101Y-11298041D01*
X1463231Y-11286769D01*
X1451959Y-11269899D01*
X1449001Y-11255023D01*
X1449000Y-11255020D01*
X1449000Y-8744977D01*
X1451959Y-8730100D01*
X1463231Y-8713231D01*
X1480098Y-8701960D01*
X1480100Y-8701959D01*
X1480101Y-8701959D01*
X1485082Y-8700968D01*
X1494979Y-8699000D01*
X4005022Y-8699000D01*
X4005023Y-8699000D01*
X4019899Y-8701959D01*
G37*
G36*
X14519899Y-8701959D02*
G01*
X14536769Y-8713231D01*
X14548041Y-8730101D01*
X14550999Y-8744978D01*
X14551000Y-11255023D01*
X14548041Y-11269899D01*
X14536769Y-11286769D01*
X14519899Y-11298041D01*
X14505022Y-11300999D01*
X11994977Y-11301000D01*
X11980101Y-11298041D01*
X11963231Y-11286769D01*
X11951959Y-11269899D01*
X11949001Y-11255023D01*
X11949000Y-11255020D01*
X11949000Y-8744977D01*
X11951959Y-8730100D01*
X11963231Y-8713231D01*
X11980098Y-8701960D01*
X11980100Y-8701959D01*
X11980101Y-8701959D01*
X11985082Y-8700968D01*
X11994979Y-8699000D01*
X14505022Y-8699000D01*
X14505023Y-8699000D01*
X14519899Y-8701959D01*
G37*
G36*
X20668914Y-9556995D02*
G01*
X20684726Y-9563976D01*
X20692531Y-9565213D01*
X20725039Y-9581776D01*
X20770106Y-9601676D01*
X20848324Y-9679894D01*
X20868226Y-9724967D01*
X20884786Y-9757468D01*
X20886021Y-9765270D01*
X20893005Y-9781086D01*
X20901000Y-9850000D01*
X20901000Y-11150000D01*
X20893005Y-11218914D01*
X20886021Y-11234729D01*
X20884786Y-11242531D01*
X20868229Y-11275024D01*
X20848324Y-11320106D01*
X20770106Y-11398324D01*
X20725024Y-11418229D01*
X20692531Y-11434786D01*
X20684729Y-11436021D01*
X20668914Y-11443005D01*
X20600000Y-11451000D01*
X19950000Y-11451000D01*
X19881086Y-11443005D01*
X19865270Y-11436021D01*
X19857468Y-11434786D01*
X19824967Y-11418226D01*
X19779894Y-11398324D01*
X19701676Y-11320106D01*
X19681776Y-11275039D01*
X19665213Y-11242531D01*
X19663976Y-11234726D01*
X19656995Y-11218914D01*
X19649000Y-11150000D01*
X19649000Y-9850000D01*
X19656995Y-9781086D01*
X19663976Y-9765274D01*
X19665213Y-9757468D01*
X19681780Y-9724953D01*
X19701676Y-9679894D01*
X19779894Y-9601676D01*
X19824953Y-9581780D01*
X19857468Y-9565213D01*
X19865274Y-9563976D01*
X19881086Y-9556995D01*
X19950000Y-9549000D01*
X20600000Y-9549000D01*
X20668914Y-9556995D01*
G37*
G36*
X23618914Y-9556995D02*
G01*
X23634726Y-9563976D01*
X23642531Y-9565213D01*
X23675039Y-9581776D01*
X23720106Y-9601676D01*
X23798324Y-9679894D01*
X23818226Y-9724967D01*
X23834786Y-9757468D01*
X23836021Y-9765270D01*
X23843005Y-9781086D01*
X23851000Y-9850000D01*
X23851000Y-11150000D01*
X23843005Y-11218914D01*
X23836021Y-11234729D01*
X23834786Y-11242531D01*
X23818229Y-11275024D01*
X23798324Y-11320106D01*
X23720106Y-11398324D01*
X23675024Y-11418229D01*
X23642531Y-11434786D01*
X23634729Y-11436021D01*
X23618914Y-11443005D01*
X23550000Y-11451000D01*
X22900000Y-11451000D01*
X22831086Y-11443005D01*
X22815270Y-11436021D01*
X22807468Y-11434786D01*
X22774967Y-11418226D01*
X22729894Y-11398324D01*
X22651676Y-11320106D01*
X22631776Y-11275039D01*
X22615213Y-11242531D01*
X22613976Y-11234726D01*
X22606995Y-11218914D01*
X22599000Y-11150000D01*
X22599000Y-9850000D01*
X22606995Y-9781086D01*
X22613976Y-9765274D01*
X22615213Y-9757468D01*
X22631780Y-9724953D01*
X22651676Y-9679894D01*
X22729894Y-9601676D01*
X22774953Y-9581780D01*
X22807468Y-9565213D01*
X22815274Y-9563976D01*
X22831086Y-9556995D01*
X22900000Y-9549000D01*
X23550000Y-9549000D01*
X23618914Y-9556995D01*
G37*
G36*
X17769899Y-5701959D02*
G01*
X17786769Y-5713231D01*
X17798041Y-5730101D01*
X17800999Y-5744978D01*
X17801000Y-7255023D01*
X17798041Y-7269899D01*
X17786769Y-7286769D01*
X17769899Y-7298041D01*
X17755022Y-7300999D01*
X13744977Y-7301000D01*
X13730101Y-7298041D01*
X13713231Y-7286769D01*
X13701959Y-7269899D01*
X13699001Y-7255023D01*
X13699000Y-7255020D01*
X13699000Y-5744977D01*
X13701959Y-5730100D01*
X13713231Y-5713231D01*
X13730098Y-5701960D01*
X13730100Y-5701959D01*
X13730101Y-5701959D01*
X13735082Y-5700968D01*
X13744979Y-5699000D01*
X17755022Y-5699000D01*
X17755023Y-5699000D01*
X17769899Y-5701959D01*
G37*
G36*
X21718914Y-7131995D02*
G01*
X21734726Y-7138976D01*
X21742531Y-7140213D01*
X21775039Y-7156776D01*
X21820106Y-7176676D01*
X21898324Y-7254894D01*
X21918226Y-7299967D01*
X21934786Y-7332468D01*
X21936021Y-7340270D01*
X21943005Y-7356086D01*
X21951000Y-7425000D01*
X21951000Y-8075000D01*
X21943005Y-8143914D01*
X21936021Y-8159729D01*
X21934786Y-8167531D01*
X21918229Y-8200024D01*
X21898324Y-8245106D01*
X21820106Y-8323324D01*
X21775024Y-8343229D01*
X21742531Y-8359786D01*
X21734729Y-8361021D01*
X21718914Y-8368005D01*
X21650000Y-8376000D01*
X20350000Y-8376000D01*
X20281086Y-8368005D01*
X20265270Y-8361021D01*
X20257468Y-8359786D01*
X20224967Y-8343226D01*
X20179894Y-8323324D01*
X20101676Y-8245106D01*
X20081776Y-8200039D01*
X20065213Y-8167531D01*
X20063976Y-8159726D01*
X20056995Y-8143914D01*
X20049000Y-8075000D01*
X20049000Y-7425000D01*
X20056995Y-7356086D01*
X20063976Y-7340274D01*
X20065213Y-7332468D01*
X20081780Y-7299953D01*
X20101676Y-7254894D01*
X20179894Y-7176676D01*
X20224953Y-7156780D01*
X20257468Y-7140213D01*
X20265274Y-7138976D01*
X20281086Y-7131995D01*
X20350000Y-7124000D01*
X21650000Y-7124000D01*
X21718914Y-7131995D01*
G37*
G36*
X10718914Y-6356995D02*
G01*
X10734726Y-6363976D01*
X10742531Y-6365213D01*
X10775039Y-6381776D01*
X10820106Y-6401676D01*
X10898324Y-6479894D01*
X10918226Y-6524967D01*
X10934786Y-6557468D01*
X10936021Y-6565270D01*
X10943005Y-6581086D01*
X10951000Y-6650000D01*
X10951000Y-7300000D01*
X10943005Y-7368914D01*
X10936021Y-7384729D01*
X10934786Y-7392531D01*
X10918229Y-7425024D01*
X10898324Y-7470106D01*
X10820106Y-7548324D01*
X10775024Y-7568229D01*
X10742531Y-7584786D01*
X10734729Y-7586021D01*
X10718914Y-7593005D01*
X10650000Y-7601000D01*
X9350000Y-7601000D01*
X9281086Y-7593005D01*
X9265270Y-7586021D01*
X9257468Y-7584786D01*
X9224967Y-7568226D01*
X9179894Y-7548324D01*
X9101676Y-7470106D01*
X9081776Y-7425039D01*
X9065213Y-7392531D01*
X9063976Y-7384726D01*
X9056995Y-7368914D01*
X9049000Y-7300000D01*
X9049000Y-6650000D01*
X9056995Y-6581086D01*
X9063976Y-6565274D01*
X9065213Y-6557468D01*
X9081780Y-6524953D01*
X9101676Y-6479894D01*
X9179894Y-6401676D01*
X9224953Y-6381780D01*
X9257468Y-6365213D01*
X9265274Y-6363976D01*
X9281086Y-6356995D01*
X9350000Y-6349000D01*
X10650000Y-6349000D01*
X10718914Y-6356995D01*
G37*
G36*
X5073037Y-203787D02*
G01*
X5144468Y-203787D01*
X5221486Y-213516D01*
X5300341Y-218685D01*
X5366379Y-231820D01*
X5431115Y-239999D01*
X5512353Y-260857D01*
X5595543Y-277405D01*
X5653728Y-297156D01*
X5710973Y-311854D01*
X5794797Y-345042D01*
X5880555Y-374153D01*
X5930371Y-398719D01*
X5979613Y-418216D01*
X6064184Y-464709D01*
X6150500Y-507276D01*
X6191759Y-534844D01*
X6232802Y-557408D01*
X6316072Y-617907D01*
X6400760Y-674494D01*
X6433619Y-703310D01*
X6466555Y-727240D01*
X6546354Y-802176D01*
X6627053Y-872947D01*
X6651952Y-901339D01*
X6677174Y-925024D01*
X6751251Y-1014569D01*
X6825506Y-1099240D01*
X6843181Y-1125693D01*
X6861348Y-1147653D01*
X6927421Y-1251767D01*
X6992724Y-1349500D01*
X7004155Y-1372680D01*
X7016166Y-1391606D01*
X7071961Y-1510176D01*
X7125847Y-1619445D01*
X7132235Y-1638263D01*
X7139185Y-1653033D01*
X7182472Y-1786260D01*
X7222595Y-1904457D01*
X7225307Y-1918091D01*
X7228470Y-1927826D01*
X7257155Y-2078203D01*
X7281315Y-2199659D01*
X7281833Y-2207570D01*
X7282610Y-2211641D01*
X7294830Y-2405871D01*
X7301000Y-2500000D01*
X7294830Y-2594136D01*
X7282610Y-2788358D01*
X7281833Y-2792427D01*
X7281315Y-2800341D01*
X7257151Y-2921820D01*
X7228470Y-3072173D01*
X7225307Y-3081905D01*
X7222595Y-3095543D01*
X7182465Y-3213761D01*
X7139185Y-3346966D01*
X7132236Y-3361732D01*
X7125847Y-3380555D01*
X7071951Y-3489843D01*
X7016166Y-3608393D01*
X7004157Y-3627315D01*
X6992724Y-3650500D01*
X6927408Y-3748251D01*
X6861348Y-3852346D01*
X6843185Y-3874301D01*
X6825506Y-3900760D01*
X6751237Y-3985447D01*
X6677174Y-4074975D01*
X6651957Y-4098655D01*
X6627053Y-4127053D01*
X6546338Y-4197837D01*
X6466555Y-4272759D01*
X6433625Y-4296683D01*
X6400760Y-4325506D01*
X6316055Y-4382103D01*
X6232802Y-4442591D01*
X6191768Y-4465149D01*
X6150500Y-4492724D01*
X6064166Y-4535299D01*
X5979613Y-4581783D01*
X5930381Y-4601275D01*
X5880555Y-4625847D01*
X5794779Y-4654963D01*
X5710973Y-4688145D01*
X5653740Y-4702839D01*
X5595543Y-4722595D01*
X5512335Y-4739146D01*
X5431115Y-4760000D01*
X5366389Y-4768176D01*
X5300341Y-4781315D01*
X5221481Y-4786483D01*
X5144468Y-4796213D01*
X5073037Y-4796213D01*
X5000000Y-4801000D01*
X4926963Y-4796213D01*
X4855532Y-4796213D01*
X4778517Y-4786483D01*
X4699659Y-4781315D01*
X4633611Y-4768177D01*
X4568884Y-4760000D01*
X4487659Y-4739145D01*
X4404457Y-4722595D01*
X4346262Y-4702840D01*
X4289026Y-4688145D01*
X4205213Y-4654961D01*
X4119445Y-4625847D01*
X4069622Y-4601277D01*
X4020386Y-4581783D01*
X3935823Y-4535294D01*
X3849500Y-4492724D01*
X3808236Y-4465152D01*
X3767197Y-4442591D01*
X3683931Y-4382095D01*
X3599240Y-4325506D01*
X3566378Y-4296687D01*
X3533444Y-4272759D01*
X3453646Y-4197824D01*
X3372947Y-4127053D01*
X3348047Y-4098660D01*
X3322825Y-4074975D01*
X3248744Y-3985427D01*
X3174494Y-3900760D01*
X3156818Y-3874307D01*
X3138651Y-3852346D01*
X3072571Y-3748221D01*
X3007276Y-3650500D01*
X2995845Y-3627322D01*
X2983833Y-3608393D01*
X2928026Y-3489799D01*
X2874153Y-3380555D01*
X2867766Y-3361740D01*
X2860814Y-3346966D01*
X2817511Y-3213692D01*
X2777405Y-3095543D01*
X2774693Y-3081913D01*
X2771529Y-3072173D01*
X2742824Y-2921697D01*
X2718685Y-2800341D01*
X2718166Y-2792435D01*
X2717389Y-2788358D01*
X2705144Y-2593755D01*
X2699000Y-2500000D01*
X2705144Y-2406252D01*
X2717389Y-2211641D01*
X2718166Y-2207562D01*
X2718685Y-2199659D01*
X2742819Y-2078325D01*
X2771529Y-1927826D01*
X2774694Y-1918083D01*
X2777405Y-1904457D01*
X2817503Y-1786329D01*
X2860814Y-1653033D01*
X2867767Y-1638256D01*
X2874153Y-1619445D01*
X2928016Y-1510221D01*
X2983833Y-1391606D01*
X2995848Y-1372673D01*
X3007276Y-1349500D01*
X3072558Y-1251797D01*
X3138651Y-1147653D01*
X3156822Y-1125687D01*
X3174494Y-1099240D01*
X3248730Y-1014589D01*
X3322825Y-925024D01*
X3348052Y-901333D01*
X3372947Y-872947D01*
X3453630Y-802189D01*
X3533444Y-727240D01*
X3566385Y-703306D01*
X3599240Y-674494D01*
X3683914Y-617916D01*
X3767197Y-557408D01*
X3808245Y-534841D01*
X3849500Y-507276D01*
X3935805Y-464714D01*
X4020386Y-418216D01*
X4069632Y-398717D01*
X4119445Y-374153D01*
X4205195Y-345044D01*
X4289026Y-311854D01*
X4346274Y-297155D01*
X4404457Y-277405D01*
X4487642Y-260858D01*
X4568884Y-239999D01*
X4633622Y-231820D01*
X4699659Y-218685D01*
X4778513Y-213516D01*
X4855532Y-203787D01*
X4926963Y-203787D01*
X5000000Y-199000D01*
X5073037Y-203787D01*
G37*
G36*
X10718914Y-3406995D02*
G01*
X10734726Y-3413976D01*
X10742531Y-3415213D01*
X10775039Y-3431776D01*
X10820106Y-3451676D01*
X10898324Y-3529894D01*
X10918226Y-3574967D01*
X10934786Y-3607468D01*
X10936021Y-3615270D01*
X10943005Y-3631086D01*
X10951000Y-3700000D01*
X10951000Y-4350000D01*
X10943005Y-4418914D01*
X10936021Y-4434729D01*
X10934786Y-4442531D01*
X10918229Y-4475024D01*
X10898324Y-4520106D01*
X10820106Y-4598324D01*
X10775024Y-4618229D01*
X10742531Y-4634786D01*
X10734729Y-4636021D01*
X10718914Y-4643005D01*
X10650000Y-4651000D01*
X9350000Y-4651000D01*
X9281086Y-4643005D01*
X9265270Y-4636021D01*
X9257468Y-4634786D01*
X9224967Y-4618226D01*
X9179894Y-4598324D01*
X9101676Y-4520106D01*
X9081776Y-4475039D01*
X9065213Y-4442531D01*
X9063976Y-4434726D01*
X9056995Y-4418914D01*
X9049000Y-4350000D01*
X9049000Y-3700000D01*
X9056995Y-3631086D01*
X9063976Y-3615274D01*
X9065213Y-3607468D01*
X9081780Y-3574953D01*
X9101676Y-3529894D01*
X9179894Y-3451676D01*
X9224953Y-3431780D01*
X9257468Y-3415213D01*
X9265274Y-3413976D01*
X9281086Y-3406995D01*
X9350000Y-3399000D01*
X10650000Y-3399000D01*
X10718914Y-3406995D01*
G37*
G36*
X21718914Y-4181995D02*
G01*
X21734726Y-4188976D01*
X21742531Y-4190213D01*
X21775039Y-4206776D01*
X21820106Y-4226676D01*
X21898324Y-4304894D01*
X21918226Y-4349967D01*
X21934786Y-4382468D01*
X21936021Y-4390270D01*
X21943005Y-4406086D01*
X21951000Y-4475000D01*
X21951000Y-5125000D01*
X21943005Y-5193914D01*
X21936021Y-5209729D01*
X21934786Y-5217531D01*
X21918229Y-5250024D01*
X21898324Y-5295106D01*
X21820106Y-5373324D01*
X21775024Y-5393229D01*
X21742531Y-5409786D01*
X21734729Y-5411021D01*
X21718914Y-5418005D01*
X21650000Y-5426000D01*
X20350000Y-5426000D01*
X20281086Y-5418005D01*
X20265270Y-5411021D01*
X20257468Y-5409786D01*
X20224967Y-5393226D01*
X20179894Y-5373324D01*
X20101676Y-5295106D01*
X20081776Y-5250039D01*
X20065213Y-5217531D01*
X20063976Y-5209726D01*
X20056995Y-5193914D01*
X20049000Y-5125000D01*
X20049000Y-4475000D01*
X20056995Y-4406086D01*
X20063976Y-4390274D01*
X20065213Y-4382468D01*
X20081780Y-4349953D01*
X20101676Y-4304894D01*
X20179894Y-4226676D01*
X20224953Y-4206780D01*
X20257468Y-4190213D01*
X20265274Y-4188976D01*
X20281086Y-4181995D01*
X20350000Y-4174000D01*
X21650000Y-4174000D01*
X21718914Y-4181995D01*
G37*
G36*
X25233037Y-295787D02*
G01*
X25304468Y-295787D01*
X25381486Y-305516D01*
X25460341Y-310685D01*
X25526379Y-323820D01*
X25591115Y-331999D01*
X25672353Y-352857D01*
X25755543Y-369405D01*
X25813728Y-389156D01*
X25870973Y-403854D01*
X25954797Y-437042D01*
X26040555Y-466153D01*
X26090371Y-490719D01*
X26139613Y-510216D01*
X26224184Y-556709D01*
X26310500Y-599276D01*
X26351759Y-626844D01*
X26392802Y-649408D01*
X26476072Y-709907D01*
X26560760Y-766494D01*
X26593619Y-795310D01*
X26626555Y-819240D01*
X26706354Y-894176D01*
X26787053Y-964947D01*
X26811952Y-993339D01*
X26837174Y-1017024D01*
X26911251Y-1106569D01*
X26985506Y-1191240D01*
X27003181Y-1217693D01*
X27021348Y-1239653D01*
X27087421Y-1343767D01*
X27152724Y-1441500D01*
X27164155Y-1464680D01*
X27176166Y-1483606D01*
X27231961Y-1602176D01*
X27285847Y-1711445D01*
X27292235Y-1730263D01*
X27299185Y-1745033D01*
X27342472Y-1878260D01*
X27382595Y-1996457D01*
X27385307Y-2010091D01*
X27388470Y-2019826D01*
X27417155Y-2170203D01*
X27441315Y-2291659D01*
X27441833Y-2299570D01*
X27442610Y-2303641D01*
X27454830Y-2497871D01*
X27461000Y-2592000D01*
X27454830Y-2686136D01*
X27442610Y-2880358D01*
X27441833Y-2884427D01*
X27441315Y-2892341D01*
X27417151Y-3013820D01*
X27388470Y-3164173D01*
X27385307Y-3173905D01*
X27382595Y-3187543D01*
X27342465Y-3305761D01*
X27299185Y-3438966D01*
X27292236Y-3453732D01*
X27285847Y-3472555D01*
X27231951Y-3581843D01*
X27176166Y-3700393D01*
X27164157Y-3719315D01*
X27152724Y-3742500D01*
X27087408Y-3840251D01*
X27021348Y-3944346D01*
X27003185Y-3966301D01*
X26985506Y-3992760D01*
X26911237Y-4077447D01*
X26837174Y-4166975D01*
X26811957Y-4190655D01*
X26787053Y-4219053D01*
X26706338Y-4289837D01*
X26626555Y-4364759D01*
X26593625Y-4388683D01*
X26560760Y-4417506D01*
X26476055Y-4474103D01*
X26392802Y-4534591D01*
X26351768Y-4557149D01*
X26310500Y-4584724D01*
X26224166Y-4627299D01*
X26139613Y-4673783D01*
X26090381Y-4693275D01*
X26040555Y-4717847D01*
X25954779Y-4746963D01*
X25870973Y-4780145D01*
X25813740Y-4794839D01*
X25755543Y-4814595D01*
X25672335Y-4831146D01*
X25591115Y-4852000D01*
X25526389Y-4860176D01*
X25460341Y-4873315D01*
X25381481Y-4878483D01*
X25304468Y-4888213D01*
X25233037Y-4888213D01*
X25160000Y-4893000D01*
X25086963Y-4888213D01*
X25015532Y-4888213D01*
X24938517Y-4878483D01*
X24859659Y-4873315D01*
X24793611Y-4860177D01*
X24728884Y-4852000D01*
X24647659Y-4831145D01*
X24564457Y-4814595D01*
X24506262Y-4794840D01*
X24449026Y-4780145D01*
X24365213Y-4746961D01*
X24279445Y-4717847D01*
X24229622Y-4693277D01*
X24180386Y-4673783D01*
X24095823Y-4627294D01*
X24009500Y-4584724D01*
X23968236Y-4557152D01*
X23927197Y-4534591D01*
X23843931Y-4474095D01*
X23759240Y-4417506D01*
X23726378Y-4388687D01*
X23693444Y-4364759D01*
X23613646Y-4289824D01*
X23532947Y-4219053D01*
X23508047Y-4190660D01*
X23482825Y-4166975D01*
X23408744Y-4077427D01*
X23334494Y-3992760D01*
X23316818Y-3966307D01*
X23298651Y-3944346D01*
X23232571Y-3840221D01*
X23167276Y-3742500D01*
X23155845Y-3719322D01*
X23143833Y-3700393D01*
X23088026Y-3581799D01*
X23034153Y-3472555D01*
X23027766Y-3453740D01*
X23020814Y-3438966D01*
X22977511Y-3305692D01*
X22937405Y-3187543D01*
X22934693Y-3173913D01*
X22931529Y-3164173D01*
X22902824Y-3013697D01*
X22878685Y-2892341D01*
X22878166Y-2884435D01*
X22877389Y-2880358D01*
X22865144Y-2685755D01*
X22859000Y-2592000D01*
X22865144Y-2498252D01*
X22877389Y-2303641D01*
X22878166Y-2299562D01*
X22878685Y-2291659D01*
X22902819Y-2170325D01*
X22931529Y-2019826D01*
X22934694Y-2010083D01*
X22937405Y-1996457D01*
X22977503Y-1878329D01*
X23020814Y-1745033D01*
X23027767Y-1730256D01*
X23034153Y-1711445D01*
X23088016Y-1602221D01*
X23143833Y-1483606D01*
X23155848Y-1464673D01*
X23167276Y-1441500D01*
X23232558Y-1343797D01*
X23298651Y-1239653D01*
X23316822Y-1217687D01*
X23334494Y-1191240D01*
X23408730Y-1106589D01*
X23482825Y-1017024D01*
X23508052Y-993333D01*
X23532947Y-964947D01*
X23613630Y-894189D01*
X23693444Y-819240D01*
X23726385Y-795306D01*
X23759240Y-766494D01*
X23843914Y-709916D01*
X23927197Y-649408D01*
X23968245Y-626841D01*
X24009500Y-599276D01*
X24095805Y-556714D01*
X24180386Y-510216D01*
X24229632Y-490717D01*
X24279445Y-466153D01*
X24365195Y-437044D01*
X24449026Y-403854D01*
X24506274Y-389155D01*
X24564457Y-369405D01*
X24647642Y-352858D01*
X24728884Y-331999D01*
X24793622Y-323820D01*
X24859659Y-310685D01*
X24938513Y-305516D01*
X25015532Y-295787D01*
X25086963Y-295787D01*
X25160000Y-291000D01*
X25233037Y-295787D01*
G37*
G36*
X17769899Y-2101959D02*
G01*
X17786769Y-2113231D01*
X17798041Y-2130101D01*
X17800999Y-2144978D01*
X17801000Y-3655023D01*
X17798041Y-3669899D01*
X17786769Y-3686769D01*
X17769899Y-3698041D01*
X17755022Y-3700999D01*
X13744977Y-3701000D01*
X13730101Y-3698041D01*
X13713231Y-3686769D01*
X13701959Y-3669899D01*
X13699001Y-3655023D01*
X13699000Y-3655020D01*
X13699000Y-2144977D01*
X13701959Y-2130100D01*
X13713231Y-2113231D01*
X13730098Y-2101960D01*
X13730100Y-2101959D01*
X13730101Y-2101959D01*
X13735082Y-2100968D01*
X13744979Y-2099000D01*
X17755022Y-2099000D01*
X17755023Y-2099000D01*
X17769899Y-2101959D01*
G37*
M02*
