G04 #@! TF.GenerationSoftware,KiCad,Pcbnew,7.0.2-6a45011f42~172~ubuntu22.04.1*
G04 #@! TF.CreationDate,2023-06-14T15:19:40+02:00*
G04 #@! TF.ProjectId,imu_module,696d755f-6d6f-4647-956c-652e6b696361,rev?*
G04 #@! TF.SameCoordinates,Original*
G04 #@! TF.FileFunction,Soldermask,Top*
G04 #@! TF.FilePolarity,Negative*
%FSLAX46Y46*%
G04 Gerber Fmt 4.6, Leading zero omitted, Abs format (unit mm)*
G04 Created by KiCad (PCBNEW 7.0.2-6a45011f42~172~ubuntu22.04.1) date 2023-06-14 15:19:40*
%MOMM*%
%LPD*%
G01*
G04 APERTURE LIST*
G04 APERTURE END LIST*
G36*
X15073037Y-35153787D02*
G01*
X15144468Y-35153787D01*
X15221486Y-35163516D01*
X15300341Y-35168685D01*
X15366379Y-35181820D01*
X15431115Y-35189999D01*
X15512353Y-35210857D01*
X15595543Y-35227405D01*
X15653728Y-35247156D01*
X15710973Y-35261854D01*
X15794797Y-35295042D01*
X15880555Y-35324153D01*
X15930371Y-35348719D01*
X15979613Y-35368216D01*
X16064184Y-35414709D01*
X16150500Y-35457276D01*
X16191759Y-35484844D01*
X16232802Y-35507408D01*
X16316072Y-35567907D01*
X16400760Y-35624494D01*
X16433619Y-35653310D01*
X16466555Y-35677240D01*
X16546354Y-35752176D01*
X16627053Y-35822947D01*
X16651952Y-35851339D01*
X16677174Y-35875024D01*
X16751251Y-35964569D01*
X16825506Y-36049240D01*
X16843181Y-36075693D01*
X16861348Y-36097653D01*
X16927421Y-36201767D01*
X16992724Y-36299500D01*
X17004155Y-36322680D01*
X17016166Y-36341606D01*
X17071961Y-36460176D01*
X17125847Y-36569445D01*
X17132235Y-36588263D01*
X17139185Y-36603033D01*
X17182472Y-36736260D01*
X17222595Y-36854457D01*
X17225307Y-36868091D01*
X17228470Y-36877826D01*
X17257155Y-37028203D01*
X17281315Y-37149659D01*
X17281833Y-37157570D01*
X17282610Y-37161641D01*
X17294831Y-37355887D01*
X17301000Y-37450000D01*
X17294829Y-37544152D01*
X17282610Y-37738358D01*
X17281833Y-37742427D01*
X17281315Y-37750341D01*
X17257151Y-37871820D01*
X17228470Y-38022173D01*
X17225307Y-38031905D01*
X17222595Y-38045543D01*
X17182465Y-38163761D01*
X17139185Y-38296966D01*
X17132236Y-38311732D01*
X17125847Y-38330555D01*
X17071951Y-38439843D01*
X17016166Y-38558393D01*
X17004157Y-38577315D01*
X16992724Y-38600500D01*
X16927408Y-38698251D01*
X16861348Y-38802346D01*
X16843185Y-38824301D01*
X16825506Y-38850760D01*
X16751237Y-38935447D01*
X16677174Y-39024975D01*
X16651957Y-39048655D01*
X16627053Y-39077053D01*
X16546338Y-39147837D01*
X16466555Y-39222759D01*
X16433625Y-39246683D01*
X16400760Y-39275506D01*
X16316055Y-39332103D01*
X16232802Y-39392591D01*
X16191768Y-39415149D01*
X16150500Y-39442724D01*
X16064166Y-39485299D01*
X15979613Y-39531783D01*
X15930381Y-39551275D01*
X15880555Y-39575847D01*
X15794779Y-39604963D01*
X15710973Y-39638145D01*
X15653740Y-39652839D01*
X15595543Y-39672595D01*
X15512335Y-39689146D01*
X15431115Y-39710000D01*
X15366389Y-39718176D01*
X15300341Y-39731315D01*
X15221481Y-39736483D01*
X15144468Y-39746213D01*
X15073037Y-39746213D01*
X15000000Y-39751000D01*
X14926963Y-39746213D01*
X14855532Y-39746213D01*
X14778517Y-39736483D01*
X14699659Y-39731315D01*
X14633611Y-39718177D01*
X14568884Y-39710000D01*
X14487659Y-39689145D01*
X14404457Y-39672595D01*
X14346262Y-39652840D01*
X14289026Y-39638145D01*
X14205213Y-39604961D01*
X14119445Y-39575847D01*
X14069622Y-39551277D01*
X14020386Y-39531783D01*
X13935823Y-39485294D01*
X13849500Y-39442724D01*
X13808236Y-39415152D01*
X13767197Y-39392591D01*
X13683931Y-39332095D01*
X13599240Y-39275506D01*
X13566378Y-39246687D01*
X13533444Y-39222759D01*
X13453646Y-39147824D01*
X13372947Y-39077053D01*
X13348047Y-39048660D01*
X13322825Y-39024975D01*
X13248744Y-38935427D01*
X13174494Y-38850760D01*
X13156818Y-38824307D01*
X13138651Y-38802346D01*
X13072571Y-38698221D01*
X13007276Y-38600500D01*
X12995845Y-38577322D01*
X12983833Y-38558393D01*
X12928026Y-38439799D01*
X12874153Y-38330555D01*
X12867766Y-38311740D01*
X12860814Y-38296966D01*
X12817511Y-38163692D01*
X12777405Y-38045543D01*
X12774693Y-38031913D01*
X12771529Y-38022173D01*
X12742824Y-37871697D01*
X12718685Y-37750341D01*
X12718166Y-37742435D01*
X12717389Y-37738358D01*
X12705144Y-37543755D01*
X12699000Y-37450000D01*
X12705144Y-37356252D01*
X12717389Y-37161641D01*
X12718166Y-37157562D01*
X12718685Y-37149659D01*
X12742819Y-37028325D01*
X12771529Y-36877826D01*
X12774694Y-36868083D01*
X12777405Y-36854457D01*
X12817503Y-36736329D01*
X12860814Y-36603033D01*
X12867767Y-36588256D01*
X12874153Y-36569445D01*
X12928016Y-36460221D01*
X12983833Y-36341606D01*
X12995848Y-36322673D01*
X13007276Y-36299500D01*
X13072558Y-36201797D01*
X13138651Y-36097653D01*
X13156822Y-36075687D01*
X13174494Y-36049240D01*
X13248730Y-35964589D01*
X13322825Y-35875024D01*
X13348052Y-35851333D01*
X13372947Y-35822947D01*
X13453630Y-35752189D01*
X13533444Y-35677240D01*
X13566385Y-35653306D01*
X13599240Y-35624494D01*
X13683914Y-35567916D01*
X13767197Y-35507408D01*
X13808245Y-35484841D01*
X13849500Y-35457276D01*
X13935805Y-35414714D01*
X14020386Y-35368216D01*
X14069632Y-35348717D01*
X14119445Y-35324153D01*
X14205195Y-35295044D01*
X14289026Y-35261854D01*
X14346274Y-35247155D01*
X14404457Y-35227405D01*
X14487642Y-35210858D01*
X14568884Y-35189999D01*
X14633622Y-35181820D01*
X14699659Y-35168685D01*
X14778513Y-35163516D01*
X14855532Y-35153787D01*
X14926963Y-35153787D01*
X15000000Y-35149000D01*
X15073037Y-35153787D01*
G37*
G36*
X10818914Y-35581995D02*
G01*
X10834726Y-35588976D01*
X10842531Y-35590213D01*
X10875039Y-35606776D01*
X10920106Y-35626676D01*
X10998324Y-35704894D01*
X11018226Y-35749967D01*
X11034786Y-35782468D01*
X11036021Y-35790270D01*
X11043005Y-35806086D01*
X11051000Y-35875000D01*
X11051000Y-37225000D01*
X11043005Y-37293914D01*
X11036021Y-37309729D01*
X11034786Y-37317531D01*
X11018229Y-37350024D01*
X10998324Y-37395106D01*
X10920106Y-37473324D01*
X10875024Y-37493229D01*
X10842531Y-37509786D01*
X10834729Y-37511021D01*
X10818914Y-37518005D01*
X10750000Y-37526000D01*
X9550000Y-37526000D01*
X9481086Y-37518005D01*
X9465270Y-37511021D01*
X9457468Y-37509786D01*
X9424967Y-37493226D01*
X9379894Y-37473324D01*
X9301676Y-37395106D01*
X9281776Y-37350039D01*
X9265213Y-37317531D01*
X9263976Y-37309726D01*
X9256995Y-37293914D01*
X9249000Y-37225000D01*
X9249000Y-35875000D01*
X9256995Y-35806086D01*
X9263976Y-35790274D01*
X9265213Y-35782468D01*
X9281780Y-35749953D01*
X9301676Y-35704894D01*
X9379894Y-35626676D01*
X9424953Y-35606780D01*
X9457468Y-35590213D01*
X9465274Y-35588976D01*
X9481086Y-35581995D01*
X9550000Y-35574000D01*
X10750000Y-35574000D01*
X10818914Y-35581995D01*
G37*
G36*
X28018914Y-35581995D02*
G01*
X28034726Y-35588976D01*
X28042531Y-35590213D01*
X28075039Y-35606776D01*
X28120106Y-35626676D01*
X28198324Y-35704894D01*
X28218226Y-35749967D01*
X28234786Y-35782468D01*
X28236021Y-35790270D01*
X28243005Y-35806086D01*
X28251000Y-35875000D01*
X28251000Y-37225000D01*
X28243005Y-37293914D01*
X28236021Y-37309729D01*
X28234786Y-37317531D01*
X28218229Y-37350024D01*
X28198324Y-37395106D01*
X28120106Y-37473324D01*
X28075024Y-37493229D01*
X28042531Y-37509786D01*
X28034729Y-37511021D01*
X28018914Y-37518005D01*
X27950000Y-37526000D01*
X26750000Y-37526000D01*
X26681086Y-37518005D01*
X26665270Y-37511021D01*
X26657468Y-37509786D01*
X26624967Y-37493226D01*
X26579894Y-37473324D01*
X26501676Y-37395106D01*
X26481776Y-37350039D01*
X26465213Y-37317531D01*
X26463976Y-37309726D01*
X26456995Y-37293914D01*
X26449000Y-37225000D01*
X26449000Y-35875000D01*
X26456995Y-35806086D01*
X26463976Y-35790274D01*
X26465213Y-35782468D01*
X26481780Y-35749953D01*
X26501676Y-35704894D01*
X26579894Y-35626676D01*
X26624953Y-35606780D01*
X26657468Y-35590213D01*
X26665274Y-35588976D01*
X26681086Y-35581995D01*
X26750000Y-35574000D01*
X27950000Y-35574000D01*
X28018914Y-35581995D01*
G37*
G36*
X2693983Y-35578936D02*
G01*
X2744180Y-35578936D01*
X2787524Y-35588149D01*
X2825659Y-35591905D01*
X2873566Y-35606437D01*
X2928424Y-35618098D01*
X2963530Y-35633728D01*
X2994566Y-35643143D01*
X3043884Y-35669504D01*
X3100500Y-35694711D01*
X3126822Y-35713835D01*
X3150232Y-35726348D01*
X3197988Y-35765540D01*
X3252887Y-35805427D01*
X3270711Y-35825223D01*
X3286675Y-35838324D01*
X3329572Y-35890594D01*
X3378924Y-35945405D01*
X3389292Y-35963363D01*
X3398651Y-35974767D01*
X3433273Y-36039542D01*
X3473104Y-36108530D01*
X3477685Y-36122630D01*
X3481856Y-36130433D01*
X3504852Y-36206242D01*
X3531311Y-36287672D01*
X3532242Y-36296532D01*
X3533094Y-36299340D01*
X3541387Y-36383539D01*
X3551000Y-36475000D01*
X3551000Y-36625000D01*
X3541385Y-36716475D01*
X3533094Y-36800659D01*
X3532242Y-36803466D01*
X3531311Y-36812328D01*
X3504848Y-36893771D01*
X3481856Y-36969566D01*
X3477686Y-36977366D01*
X3473104Y-36991470D01*
X3433266Y-37060470D01*
X3398651Y-37125232D01*
X3389294Y-37136633D01*
X3378924Y-37154595D01*
X3329563Y-37209415D01*
X3286675Y-37261675D01*
X3270714Y-37274773D01*
X3252887Y-37294573D01*
X3197977Y-37334467D01*
X3150232Y-37373651D01*
X3126827Y-37386161D01*
X3100500Y-37405289D01*
X3043873Y-37430500D01*
X2994566Y-37456856D01*
X2963537Y-37466268D01*
X2928424Y-37481902D01*
X2873555Y-37493564D01*
X2825659Y-37508094D01*
X2787532Y-37511849D01*
X2744180Y-37521064D01*
X2693973Y-37521064D01*
X2650000Y-37525395D01*
X2606027Y-37521064D01*
X2555820Y-37521064D01*
X2512467Y-37511849D01*
X2474340Y-37508094D01*
X2426441Y-37493563D01*
X2371576Y-37481902D01*
X2336464Y-37466269D01*
X2305433Y-37456856D01*
X2256120Y-37430498D01*
X2199500Y-37405289D01*
X2173175Y-37386163D01*
X2149767Y-37373651D01*
X2102013Y-37334460D01*
X2047113Y-37294573D01*
X2029287Y-37274776D01*
X2013324Y-37261675D01*
X1970425Y-37209402D01*
X1921076Y-37154595D01*
X1910708Y-37136637D01*
X1901348Y-37125232D01*
X1866719Y-37060447D01*
X1826896Y-36991470D01*
X1822315Y-36977371D01*
X1818143Y-36969566D01*
X1795136Y-36893725D01*
X1768689Y-36812328D01*
X1767758Y-36803471D01*
X1766905Y-36800659D01*
X1758605Y-36716394D01*
X1749000Y-36625000D01*
X1749000Y-36475000D01*
X1758604Y-36383620D01*
X1766905Y-36299340D01*
X1767758Y-36296527D01*
X1768689Y-36287672D01*
X1795132Y-36206288D01*
X1818143Y-36130433D01*
X1822315Y-36122626D01*
X1826896Y-36108530D01*
X1866712Y-36039565D01*
X1901348Y-35974767D01*
X1910710Y-35963359D01*
X1921076Y-35945405D01*
X1970416Y-35890607D01*
X2013324Y-35838324D01*
X2029291Y-35825219D01*
X2047113Y-35805427D01*
X2102002Y-35765546D01*
X2149767Y-35726348D01*
X2173180Y-35713833D01*
X2199500Y-35694711D01*
X2256109Y-35669506D01*
X2305433Y-35643143D01*
X2336471Y-35633727D01*
X2371576Y-35618098D01*
X2426430Y-35606438D01*
X2474340Y-35591905D01*
X2512476Y-35588148D01*
X2555820Y-35578936D01*
X2606016Y-35578936D01*
X2649999Y-35574604D01*
X2693983Y-35578936D01*
G37*
G36*
X5193983Y-35578936D02*
G01*
X5244180Y-35578936D01*
X5287524Y-35588149D01*
X5325659Y-35591905D01*
X5373566Y-35606437D01*
X5428424Y-35618098D01*
X5463530Y-35633728D01*
X5494566Y-35643143D01*
X5543884Y-35669504D01*
X5600500Y-35694711D01*
X5626822Y-35713835D01*
X5650232Y-35726348D01*
X5697988Y-35765540D01*
X5752887Y-35805427D01*
X5770711Y-35825223D01*
X5786675Y-35838324D01*
X5829572Y-35890594D01*
X5878924Y-35945405D01*
X5889292Y-35963363D01*
X5898651Y-35974767D01*
X5933273Y-36039542D01*
X5973104Y-36108530D01*
X5977685Y-36122630D01*
X5981856Y-36130433D01*
X6004852Y-36206242D01*
X6031311Y-36287672D01*
X6032242Y-36296532D01*
X6033094Y-36299340D01*
X6041387Y-36383539D01*
X6051000Y-36475000D01*
X6051000Y-36625000D01*
X6041385Y-36716475D01*
X6033094Y-36800659D01*
X6032242Y-36803466D01*
X6031311Y-36812328D01*
X6004848Y-36893771D01*
X5981856Y-36969566D01*
X5977686Y-36977366D01*
X5973104Y-36991470D01*
X5933266Y-37060470D01*
X5898651Y-37125232D01*
X5889294Y-37136633D01*
X5878924Y-37154595D01*
X5829563Y-37209415D01*
X5786675Y-37261675D01*
X5770714Y-37274773D01*
X5752887Y-37294573D01*
X5697977Y-37334467D01*
X5650232Y-37373651D01*
X5626827Y-37386161D01*
X5600500Y-37405289D01*
X5543873Y-37430500D01*
X5494566Y-37456856D01*
X5463537Y-37466268D01*
X5428424Y-37481902D01*
X5373555Y-37493564D01*
X5325659Y-37508094D01*
X5287533Y-37511849D01*
X5244180Y-37521064D01*
X5193972Y-37521064D01*
X5149999Y-37525395D01*
X5106026Y-37521064D01*
X5055820Y-37521064D01*
X5012467Y-37511849D01*
X4974340Y-37508094D01*
X4926441Y-37493563D01*
X4871576Y-37481902D01*
X4836464Y-37466269D01*
X4805433Y-37456856D01*
X4756120Y-37430498D01*
X4699500Y-37405289D01*
X4673175Y-37386163D01*
X4649767Y-37373651D01*
X4602013Y-37334460D01*
X4547113Y-37294573D01*
X4529287Y-37274776D01*
X4513324Y-37261675D01*
X4470425Y-37209402D01*
X4421076Y-37154595D01*
X4410708Y-37136637D01*
X4401348Y-37125232D01*
X4366719Y-37060447D01*
X4326896Y-36991470D01*
X4322315Y-36977371D01*
X4318143Y-36969566D01*
X4295136Y-36893725D01*
X4268689Y-36812328D01*
X4267758Y-36803471D01*
X4266905Y-36800659D01*
X4258605Y-36716394D01*
X4249000Y-36625000D01*
X4249000Y-36475000D01*
X4258604Y-36383620D01*
X4266905Y-36299340D01*
X4267758Y-36296527D01*
X4268689Y-36287672D01*
X4295132Y-36206288D01*
X4318143Y-36130433D01*
X4322315Y-36122626D01*
X4326896Y-36108530D01*
X4366712Y-36039565D01*
X4401348Y-35974767D01*
X4410710Y-35963359D01*
X4421076Y-35945405D01*
X4470416Y-35890607D01*
X4513324Y-35838324D01*
X4529291Y-35825219D01*
X4547113Y-35805427D01*
X4602002Y-35765546D01*
X4649767Y-35726348D01*
X4673180Y-35713833D01*
X4699500Y-35694711D01*
X4756109Y-35669506D01*
X4805433Y-35643143D01*
X4836471Y-35633727D01*
X4871576Y-35618098D01*
X4926430Y-35606438D01*
X4974340Y-35591905D01*
X5012476Y-35588148D01*
X5055820Y-35578936D01*
X5106016Y-35578936D01*
X5150000Y-35574604D01*
X5193983Y-35578936D01*
G37*
G36*
X7693983Y-35578936D02*
G01*
X7744180Y-35578936D01*
X7787524Y-35588149D01*
X7825659Y-35591905D01*
X7873566Y-35606437D01*
X7928424Y-35618098D01*
X7963530Y-35633728D01*
X7994566Y-35643143D01*
X8043884Y-35669504D01*
X8100500Y-35694711D01*
X8126822Y-35713835D01*
X8150232Y-35726348D01*
X8197988Y-35765540D01*
X8252887Y-35805427D01*
X8270711Y-35825223D01*
X8286675Y-35838324D01*
X8329572Y-35890594D01*
X8378924Y-35945405D01*
X8389292Y-35963363D01*
X8398651Y-35974767D01*
X8433273Y-36039542D01*
X8473104Y-36108530D01*
X8477685Y-36122630D01*
X8481856Y-36130433D01*
X8504852Y-36206242D01*
X8531311Y-36287672D01*
X8532242Y-36296532D01*
X8533094Y-36299340D01*
X8541387Y-36383539D01*
X8551000Y-36475000D01*
X8551000Y-36625000D01*
X8541385Y-36716475D01*
X8533094Y-36800659D01*
X8532242Y-36803466D01*
X8531311Y-36812328D01*
X8504848Y-36893771D01*
X8481856Y-36969566D01*
X8477686Y-36977366D01*
X8473104Y-36991470D01*
X8433266Y-37060470D01*
X8398651Y-37125232D01*
X8389294Y-37136633D01*
X8378924Y-37154595D01*
X8329563Y-37209415D01*
X8286675Y-37261675D01*
X8270714Y-37274773D01*
X8252887Y-37294573D01*
X8197977Y-37334467D01*
X8150232Y-37373651D01*
X8126827Y-37386161D01*
X8100500Y-37405289D01*
X8043873Y-37430500D01*
X7994566Y-37456856D01*
X7963537Y-37466268D01*
X7928424Y-37481902D01*
X7873555Y-37493564D01*
X7825659Y-37508094D01*
X7787532Y-37511849D01*
X7744180Y-37521064D01*
X7693973Y-37521064D01*
X7650000Y-37525395D01*
X7606027Y-37521064D01*
X7555820Y-37521064D01*
X7512467Y-37511849D01*
X7474340Y-37508094D01*
X7426441Y-37493563D01*
X7371576Y-37481902D01*
X7336464Y-37466269D01*
X7305433Y-37456856D01*
X7256120Y-37430498D01*
X7199500Y-37405289D01*
X7173175Y-37386163D01*
X7149767Y-37373651D01*
X7102013Y-37334460D01*
X7047113Y-37294573D01*
X7029287Y-37274776D01*
X7013324Y-37261675D01*
X6970425Y-37209402D01*
X6921076Y-37154595D01*
X6910708Y-37136637D01*
X6901348Y-37125232D01*
X6866719Y-37060447D01*
X6826896Y-36991470D01*
X6822315Y-36977371D01*
X6818143Y-36969566D01*
X6795136Y-36893725D01*
X6768689Y-36812328D01*
X6767758Y-36803471D01*
X6766905Y-36800659D01*
X6758605Y-36716394D01*
X6749000Y-36625000D01*
X6749000Y-36475000D01*
X6758604Y-36383620D01*
X6766905Y-36299340D01*
X6767758Y-36296527D01*
X6768689Y-36287672D01*
X6795132Y-36206288D01*
X6818143Y-36130433D01*
X6822315Y-36122626D01*
X6826896Y-36108530D01*
X6866712Y-36039565D01*
X6901348Y-35974767D01*
X6910710Y-35963359D01*
X6921076Y-35945405D01*
X6970416Y-35890607D01*
X7013324Y-35838324D01*
X7029291Y-35825219D01*
X7047113Y-35805427D01*
X7102002Y-35765546D01*
X7149767Y-35726348D01*
X7173180Y-35713833D01*
X7199500Y-35694711D01*
X7256109Y-35669506D01*
X7305433Y-35643143D01*
X7336471Y-35633727D01*
X7371576Y-35618098D01*
X7426430Y-35606438D01*
X7474340Y-35591905D01*
X7512476Y-35588148D01*
X7555820Y-35578936D01*
X7606016Y-35578936D01*
X7649999Y-35574604D01*
X7693983Y-35578936D01*
G37*
G36*
X19893983Y-35578936D02*
G01*
X19944180Y-35578936D01*
X19987524Y-35588149D01*
X20025659Y-35591905D01*
X20073566Y-35606437D01*
X20128424Y-35618098D01*
X20163530Y-35633728D01*
X20194566Y-35643143D01*
X20243884Y-35669504D01*
X20300500Y-35694711D01*
X20326822Y-35713835D01*
X20350232Y-35726348D01*
X20397988Y-35765540D01*
X20452887Y-35805427D01*
X20470711Y-35825223D01*
X20486675Y-35838324D01*
X20529572Y-35890594D01*
X20578924Y-35945405D01*
X20589292Y-35963363D01*
X20598651Y-35974767D01*
X20633273Y-36039542D01*
X20673104Y-36108530D01*
X20677685Y-36122630D01*
X20681856Y-36130433D01*
X20704852Y-36206242D01*
X20731311Y-36287672D01*
X20732242Y-36296532D01*
X20733094Y-36299340D01*
X20741387Y-36383539D01*
X20751000Y-36475000D01*
X20751000Y-36625000D01*
X20741385Y-36716475D01*
X20733094Y-36800659D01*
X20732242Y-36803466D01*
X20731311Y-36812328D01*
X20704848Y-36893771D01*
X20681856Y-36969566D01*
X20677686Y-36977366D01*
X20673104Y-36991470D01*
X20633266Y-37060470D01*
X20598651Y-37125232D01*
X20589294Y-37136633D01*
X20578924Y-37154595D01*
X20529563Y-37209415D01*
X20486675Y-37261675D01*
X20470714Y-37274773D01*
X20452887Y-37294573D01*
X20397977Y-37334467D01*
X20350232Y-37373651D01*
X20326827Y-37386161D01*
X20300500Y-37405289D01*
X20243873Y-37430500D01*
X20194566Y-37456856D01*
X20163537Y-37466268D01*
X20128424Y-37481902D01*
X20073555Y-37493564D01*
X20025659Y-37508094D01*
X19987532Y-37511849D01*
X19944180Y-37521064D01*
X19893973Y-37521064D01*
X19850000Y-37525395D01*
X19806027Y-37521064D01*
X19755820Y-37521064D01*
X19712467Y-37511849D01*
X19674340Y-37508094D01*
X19626441Y-37493563D01*
X19571576Y-37481902D01*
X19536464Y-37466269D01*
X19505433Y-37456856D01*
X19456120Y-37430498D01*
X19399500Y-37405289D01*
X19373175Y-37386163D01*
X19349767Y-37373651D01*
X19302013Y-37334460D01*
X19247113Y-37294573D01*
X19229287Y-37274776D01*
X19213324Y-37261675D01*
X19170425Y-37209402D01*
X19121076Y-37154595D01*
X19110708Y-37136637D01*
X19101348Y-37125232D01*
X19066719Y-37060447D01*
X19026896Y-36991470D01*
X19022315Y-36977371D01*
X19018143Y-36969566D01*
X18995136Y-36893725D01*
X18968689Y-36812328D01*
X18967758Y-36803471D01*
X18966905Y-36800659D01*
X18958605Y-36716394D01*
X18949000Y-36625000D01*
X18949000Y-36475000D01*
X18958604Y-36383620D01*
X18966905Y-36299340D01*
X18967758Y-36296527D01*
X18968689Y-36287672D01*
X18995132Y-36206288D01*
X19018143Y-36130433D01*
X19022315Y-36122626D01*
X19026896Y-36108530D01*
X19066712Y-36039565D01*
X19101348Y-35974767D01*
X19110710Y-35963359D01*
X19121076Y-35945405D01*
X19170416Y-35890607D01*
X19213324Y-35838324D01*
X19229291Y-35825219D01*
X19247113Y-35805427D01*
X19302002Y-35765546D01*
X19349767Y-35726348D01*
X19373180Y-35713833D01*
X19399500Y-35694711D01*
X19456109Y-35669506D01*
X19505433Y-35643143D01*
X19536471Y-35633727D01*
X19571576Y-35618098D01*
X19626430Y-35606438D01*
X19674340Y-35591905D01*
X19712476Y-35588148D01*
X19755820Y-35578936D01*
X19806016Y-35578936D01*
X19849999Y-35574604D01*
X19893983Y-35578936D01*
G37*
G36*
X22393983Y-35578936D02*
G01*
X22444180Y-35578936D01*
X22487524Y-35588149D01*
X22525659Y-35591905D01*
X22573566Y-35606437D01*
X22628424Y-35618098D01*
X22663530Y-35633728D01*
X22694566Y-35643143D01*
X22743884Y-35669504D01*
X22800500Y-35694711D01*
X22826822Y-35713835D01*
X22850232Y-35726348D01*
X22897988Y-35765540D01*
X22952887Y-35805427D01*
X22970711Y-35825223D01*
X22986675Y-35838324D01*
X23029572Y-35890594D01*
X23078924Y-35945405D01*
X23089292Y-35963363D01*
X23098651Y-35974767D01*
X23133273Y-36039542D01*
X23173104Y-36108530D01*
X23177685Y-36122630D01*
X23181856Y-36130433D01*
X23204852Y-36206242D01*
X23231311Y-36287672D01*
X23232242Y-36296532D01*
X23233094Y-36299340D01*
X23241387Y-36383539D01*
X23251000Y-36475000D01*
X23251000Y-36625000D01*
X23241385Y-36716475D01*
X23233094Y-36800659D01*
X23232242Y-36803466D01*
X23231311Y-36812328D01*
X23204848Y-36893771D01*
X23181856Y-36969566D01*
X23177686Y-36977366D01*
X23173104Y-36991470D01*
X23133266Y-37060470D01*
X23098651Y-37125232D01*
X23089294Y-37136633D01*
X23078924Y-37154595D01*
X23029563Y-37209415D01*
X22986675Y-37261675D01*
X22970714Y-37274773D01*
X22952887Y-37294573D01*
X22897977Y-37334467D01*
X22850232Y-37373651D01*
X22826827Y-37386161D01*
X22800500Y-37405289D01*
X22743873Y-37430500D01*
X22694566Y-37456856D01*
X22663537Y-37466268D01*
X22628424Y-37481902D01*
X22573555Y-37493564D01*
X22525659Y-37508094D01*
X22487533Y-37511849D01*
X22444180Y-37521064D01*
X22393972Y-37521064D01*
X22349999Y-37525395D01*
X22306026Y-37521064D01*
X22255820Y-37521064D01*
X22212467Y-37511849D01*
X22174340Y-37508094D01*
X22126441Y-37493563D01*
X22071576Y-37481902D01*
X22036464Y-37466269D01*
X22005433Y-37456856D01*
X21956120Y-37430498D01*
X21899500Y-37405289D01*
X21873175Y-37386163D01*
X21849767Y-37373651D01*
X21802013Y-37334460D01*
X21747113Y-37294573D01*
X21729287Y-37274776D01*
X21713324Y-37261675D01*
X21670425Y-37209402D01*
X21621076Y-37154595D01*
X21610708Y-37136637D01*
X21601348Y-37125232D01*
X21566719Y-37060447D01*
X21526896Y-36991470D01*
X21522315Y-36977371D01*
X21518143Y-36969566D01*
X21495136Y-36893725D01*
X21468689Y-36812328D01*
X21467758Y-36803471D01*
X21466905Y-36800659D01*
X21458605Y-36716394D01*
X21449000Y-36625000D01*
X21449000Y-36475000D01*
X21458604Y-36383620D01*
X21466905Y-36299340D01*
X21467758Y-36296527D01*
X21468689Y-36287672D01*
X21495132Y-36206288D01*
X21518143Y-36130433D01*
X21522315Y-36122626D01*
X21526896Y-36108530D01*
X21566712Y-36039565D01*
X21601348Y-35974767D01*
X21610710Y-35963359D01*
X21621076Y-35945405D01*
X21670416Y-35890607D01*
X21713324Y-35838324D01*
X21729291Y-35825219D01*
X21747113Y-35805427D01*
X21802002Y-35765546D01*
X21849767Y-35726348D01*
X21873180Y-35713833D01*
X21899500Y-35694711D01*
X21956109Y-35669506D01*
X22005433Y-35643143D01*
X22036471Y-35633727D01*
X22071576Y-35618098D01*
X22126430Y-35606438D01*
X22174340Y-35591905D01*
X22212476Y-35588148D01*
X22255820Y-35578936D01*
X22306016Y-35578936D01*
X22350000Y-35574604D01*
X22393983Y-35578936D01*
G37*
G36*
X24893983Y-35578936D02*
G01*
X24944180Y-35578936D01*
X24987524Y-35588149D01*
X25025659Y-35591905D01*
X25073566Y-35606437D01*
X25128424Y-35618098D01*
X25163530Y-35633728D01*
X25194566Y-35643143D01*
X25243884Y-35669504D01*
X25300500Y-35694711D01*
X25326822Y-35713835D01*
X25350232Y-35726348D01*
X25397988Y-35765540D01*
X25452887Y-35805427D01*
X25470711Y-35825223D01*
X25486675Y-35838324D01*
X25529572Y-35890594D01*
X25578924Y-35945405D01*
X25589292Y-35963363D01*
X25598651Y-35974767D01*
X25633273Y-36039542D01*
X25673104Y-36108530D01*
X25677685Y-36122630D01*
X25681856Y-36130433D01*
X25704852Y-36206242D01*
X25731311Y-36287672D01*
X25732242Y-36296532D01*
X25733094Y-36299340D01*
X25741387Y-36383539D01*
X25751000Y-36475000D01*
X25751000Y-36625000D01*
X25741385Y-36716475D01*
X25733094Y-36800659D01*
X25732242Y-36803466D01*
X25731311Y-36812328D01*
X25704848Y-36893771D01*
X25681856Y-36969566D01*
X25677686Y-36977366D01*
X25673104Y-36991470D01*
X25633266Y-37060470D01*
X25598651Y-37125232D01*
X25589294Y-37136633D01*
X25578924Y-37154595D01*
X25529563Y-37209415D01*
X25486675Y-37261675D01*
X25470714Y-37274773D01*
X25452887Y-37294573D01*
X25397977Y-37334467D01*
X25350232Y-37373651D01*
X25326827Y-37386161D01*
X25300500Y-37405289D01*
X25243873Y-37430500D01*
X25194566Y-37456856D01*
X25163537Y-37466268D01*
X25128424Y-37481902D01*
X25073555Y-37493564D01*
X25025659Y-37508094D01*
X24987532Y-37511849D01*
X24944180Y-37521064D01*
X24893973Y-37521064D01*
X24850000Y-37525395D01*
X24806027Y-37521064D01*
X24755820Y-37521064D01*
X24712467Y-37511849D01*
X24674340Y-37508094D01*
X24626441Y-37493563D01*
X24571576Y-37481902D01*
X24536464Y-37466269D01*
X24505433Y-37456856D01*
X24456120Y-37430498D01*
X24399500Y-37405289D01*
X24373175Y-37386163D01*
X24349767Y-37373651D01*
X24302013Y-37334460D01*
X24247113Y-37294573D01*
X24229287Y-37274776D01*
X24213324Y-37261675D01*
X24170425Y-37209402D01*
X24121076Y-37154595D01*
X24110708Y-37136637D01*
X24101348Y-37125232D01*
X24066719Y-37060447D01*
X24026896Y-36991470D01*
X24022315Y-36977371D01*
X24018143Y-36969566D01*
X23995136Y-36893725D01*
X23968689Y-36812328D01*
X23967758Y-36803471D01*
X23966905Y-36800659D01*
X23958605Y-36716394D01*
X23949000Y-36625000D01*
X23949000Y-36475000D01*
X23958604Y-36383620D01*
X23966905Y-36299340D01*
X23967758Y-36296527D01*
X23968689Y-36287672D01*
X23995132Y-36206288D01*
X24018143Y-36130433D01*
X24022315Y-36122626D01*
X24026896Y-36108530D01*
X24066712Y-36039565D01*
X24101348Y-35974767D01*
X24110710Y-35963359D01*
X24121076Y-35945405D01*
X24170416Y-35890607D01*
X24213324Y-35838324D01*
X24229291Y-35825219D01*
X24247113Y-35805427D01*
X24302002Y-35765546D01*
X24349767Y-35726348D01*
X24373180Y-35713833D01*
X24399500Y-35694711D01*
X24456109Y-35669506D01*
X24505433Y-35643143D01*
X24536471Y-35633727D01*
X24571576Y-35618098D01*
X24626430Y-35606438D01*
X24674340Y-35591905D01*
X24712476Y-35588148D01*
X24755820Y-35578936D01*
X24806016Y-35578936D01*
X24849999Y-35574604D01*
X24893983Y-35578936D01*
G37*
G36*
X5007608Y-32251920D02*
G01*
X5023259Y-32258830D01*
X5031672Y-32260163D01*
X5066707Y-32278014D01*
X5110553Y-32297374D01*
X5190126Y-32376947D01*
X5209488Y-32420799D01*
X5227336Y-32455827D01*
X5228668Y-32464237D01*
X5235580Y-32479892D01*
X5238500Y-32505060D01*
X5238500Y-33494940D01*
X5235580Y-33520108D01*
X5228667Y-33535762D01*
X5227336Y-33544172D01*
X5209491Y-33579192D01*
X5190126Y-33623053D01*
X5110553Y-33702626D01*
X5066692Y-33721991D01*
X5031672Y-33739836D01*
X5023262Y-33741167D01*
X5007608Y-33748080D01*
X4982440Y-33751000D01*
X4367560Y-33751000D01*
X4342392Y-33748080D01*
X4326737Y-33741168D01*
X4318327Y-33739836D01*
X4283299Y-33721988D01*
X4239447Y-33702626D01*
X4159874Y-33623053D01*
X4140514Y-33579207D01*
X4122663Y-33544172D01*
X4121330Y-33535759D01*
X4114420Y-33520108D01*
X4111500Y-33494940D01*
X4111500Y-32505060D01*
X4114420Y-32479892D01*
X4121330Y-32464241D01*
X4122663Y-32455827D01*
X4140517Y-32420784D01*
X4159874Y-32376947D01*
X4239447Y-32297374D01*
X4283284Y-32278017D01*
X4318327Y-32260163D01*
X4326741Y-32258830D01*
X4342392Y-32251920D01*
X4367560Y-32249000D01*
X4982440Y-32249000D01*
X5007608Y-32251920D01*
G37*
G36*
X6832608Y-32251920D02*
G01*
X6848259Y-32258830D01*
X6856672Y-32260163D01*
X6891707Y-32278014D01*
X6935553Y-32297374D01*
X7015126Y-32376947D01*
X7034488Y-32420799D01*
X7052336Y-32455827D01*
X7053668Y-32464237D01*
X7060580Y-32479892D01*
X7063500Y-32505060D01*
X7063500Y-33494940D01*
X7060580Y-33520108D01*
X7053667Y-33535762D01*
X7052336Y-33544172D01*
X7034491Y-33579192D01*
X7015126Y-33623053D01*
X6935553Y-33702626D01*
X6891692Y-33721991D01*
X6856672Y-33739836D01*
X6848262Y-33741167D01*
X6832608Y-33748080D01*
X6807440Y-33751000D01*
X6192560Y-33751000D01*
X6167392Y-33748080D01*
X6151737Y-33741168D01*
X6143327Y-33739836D01*
X6108299Y-33721988D01*
X6064447Y-33702626D01*
X5984874Y-33623053D01*
X5965514Y-33579207D01*
X5947663Y-33544172D01*
X5946330Y-33535759D01*
X5939420Y-33520108D01*
X5936500Y-33494940D01*
X5936500Y-32505060D01*
X5939420Y-32479892D01*
X5946330Y-32464241D01*
X5947663Y-32455827D01*
X5965517Y-32420784D01*
X5984874Y-32376947D01*
X6064447Y-32297374D01*
X6108284Y-32278017D01*
X6143327Y-32260163D01*
X6151741Y-32258830D01*
X6167392Y-32251920D01*
X6192560Y-32249000D01*
X6807440Y-32249000D01*
X6832608Y-32251920D01*
G37*
G36*
X2020108Y-30526920D02*
G01*
X2035759Y-30533830D01*
X2044172Y-30535163D01*
X2079207Y-30553014D01*
X2123053Y-30572374D01*
X2202626Y-30651947D01*
X2221988Y-30695799D01*
X2239836Y-30730827D01*
X2241168Y-30739237D01*
X2248080Y-30754892D01*
X2251000Y-30780060D01*
X2251000Y-31394940D01*
X2248080Y-31420108D01*
X2241167Y-31435762D01*
X2239836Y-31444172D01*
X2221991Y-31479192D01*
X2202626Y-31523053D01*
X2123053Y-31602626D01*
X2079192Y-31621991D01*
X2044172Y-31639836D01*
X2035762Y-31641167D01*
X2020108Y-31648080D01*
X1994940Y-31651000D01*
X1005060Y-31651000D01*
X979892Y-31648080D01*
X964237Y-31641168D01*
X955827Y-31639836D01*
X920799Y-31621988D01*
X876947Y-31602626D01*
X797374Y-31523053D01*
X778014Y-31479207D01*
X760163Y-31444172D01*
X758830Y-31435759D01*
X751920Y-31420108D01*
X749000Y-31394940D01*
X749000Y-30780060D01*
X751920Y-30754892D01*
X758830Y-30739241D01*
X760163Y-30730827D01*
X778017Y-30695784D01*
X797374Y-30651947D01*
X876947Y-30572374D01*
X920784Y-30553017D01*
X955827Y-30535163D01*
X964241Y-30533830D01*
X979892Y-30526920D01*
X1005060Y-30524000D01*
X1994940Y-30524000D01*
X2020108Y-30526920D01*
G37*
G36*
X21793914Y-30906995D02*
G01*
X21809726Y-30913976D01*
X21817531Y-30915213D01*
X21850039Y-30931776D01*
X21895106Y-30951676D01*
X21973324Y-31029894D01*
X21993226Y-31074967D01*
X22009786Y-31107468D01*
X22011021Y-31115270D01*
X22018005Y-31131086D01*
X22026000Y-31200000D01*
X22026000Y-31700000D01*
X22018005Y-31768914D01*
X22011021Y-31784729D01*
X22009786Y-31792531D01*
X21993229Y-31825024D01*
X21973324Y-31870106D01*
X21895106Y-31948324D01*
X21850024Y-31968229D01*
X21817531Y-31984786D01*
X21809729Y-31986021D01*
X21793914Y-31993005D01*
X21725000Y-32001000D01*
X20775000Y-32001000D01*
X20706086Y-31993005D01*
X20690270Y-31986021D01*
X20682468Y-31984786D01*
X20649967Y-31968226D01*
X20604894Y-31948324D01*
X20526676Y-31870106D01*
X20506776Y-31825039D01*
X20490213Y-31792531D01*
X20488976Y-31784726D01*
X20481995Y-31768914D01*
X20474000Y-31700000D01*
X20474000Y-31200000D01*
X20481995Y-31131086D01*
X20488976Y-31115274D01*
X20490213Y-31107468D01*
X20506780Y-31074953D01*
X20526676Y-31029894D01*
X20604894Y-30951676D01*
X20649953Y-30931780D01*
X20682468Y-30915213D01*
X20690274Y-30913976D01*
X20706086Y-30906995D01*
X20775000Y-30899000D01*
X21725000Y-30899000D01*
X21793914Y-30906995D01*
G37*
G36*
X24511040Y-31452190D02*
G01*
X24543987Y-31456528D01*
X24552274Y-31460392D01*
X24571919Y-31464300D01*
X24597938Y-31481686D01*
X24609180Y-31486928D01*
X24616019Y-31493767D01*
X24637128Y-31507872D01*
X24651232Y-31528980D01*
X24658071Y-31535819D01*
X24663312Y-31547058D01*
X24680700Y-31573081D01*
X24684607Y-31592727D01*
X24688471Y-31601012D01*
X24692806Y-31633946D01*
X24696000Y-31650000D01*
X24696000Y-33300000D01*
X24692806Y-33316054D01*
X24688471Y-33348987D01*
X24684608Y-33357270D01*
X24680700Y-33376919D01*
X24663310Y-33402943D01*
X24658071Y-33414180D01*
X24651234Y-33421016D01*
X24637128Y-33442128D01*
X24616016Y-33456234D01*
X24609180Y-33463071D01*
X24597943Y-33468310D01*
X24571919Y-33485700D01*
X24552270Y-33489608D01*
X24543987Y-33493471D01*
X24511054Y-33497806D01*
X24495000Y-33501000D01*
X24195000Y-33501000D01*
X24178946Y-33497806D01*
X24146012Y-33493471D01*
X24137727Y-33489607D01*
X24118081Y-33485700D01*
X24092058Y-33468312D01*
X24080819Y-33463071D01*
X24073980Y-33456232D01*
X24052872Y-33442128D01*
X24038767Y-33421019D01*
X24031928Y-33414180D01*
X24026686Y-33402938D01*
X24009300Y-33376919D01*
X24005392Y-33357274D01*
X24001528Y-33348987D01*
X23997190Y-33316040D01*
X23994000Y-33300000D01*
X23994000Y-31650000D01*
X23997190Y-31633961D01*
X24001528Y-31601012D01*
X24005392Y-31592723D01*
X24009300Y-31573081D01*
X24026684Y-31547063D01*
X24031928Y-31535819D01*
X24038769Y-31528977D01*
X24052872Y-31507872D01*
X24073977Y-31493769D01*
X24080819Y-31486928D01*
X24092063Y-31481684D01*
X24118081Y-31464300D01*
X24137723Y-31460392D01*
X24146012Y-31456528D01*
X24178961Y-31452190D01*
X24195000Y-31449000D01*
X24495000Y-31449000D01*
X24511040Y-31452190D01*
G37*
G36*
X25781040Y-31452190D02*
G01*
X25813987Y-31456528D01*
X25822274Y-31460392D01*
X25841919Y-31464300D01*
X25867938Y-31481686D01*
X25879180Y-31486928D01*
X25886019Y-31493767D01*
X25907128Y-31507872D01*
X25921232Y-31528980D01*
X25928071Y-31535819D01*
X25933312Y-31547058D01*
X25950700Y-31573081D01*
X25954607Y-31592727D01*
X25958471Y-31601012D01*
X25962806Y-31633946D01*
X25966000Y-31650000D01*
X25966000Y-33300000D01*
X25962806Y-33316054D01*
X25958471Y-33348987D01*
X25954608Y-33357270D01*
X25950700Y-33376919D01*
X25933310Y-33402943D01*
X25928071Y-33414180D01*
X25921234Y-33421016D01*
X25907128Y-33442128D01*
X25886016Y-33456234D01*
X25879180Y-33463071D01*
X25867943Y-33468310D01*
X25841919Y-33485700D01*
X25822270Y-33489608D01*
X25813987Y-33493471D01*
X25781054Y-33497806D01*
X25765000Y-33501000D01*
X25465000Y-33501000D01*
X25448946Y-33497806D01*
X25416012Y-33493471D01*
X25407727Y-33489607D01*
X25388081Y-33485700D01*
X25362058Y-33468312D01*
X25350819Y-33463071D01*
X25343980Y-33456232D01*
X25322872Y-33442128D01*
X25308767Y-33421019D01*
X25301928Y-33414180D01*
X25296686Y-33402938D01*
X25279300Y-33376919D01*
X25275392Y-33357274D01*
X25271528Y-33348987D01*
X25267190Y-33316040D01*
X25264000Y-33300000D01*
X25264000Y-31650000D01*
X25267190Y-31633961D01*
X25271528Y-31601012D01*
X25275392Y-31592723D01*
X25279300Y-31573081D01*
X25296684Y-31547063D01*
X25301928Y-31535819D01*
X25308769Y-31528977D01*
X25322872Y-31507872D01*
X25343977Y-31493769D01*
X25350819Y-31486928D01*
X25362063Y-31481684D01*
X25388081Y-31464300D01*
X25407723Y-31460392D01*
X25416012Y-31456528D01*
X25448961Y-31452190D01*
X25465000Y-31449000D01*
X25765000Y-31449000D01*
X25781040Y-31452190D01*
G37*
G36*
X27051040Y-31452190D02*
G01*
X27083987Y-31456528D01*
X27092274Y-31460392D01*
X27111919Y-31464300D01*
X27137938Y-31481686D01*
X27149180Y-31486928D01*
X27156019Y-31493767D01*
X27177128Y-31507872D01*
X27191232Y-31528980D01*
X27198071Y-31535819D01*
X27203312Y-31547058D01*
X27220700Y-31573081D01*
X27224607Y-31592727D01*
X27228471Y-31601012D01*
X27232806Y-31633946D01*
X27236000Y-31650000D01*
X27236000Y-33300000D01*
X27232806Y-33316054D01*
X27228471Y-33348987D01*
X27224608Y-33357270D01*
X27220700Y-33376919D01*
X27203310Y-33402943D01*
X27198071Y-33414180D01*
X27191234Y-33421016D01*
X27177128Y-33442128D01*
X27156016Y-33456234D01*
X27149180Y-33463071D01*
X27137943Y-33468310D01*
X27111919Y-33485700D01*
X27092270Y-33489608D01*
X27083987Y-33493471D01*
X27051054Y-33497806D01*
X27035000Y-33501000D01*
X26735000Y-33501000D01*
X26718946Y-33497806D01*
X26686012Y-33493471D01*
X26677727Y-33489607D01*
X26658081Y-33485700D01*
X26632058Y-33468312D01*
X26620819Y-33463071D01*
X26613980Y-33456232D01*
X26592872Y-33442128D01*
X26578767Y-33421019D01*
X26571928Y-33414180D01*
X26566686Y-33402938D01*
X26549300Y-33376919D01*
X26545392Y-33357274D01*
X26541528Y-33348987D01*
X26537190Y-33316040D01*
X26534000Y-33300000D01*
X26534000Y-31650000D01*
X26537190Y-31633961D01*
X26541528Y-31601012D01*
X26545392Y-31592723D01*
X26549300Y-31573081D01*
X26566684Y-31547063D01*
X26571928Y-31535819D01*
X26578769Y-31528977D01*
X26592872Y-31507872D01*
X26613977Y-31493769D01*
X26620819Y-31486928D01*
X26632063Y-31481684D01*
X26658081Y-31464300D01*
X26677723Y-31460392D01*
X26686012Y-31456528D01*
X26718961Y-31452190D01*
X26735000Y-31449000D01*
X27035000Y-31449000D01*
X27051040Y-31452190D01*
G37*
G36*
X28321040Y-31452190D02*
G01*
X28353987Y-31456528D01*
X28362274Y-31460392D01*
X28381919Y-31464300D01*
X28407938Y-31481686D01*
X28419180Y-31486928D01*
X28426019Y-31493767D01*
X28447128Y-31507872D01*
X28461232Y-31528980D01*
X28468071Y-31535819D01*
X28473312Y-31547058D01*
X28490700Y-31573081D01*
X28494607Y-31592727D01*
X28498471Y-31601012D01*
X28502806Y-31633946D01*
X28506000Y-31650000D01*
X28506000Y-33300000D01*
X28502806Y-33316054D01*
X28498471Y-33348987D01*
X28494608Y-33357270D01*
X28490700Y-33376919D01*
X28473310Y-33402943D01*
X28468071Y-33414180D01*
X28461234Y-33421016D01*
X28447128Y-33442128D01*
X28426016Y-33456234D01*
X28419180Y-33463071D01*
X28407943Y-33468310D01*
X28381919Y-33485700D01*
X28362270Y-33489608D01*
X28353987Y-33493471D01*
X28321054Y-33497806D01*
X28305000Y-33501000D01*
X28005000Y-33501000D01*
X27988946Y-33497806D01*
X27956012Y-33493471D01*
X27947727Y-33489607D01*
X27928081Y-33485700D01*
X27902058Y-33468312D01*
X27890819Y-33463071D01*
X27883980Y-33456232D01*
X27862872Y-33442128D01*
X27848767Y-33421019D01*
X27841928Y-33414180D01*
X27836686Y-33402938D01*
X27819300Y-33376919D01*
X27815392Y-33357274D01*
X27811528Y-33348987D01*
X27807190Y-33316040D01*
X27804000Y-33300000D01*
X27804000Y-31650000D01*
X27807190Y-31633961D01*
X27811528Y-31601012D01*
X27815392Y-31592723D01*
X27819300Y-31573081D01*
X27836684Y-31547063D01*
X27841928Y-31535819D01*
X27848769Y-31528977D01*
X27862872Y-31507872D01*
X27883977Y-31493769D01*
X27890819Y-31486928D01*
X27902063Y-31481684D01*
X27928081Y-31464300D01*
X27947723Y-31460392D01*
X27956012Y-31456528D01*
X27988961Y-31452190D01*
X28005000Y-31449000D01*
X28305000Y-31449000D01*
X28321040Y-31452190D01*
G37*
G36*
X2020108Y-32351920D02*
G01*
X2035759Y-32358830D01*
X2044172Y-32360163D01*
X2079207Y-32378014D01*
X2123053Y-32397374D01*
X2202626Y-32476947D01*
X2221988Y-32520799D01*
X2239836Y-32555827D01*
X2241168Y-32564237D01*
X2248080Y-32579892D01*
X2251000Y-32605060D01*
X2251000Y-33219940D01*
X2248080Y-33245108D01*
X2241167Y-33260762D01*
X2239836Y-33269172D01*
X2221991Y-33304192D01*
X2202626Y-33348053D01*
X2123053Y-33427626D01*
X2079192Y-33446991D01*
X2044172Y-33464836D01*
X2035762Y-33466167D01*
X2020108Y-33473080D01*
X1994940Y-33476000D01*
X1005060Y-33476000D01*
X979892Y-33473080D01*
X964237Y-33466168D01*
X955827Y-33464836D01*
X920799Y-33446988D01*
X876947Y-33427626D01*
X797374Y-33348053D01*
X778014Y-33304207D01*
X760163Y-33269172D01*
X758830Y-33260759D01*
X751920Y-33245108D01*
X749000Y-33219940D01*
X749000Y-32605060D01*
X751920Y-32579892D01*
X758830Y-32564241D01*
X760163Y-32555827D01*
X778017Y-32520784D01*
X797374Y-32476947D01*
X876947Y-32397374D01*
X920784Y-32378017D01*
X955827Y-32360163D01*
X964241Y-32358830D01*
X979892Y-32351920D01*
X1005060Y-32349000D01*
X1994940Y-32349000D01*
X2020108Y-32351920D01*
G37*
G36*
X5175600Y-29192138D02*
G01*
X5214912Y-29192138D01*
X5259258Y-29201564D01*
X5310910Y-29207384D01*
X5348470Y-29220527D01*
X5381017Y-29227445D01*
X5427917Y-29248326D01*
X5482747Y-29267512D01*
X5511287Y-29285445D01*
X5536155Y-29296517D01*
X5582523Y-29330205D01*
X5636897Y-29364371D01*
X5656423Y-29383897D01*
X5673542Y-29396335D01*
X5715860Y-29443334D01*
X5765629Y-29493103D01*
X5777076Y-29511322D01*
X5787173Y-29522535D01*
X5821716Y-29582365D01*
X5862488Y-29647253D01*
X5867577Y-29661799D01*
X5872084Y-29669604D01*
X5895157Y-29740618D01*
X5922616Y-29819090D01*
X5923657Y-29828331D01*
X5924560Y-29831110D01*
X5932745Y-29908993D01*
X5943000Y-30000000D01*
X5932745Y-30091013D01*
X5924560Y-30168889D01*
X5923657Y-30171666D01*
X5922616Y-30180910D01*
X5895153Y-30259394D01*
X5872084Y-30330395D01*
X5867578Y-30338198D01*
X5862488Y-30352747D01*
X5821709Y-30417645D01*
X5787173Y-30477464D01*
X5777078Y-30488674D01*
X5765629Y-30506897D01*
X5715851Y-30556674D01*
X5673542Y-30603664D01*
X5656427Y-30616098D01*
X5636897Y-30635629D01*
X5582512Y-30669800D01*
X5536155Y-30703482D01*
X5511293Y-30714551D01*
X5482747Y-30732488D01*
X5427906Y-30751677D01*
X5381017Y-30772554D01*
X5348476Y-30779470D01*
X5310910Y-30792616D01*
X5259255Y-30798436D01*
X5214912Y-30807862D01*
X5175600Y-30807862D01*
X5130000Y-30813000D01*
X5084400Y-30807862D01*
X5045088Y-30807862D01*
X5000744Y-30798436D01*
X4949090Y-30792616D01*
X4911524Y-30779471D01*
X4878982Y-30772554D01*
X4832088Y-30751675D01*
X4777253Y-30732488D01*
X4748709Y-30714552D01*
X4723844Y-30703482D01*
X4677479Y-30669796D01*
X4623103Y-30635629D01*
X4603575Y-30616101D01*
X4586457Y-30603664D01*
X4544138Y-30556664D01*
X4494371Y-30506897D01*
X4482923Y-30488678D01*
X4472826Y-30477464D01*
X4438278Y-30417626D01*
X4397512Y-30352747D01*
X4392422Y-30338202D01*
X4387915Y-30330395D01*
X4364832Y-30259354D01*
X4337384Y-30180910D01*
X4336343Y-30171671D01*
X4335439Y-30168889D01*
X4327240Y-30090881D01*
X4317000Y-30000000D01*
X4327239Y-29909125D01*
X4335439Y-29831110D01*
X4336343Y-29828327D01*
X4337384Y-29819090D01*
X4364828Y-29740658D01*
X4387915Y-29669604D01*
X4392423Y-29661794D01*
X4397512Y-29647253D01*
X4438271Y-29582385D01*
X4472826Y-29522535D01*
X4482925Y-29511318D01*
X4494371Y-29493103D01*
X4544130Y-29443343D01*
X4586459Y-29396333D01*
X4603580Y-29383893D01*
X4623103Y-29364371D01*
X4677464Y-29330213D01*
X4723842Y-29296518D01*
X4748713Y-29285444D01*
X4777253Y-29267512D01*
X4832081Y-29248326D01*
X4878983Y-29227445D01*
X4911529Y-29220527D01*
X4949090Y-29207384D01*
X5000741Y-29201564D01*
X5045088Y-29192138D01*
X5084400Y-29192138D01*
X5130000Y-29187000D01*
X5175600Y-29192138D01*
G37*
G36*
X7715600Y-29192138D02*
G01*
X7754912Y-29192138D01*
X7799258Y-29201564D01*
X7850910Y-29207384D01*
X7888470Y-29220527D01*
X7921017Y-29227445D01*
X7967917Y-29248326D01*
X8022747Y-29267512D01*
X8051287Y-29285445D01*
X8076155Y-29296517D01*
X8122523Y-29330205D01*
X8176897Y-29364371D01*
X8196423Y-29383897D01*
X8213542Y-29396335D01*
X8255860Y-29443334D01*
X8305629Y-29493103D01*
X8317076Y-29511322D01*
X8327173Y-29522535D01*
X8361716Y-29582365D01*
X8402488Y-29647253D01*
X8407577Y-29661799D01*
X8412084Y-29669604D01*
X8435157Y-29740618D01*
X8462616Y-29819090D01*
X8463657Y-29828331D01*
X8464560Y-29831110D01*
X8472745Y-29908993D01*
X8483000Y-30000000D01*
X8472745Y-30091013D01*
X8464560Y-30168889D01*
X8463657Y-30171666D01*
X8462616Y-30180910D01*
X8435153Y-30259394D01*
X8412084Y-30330395D01*
X8407578Y-30338198D01*
X8402488Y-30352747D01*
X8361709Y-30417645D01*
X8327173Y-30477464D01*
X8317078Y-30488674D01*
X8305629Y-30506897D01*
X8255851Y-30556674D01*
X8213542Y-30603664D01*
X8196427Y-30616098D01*
X8176897Y-30635629D01*
X8122512Y-30669800D01*
X8076155Y-30703482D01*
X8051293Y-30714551D01*
X8022747Y-30732488D01*
X7967906Y-30751677D01*
X7921017Y-30772554D01*
X7888476Y-30779470D01*
X7850910Y-30792616D01*
X7799255Y-30798436D01*
X7754912Y-30807862D01*
X7715600Y-30807862D01*
X7670000Y-30813000D01*
X7624400Y-30807862D01*
X7585088Y-30807862D01*
X7540744Y-30798436D01*
X7489090Y-30792616D01*
X7451524Y-30779471D01*
X7418982Y-30772554D01*
X7372088Y-30751675D01*
X7317253Y-30732488D01*
X7288709Y-30714552D01*
X7263844Y-30703482D01*
X7217479Y-30669796D01*
X7163103Y-30635629D01*
X7143575Y-30616101D01*
X7126457Y-30603664D01*
X7084138Y-30556664D01*
X7034371Y-30506897D01*
X7022923Y-30488678D01*
X7012826Y-30477464D01*
X6978278Y-30417626D01*
X6937512Y-30352747D01*
X6932422Y-30338202D01*
X6927915Y-30330395D01*
X6904832Y-30259354D01*
X6877384Y-30180910D01*
X6876343Y-30171671D01*
X6875439Y-30168889D01*
X6867240Y-30090881D01*
X6857000Y-30000000D01*
X6867239Y-29909125D01*
X6875439Y-29831110D01*
X6876343Y-29828327D01*
X6877384Y-29819090D01*
X6904828Y-29740658D01*
X6927915Y-29669604D01*
X6932423Y-29661794D01*
X6937512Y-29647253D01*
X6978271Y-29582385D01*
X7012826Y-29522535D01*
X7022925Y-29511318D01*
X7034371Y-29493103D01*
X7084130Y-29443343D01*
X7126459Y-29396333D01*
X7143580Y-29383893D01*
X7163103Y-29364371D01*
X7217464Y-29330213D01*
X7263842Y-29296518D01*
X7288713Y-29285444D01*
X7317253Y-29267512D01*
X7372081Y-29248326D01*
X7418983Y-29227445D01*
X7451529Y-29220527D01*
X7489090Y-29207384D01*
X7540741Y-29201564D01*
X7585088Y-29192138D01*
X7624400Y-29192138D01*
X7670000Y-29187000D01*
X7715600Y-29192138D01*
G37*
G36*
X10255600Y-29192138D02*
G01*
X10294912Y-29192138D01*
X10339258Y-29201564D01*
X10390910Y-29207384D01*
X10428470Y-29220527D01*
X10461017Y-29227445D01*
X10507917Y-29248326D01*
X10562747Y-29267512D01*
X10591287Y-29285445D01*
X10616155Y-29296517D01*
X10662523Y-29330205D01*
X10716897Y-29364371D01*
X10736423Y-29383897D01*
X10753542Y-29396335D01*
X10795860Y-29443334D01*
X10845629Y-29493103D01*
X10857076Y-29511322D01*
X10867173Y-29522535D01*
X10901716Y-29582365D01*
X10942488Y-29647253D01*
X10947577Y-29661799D01*
X10952084Y-29669604D01*
X10975157Y-29740618D01*
X11002616Y-29819090D01*
X11003657Y-29828331D01*
X11004560Y-29831110D01*
X11012745Y-29908993D01*
X11023000Y-30000000D01*
X11012745Y-30091013D01*
X11004560Y-30168889D01*
X11003657Y-30171666D01*
X11002616Y-30180910D01*
X10975153Y-30259394D01*
X10952084Y-30330395D01*
X10947578Y-30338198D01*
X10942488Y-30352747D01*
X10901709Y-30417645D01*
X10867173Y-30477464D01*
X10857078Y-30488674D01*
X10845629Y-30506897D01*
X10795851Y-30556674D01*
X10753542Y-30603664D01*
X10736427Y-30616098D01*
X10716897Y-30635629D01*
X10662512Y-30669800D01*
X10616155Y-30703482D01*
X10591293Y-30714551D01*
X10562747Y-30732488D01*
X10507906Y-30751677D01*
X10461017Y-30772554D01*
X10428476Y-30779470D01*
X10390910Y-30792616D01*
X10339255Y-30798436D01*
X10294912Y-30807862D01*
X10255600Y-30807862D01*
X10210000Y-30813000D01*
X10164400Y-30807862D01*
X10125088Y-30807862D01*
X10080744Y-30798436D01*
X10029090Y-30792616D01*
X9991524Y-30779471D01*
X9958982Y-30772554D01*
X9912088Y-30751675D01*
X9857253Y-30732488D01*
X9828709Y-30714552D01*
X9803844Y-30703482D01*
X9757479Y-30669796D01*
X9703103Y-30635629D01*
X9683575Y-30616101D01*
X9666457Y-30603664D01*
X9624138Y-30556664D01*
X9574371Y-30506897D01*
X9562923Y-30488678D01*
X9552826Y-30477464D01*
X9518278Y-30417626D01*
X9477512Y-30352747D01*
X9472422Y-30338202D01*
X9467915Y-30330395D01*
X9444832Y-30259354D01*
X9417384Y-30180910D01*
X9416343Y-30171671D01*
X9415439Y-30168889D01*
X9407240Y-30090881D01*
X9397000Y-30000000D01*
X9407239Y-29909125D01*
X9415439Y-29831110D01*
X9416343Y-29828327D01*
X9417384Y-29819090D01*
X9444828Y-29740658D01*
X9467915Y-29669604D01*
X9472423Y-29661794D01*
X9477512Y-29647253D01*
X9518271Y-29582385D01*
X9552826Y-29522535D01*
X9562925Y-29511318D01*
X9574371Y-29493103D01*
X9624130Y-29443343D01*
X9666459Y-29396333D01*
X9683580Y-29383893D01*
X9703103Y-29364371D01*
X9757464Y-29330213D01*
X9803842Y-29296518D01*
X9828713Y-29285444D01*
X9857253Y-29267512D01*
X9912081Y-29248326D01*
X9958983Y-29227445D01*
X9991529Y-29220527D01*
X10029090Y-29207384D01*
X10080741Y-29201564D01*
X10125088Y-29192138D01*
X10164400Y-29192138D01*
X10210000Y-29187000D01*
X10255600Y-29192138D01*
G37*
G36*
X12795600Y-29192138D02*
G01*
X12834912Y-29192138D01*
X12879258Y-29201564D01*
X12930910Y-29207384D01*
X12968470Y-29220527D01*
X13001017Y-29227445D01*
X13047917Y-29248326D01*
X13102747Y-29267512D01*
X13131287Y-29285445D01*
X13156155Y-29296517D01*
X13202523Y-29330205D01*
X13256897Y-29364371D01*
X13276423Y-29383897D01*
X13293542Y-29396335D01*
X13335860Y-29443334D01*
X13385629Y-29493103D01*
X13397076Y-29511322D01*
X13407173Y-29522535D01*
X13441716Y-29582365D01*
X13482488Y-29647253D01*
X13487577Y-29661799D01*
X13492084Y-29669604D01*
X13515157Y-29740618D01*
X13542616Y-29819090D01*
X13543657Y-29828331D01*
X13544560Y-29831110D01*
X13552745Y-29908993D01*
X13563000Y-30000000D01*
X13552745Y-30091013D01*
X13544560Y-30168889D01*
X13543657Y-30171666D01*
X13542616Y-30180910D01*
X13515153Y-30259394D01*
X13492084Y-30330395D01*
X13487578Y-30338198D01*
X13482488Y-30352747D01*
X13441709Y-30417645D01*
X13407173Y-30477464D01*
X13397078Y-30488674D01*
X13385629Y-30506897D01*
X13335851Y-30556674D01*
X13293542Y-30603664D01*
X13276427Y-30616098D01*
X13256897Y-30635629D01*
X13202512Y-30669800D01*
X13156155Y-30703482D01*
X13131293Y-30714551D01*
X13102747Y-30732488D01*
X13047906Y-30751677D01*
X13001017Y-30772554D01*
X12968476Y-30779470D01*
X12930910Y-30792616D01*
X12879255Y-30798436D01*
X12834912Y-30807862D01*
X12795600Y-30807862D01*
X12750000Y-30813000D01*
X12704400Y-30807862D01*
X12665088Y-30807862D01*
X12620744Y-30798436D01*
X12569090Y-30792616D01*
X12531524Y-30779471D01*
X12498982Y-30772554D01*
X12452088Y-30751675D01*
X12397253Y-30732488D01*
X12368709Y-30714552D01*
X12343844Y-30703482D01*
X12297479Y-30669796D01*
X12243103Y-30635629D01*
X12223575Y-30616101D01*
X12206457Y-30603664D01*
X12164138Y-30556664D01*
X12114371Y-30506897D01*
X12102923Y-30488678D01*
X12092826Y-30477464D01*
X12058278Y-30417626D01*
X12017512Y-30352747D01*
X12012422Y-30338202D01*
X12007915Y-30330395D01*
X11984832Y-30259354D01*
X11957384Y-30180910D01*
X11956343Y-30171671D01*
X11955439Y-30168889D01*
X11947240Y-30090881D01*
X11937000Y-30000000D01*
X11947239Y-29909125D01*
X11955439Y-29831110D01*
X11956343Y-29828327D01*
X11957384Y-29819090D01*
X11984828Y-29740658D01*
X12007915Y-29669604D01*
X12012423Y-29661794D01*
X12017512Y-29647253D01*
X12058271Y-29582385D01*
X12092826Y-29522535D01*
X12102925Y-29511318D01*
X12114371Y-29493103D01*
X12164130Y-29443343D01*
X12206459Y-29396333D01*
X12223580Y-29383893D01*
X12243103Y-29364371D01*
X12297464Y-29330213D01*
X12343842Y-29296518D01*
X12368713Y-29285444D01*
X12397253Y-29267512D01*
X12452081Y-29248326D01*
X12498983Y-29227445D01*
X12531529Y-29220527D01*
X12569090Y-29207384D01*
X12620741Y-29201564D01*
X12665088Y-29192138D01*
X12704400Y-29192138D01*
X12750000Y-29187000D01*
X12795600Y-29192138D01*
G37*
G36*
X15335600Y-29192138D02*
G01*
X15374912Y-29192138D01*
X15419258Y-29201564D01*
X15470910Y-29207384D01*
X15508470Y-29220527D01*
X15541017Y-29227445D01*
X15587917Y-29248326D01*
X15642747Y-29267512D01*
X15671287Y-29285445D01*
X15696155Y-29296517D01*
X15742523Y-29330205D01*
X15796897Y-29364371D01*
X15816423Y-29383897D01*
X15833542Y-29396335D01*
X15875860Y-29443334D01*
X15925629Y-29493103D01*
X15937076Y-29511322D01*
X15947173Y-29522535D01*
X15981716Y-29582365D01*
X16022488Y-29647253D01*
X16027577Y-29661799D01*
X16032084Y-29669604D01*
X16055157Y-29740618D01*
X16082616Y-29819090D01*
X16083657Y-29828331D01*
X16084560Y-29831110D01*
X16092746Y-29909000D01*
X16103000Y-30000000D01*
X16092744Y-30091020D01*
X16084560Y-30168889D01*
X16083657Y-30171666D01*
X16082616Y-30180910D01*
X16055153Y-30259394D01*
X16032084Y-30330395D01*
X16027578Y-30338198D01*
X16022488Y-30352747D01*
X15981709Y-30417645D01*
X15947173Y-30477464D01*
X15937078Y-30488674D01*
X15925629Y-30506897D01*
X15875851Y-30556674D01*
X15833542Y-30603664D01*
X15816427Y-30616098D01*
X15796897Y-30635629D01*
X15742512Y-30669800D01*
X15696155Y-30703482D01*
X15671293Y-30714551D01*
X15642747Y-30732488D01*
X15587906Y-30751677D01*
X15541017Y-30772554D01*
X15508476Y-30779470D01*
X15470910Y-30792616D01*
X15419255Y-30798436D01*
X15374912Y-30807862D01*
X15335600Y-30807862D01*
X15290000Y-30813000D01*
X15244400Y-30807862D01*
X15205088Y-30807862D01*
X15160744Y-30798436D01*
X15109090Y-30792616D01*
X15071524Y-30779471D01*
X15038982Y-30772554D01*
X14992088Y-30751675D01*
X14937253Y-30732488D01*
X14908709Y-30714552D01*
X14883844Y-30703482D01*
X14837479Y-30669796D01*
X14783103Y-30635629D01*
X14763575Y-30616101D01*
X14746457Y-30603664D01*
X14704138Y-30556664D01*
X14654371Y-30506897D01*
X14642923Y-30488678D01*
X14632826Y-30477464D01*
X14598278Y-30417626D01*
X14557512Y-30352747D01*
X14552422Y-30338202D01*
X14547915Y-30330395D01*
X14524832Y-30259354D01*
X14497384Y-30180910D01*
X14496343Y-30171671D01*
X14495439Y-30168889D01*
X14487240Y-30090881D01*
X14477000Y-30000000D01*
X14487239Y-29909125D01*
X14495439Y-29831110D01*
X14496343Y-29828327D01*
X14497384Y-29819090D01*
X14524828Y-29740658D01*
X14547915Y-29669604D01*
X14552423Y-29661794D01*
X14557512Y-29647253D01*
X14598271Y-29582385D01*
X14632826Y-29522535D01*
X14642925Y-29511318D01*
X14654371Y-29493103D01*
X14704130Y-29443343D01*
X14746459Y-29396333D01*
X14763580Y-29383893D01*
X14783103Y-29364371D01*
X14837464Y-29330213D01*
X14883842Y-29296518D01*
X14908713Y-29285444D01*
X14937253Y-29267512D01*
X14992081Y-29248326D01*
X15038983Y-29227445D01*
X15071529Y-29220527D01*
X15109090Y-29207384D01*
X15160741Y-29201564D01*
X15205088Y-29192138D01*
X15244400Y-29192138D01*
X15290000Y-29187000D01*
X15335600Y-29192138D01*
G37*
G36*
X17875600Y-29192138D02*
G01*
X17914912Y-29192138D01*
X17959258Y-29201564D01*
X18010910Y-29207384D01*
X18048470Y-29220527D01*
X18081017Y-29227445D01*
X18127917Y-29248326D01*
X18182747Y-29267512D01*
X18211287Y-29285445D01*
X18236155Y-29296517D01*
X18282523Y-29330205D01*
X18336897Y-29364371D01*
X18356423Y-29383897D01*
X18373542Y-29396335D01*
X18415860Y-29443334D01*
X18465629Y-29493103D01*
X18477076Y-29511322D01*
X18487173Y-29522535D01*
X18521716Y-29582365D01*
X18562488Y-29647253D01*
X18567577Y-29661799D01*
X18572084Y-29669604D01*
X18595157Y-29740618D01*
X18622616Y-29819090D01*
X18623657Y-29828331D01*
X18624560Y-29831110D01*
X18632745Y-29908993D01*
X18643000Y-30000000D01*
X18632745Y-30091013D01*
X18624560Y-30168889D01*
X18623657Y-30171666D01*
X18622616Y-30180910D01*
X18595153Y-30259394D01*
X18572084Y-30330395D01*
X18567578Y-30338198D01*
X18562488Y-30352747D01*
X18521709Y-30417645D01*
X18487173Y-30477464D01*
X18477078Y-30488674D01*
X18465629Y-30506897D01*
X18415851Y-30556674D01*
X18373542Y-30603664D01*
X18356427Y-30616098D01*
X18336897Y-30635629D01*
X18282512Y-30669800D01*
X18236155Y-30703482D01*
X18211293Y-30714551D01*
X18182747Y-30732488D01*
X18127906Y-30751677D01*
X18081017Y-30772554D01*
X18048476Y-30779470D01*
X18010910Y-30792616D01*
X17959255Y-30798436D01*
X17914912Y-30807862D01*
X17875600Y-30807862D01*
X17830000Y-30813000D01*
X17784400Y-30807862D01*
X17745088Y-30807862D01*
X17700744Y-30798436D01*
X17649090Y-30792616D01*
X17611524Y-30779471D01*
X17578982Y-30772554D01*
X17532088Y-30751675D01*
X17477253Y-30732488D01*
X17448709Y-30714552D01*
X17423844Y-30703482D01*
X17377479Y-30669796D01*
X17323103Y-30635629D01*
X17303575Y-30616101D01*
X17286457Y-30603664D01*
X17244138Y-30556664D01*
X17194371Y-30506897D01*
X17182923Y-30488678D01*
X17172826Y-30477464D01*
X17138278Y-30417626D01*
X17097512Y-30352747D01*
X17092422Y-30338202D01*
X17087915Y-30330395D01*
X17064832Y-30259354D01*
X17037384Y-30180910D01*
X17036343Y-30171671D01*
X17035439Y-30168889D01*
X17027240Y-30090881D01*
X17017000Y-30000000D01*
X17027239Y-29909125D01*
X17035439Y-29831110D01*
X17036343Y-29828327D01*
X17037384Y-29819090D01*
X17064828Y-29740658D01*
X17087915Y-29669604D01*
X17092423Y-29661794D01*
X17097512Y-29647253D01*
X17138271Y-29582385D01*
X17172826Y-29522535D01*
X17182925Y-29511318D01*
X17194371Y-29493103D01*
X17244130Y-29443343D01*
X17286459Y-29396333D01*
X17303580Y-29383893D01*
X17323103Y-29364371D01*
X17377464Y-29330213D01*
X17423842Y-29296518D01*
X17448713Y-29285444D01*
X17477253Y-29267512D01*
X17532081Y-29248326D01*
X17578983Y-29227445D01*
X17611529Y-29220527D01*
X17649090Y-29207384D01*
X17700741Y-29201564D01*
X17745088Y-29192138D01*
X17784400Y-29192138D01*
X17830000Y-29187000D01*
X17875600Y-29192138D01*
G37*
G36*
X21793914Y-29006995D02*
G01*
X21809726Y-29013976D01*
X21817531Y-29015213D01*
X21850039Y-29031776D01*
X21895106Y-29051676D01*
X21973324Y-29129894D01*
X21993226Y-29174967D01*
X22009786Y-29207468D01*
X22011021Y-29215270D01*
X22018005Y-29231086D01*
X22026000Y-29300000D01*
X22026000Y-29800000D01*
X22018005Y-29868914D01*
X22011021Y-29884729D01*
X22009786Y-29892531D01*
X21993229Y-29925024D01*
X21973324Y-29970106D01*
X21895106Y-30048324D01*
X21850024Y-30068229D01*
X21817531Y-30084786D01*
X21809729Y-30086021D01*
X21793914Y-30093005D01*
X21725000Y-30101000D01*
X20775000Y-30101000D01*
X20706086Y-30093005D01*
X20690270Y-30086021D01*
X20682468Y-30084786D01*
X20649967Y-30068226D01*
X20604894Y-30048324D01*
X20526676Y-29970106D01*
X20506776Y-29925039D01*
X20490213Y-29892531D01*
X20488976Y-29884726D01*
X20481995Y-29868914D01*
X20474000Y-29800000D01*
X20474000Y-29300000D01*
X20481995Y-29231086D01*
X20488976Y-29215274D01*
X20490213Y-29207468D01*
X20506780Y-29174953D01*
X20526676Y-29129894D01*
X20604894Y-29051676D01*
X20649953Y-29031780D01*
X20682468Y-29015213D01*
X20690274Y-29013976D01*
X20706086Y-29006995D01*
X20775000Y-28999000D01*
X21725000Y-28999000D01*
X21793914Y-29006995D01*
G37*
G36*
X24511040Y-26502190D02*
G01*
X24543987Y-26506528D01*
X24552274Y-26510392D01*
X24571919Y-26514300D01*
X24597938Y-26531686D01*
X24609180Y-26536928D01*
X24616019Y-26543767D01*
X24637128Y-26557872D01*
X24651232Y-26578980D01*
X24658071Y-26585819D01*
X24663312Y-26597058D01*
X24680700Y-26623081D01*
X24684607Y-26642727D01*
X24688471Y-26651012D01*
X24692806Y-26683946D01*
X24696000Y-26700000D01*
X24696000Y-28350000D01*
X24692806Y-28366054D01*
X24688471Y-28398987D01*
X24684608Y-28407270D01*
X24680700Y-28426919D01*
X24663310Y-28452943D01*
X24658071Y-28464180D01*
X24651234Y-28471016D01*
X24637128Y-28492128D01*
X24616016Y-28506234D01*
X24609180Y-28513071D01*
X24597943Y-28518310D01*
X24571919Y-28535700D01*
X24552270Y-28539608D01*
X24543987Y-28543471D01*
X24511054Y-28547806D01*
X24495000Y-28551000D01*
X24195000Y-28551000D01*
X24178946Y-28547806D01*
X24146012Y-28543471D01*
X24137727Y-28539607D01*
X24118081Y-28535700D01*
X24092058Y-28518312D01*
X24080819Y-28513071D01*
X24073980Y-28506232D01*
X24052872Y-28492128D01*
X24038767Y-28471019D01*
X24031928Y-28464180D01*
X24026686Y-28452938D01*
X24009300Y-28426919D01*
X24005392Y-28407274D01*
X24001528Y-28398987D01*
X23997190Y-28366040D01*
X23994000Y-28350000D01*
X23994000Y-26700000D01*
X23997190Y-26683961D01*
X24001528Y-26651012D01*
X24005392Y-26642723D01*
X24009300Y-26623081D01*
X24026684Y-26597063D01*
X24031928Y-26585819D01*
X24038769Y-26578977D01*
X24052872Y-26557872D01*
X24073977Y-26543769D01*
X24080819Y-26536928D01*
X24092063Y-26531684D01*
X24118081Y-26514300D01*
X24137723Y-26510392D01*
X24146012Y-26506528D01*
X24178961Y-26502190D01*
X24195000Y-26499000D01*
X24495000Y-26499000D01*
X24511040Y-26502190D01*
G37*
G36*
X25781040Y-26502190D02*
G01*
X25813987Y-26506528D01*
X25822274Y-26510392D01*
X25841919Y-26514300D01*
X25867938Y-26531686D01*
X25879180Y-26536928D01*
X25886019Y-26543767D01*
X25907128Y-26557872D01*
X25921232Y-26578980D01*
X25928071Y-26585819D01*
X25933312Y-26597058D01*
X25950700Y-26623081D01*
X25954607Y-26642727D01*
X25958471Y-26651012D01*
X25962806Y-26683946D01*
X25966000Y-26700000D01*
X25966000Y-28350000D01*
X25962806Y-28366054D01*
X25958471Y-28398987D01*
X25954608Y-28407270D01*
X25950700Y-28426919D01*
X25933310Y-28452943D01*
X25928071Y-28464180D01*
X25921234Y-28471016D01*
X25907128Y-28492128D01*
X25886016Y-28506234D01*
X25879180Y-28513071D01*
X25867943Y-28518310D01*
X25841919Y-28535700D01*
X25822270Y-28539608D01*
X25813987Y-28543471D01*
X25781054Y-28547806D01*
X25765000Y-28551000D01*
X25465000Y-28551000D01*
X25448946Y-28547806D01*
X25416012Y-28543471D01*
X25407727Y-28539607D01*
X25388081Y-28535700D01*
X25362058Y-28518312D01*
X25350819Y-28513071D01*
X25343980Y-28506232D01*
X25322872Y-28492128D01*
X25308767Y-28471019D01*
X25301928Y-28464180D01*
X25296686Y-28452938D01*
X25279300Y-28426919D01*
X25275392Y-28407274D01*
X25271528Y-28398987D01*
X25267190Y-28366040D01*
X25264000Y-28350000D01*
X25264000Y-26700000D01*
X25267190Y-26683961D01*
X25271528Y-26651012D01*
X25275392Y-26642723D01*
X25279300Y-26623081D01*
X25296684Y-26597063D01*
X25301928Y-26585819D01*
X25308769Y-26578977D01*
X25322872Y-26557872D01*
X25343977Y-26543769D01*
X25350819Y-26536928D01*
X25362063Y-26531684D01*
X25388081Y-26514300D01*
X25407723Y-26510392D01*
X25416012Y-26506528D01*
X25448961Y-26502190D01*
X25465000Y-26499000D01*
X25765000Y-26499000D01*
X25781040Y-26502190D01*
G37*
G36*
X27051040Y-26502190D02*
G01*
X27083987Y-26506528D01*
X27092274Y-26510392D01*
X27111919Y-26514300D01*
X27137938Y-26531686D01*
X27149180Y-26536928D01*
X27156019Y-26543767D01*
X27177128Y-26557872D01*
X27191232Y-26578980D01*
X27198071Y-26585819D01*
X27203312Y-26597058D01*
X27220700Y-26623081D01*
X27224607Y-26642727D01*
X27228471Y-26651012D01*
X27232806Y-26683946D01*
X27236000Y-26700000D01*
X27236000Y-28350000D01*
X27232806Y-28366054D01*
X27228471Y-28398987D01*
X27224608Y-28407270D01*
X27220700Y-28426919D01*
X27203310Y-28452943D01*
X27198071Y-28464180D01*
X27191234Y-28471016D01*
X27177128Y-28492128D01*
X27156016Y-28506234D01*
X27149180Y-28513071D01*
X27137943Y-28518310D01*
X27111919Y-28535700D01*
X27092270Y-28539608D01*
X27083987Y-28543471D01*
X27051054Y-28547806D01*
X27035000Y-28551000D01*
X26735000Y-28551000D01*
X26718946Y-28547806D01*
X26686012Y-28543471D01*
X26677727Y-28539607D01*
X26658081Y-28535700D01*
X26632058Y-28518312D01*
X26620819Y-28513071D01*
X26613980Y-28506232D01*
X26592872Y-28492128D01*
X26578767Y-28471019D01*
X26571928Y-28464180D01*
X26566686Y-28452938D01*
X26549300Y-28426919D01*
X26545392Y-28407274D01*
X26541528Y-28398987D01*
X26537190Y-28366040D01*
X26534000Y-28350000D01*
X26534000Y-26700000D01*
X26537190Y-26683961D01*
X26541528Y-26651012D01*
X26545392Y-26642723D01*
X26549300Y-26623081D01*
X26566684Y-26597063D01*
X26571928Y-26585819D01*
X26578769Y-26578977D01*
X26592872Y-26557872D01*
X26613977Y-26543769D01*
X26620819Y-26536928D01*
X26632063Y-26531684D01*
X26658081Y-26514300D01*
X26677723Y-26510392D01*
X26686012Y-26506528D01*
X26718961Y-26502190D01*
X26735000Y-26499000D01*
X27035000Y-26499000D01*
X27051040Y-26502190D01*
G37*
G36*
X28321040Y-26502190D02*
G01*
X28353987Y-26506528D01*
X28362274Y-26510392D01*
X28381919Y-26514300D01*
X28407938Y-26531686D01*
X28419180Y-26536928D01*
X28426019Y-26543767D01*
X28447128Y-26557872D01*
X28461232Y-26578980D01*
X28468071Y-26585819D01*
X28473312Y-26597058D01*
X28490700Y-26623081D01*
X28494607Y-26642727D01*
X28498471Y-26651012D01*
X28502806Y-26683946D01*
X28506000Y-26700000D01*
X28506000Y-28350000D01*
X28502806Y-28366054D01*
X28498471Y-28398987D01*
X28494608Y-28407270D01*
X28490700Y-28426919D01*
X28473310Y-28452943D01*
X28468071Y-28464180D01*
X28461234Y-28471016D01*
X28447128Y-28492128D01*
X28426016Y-28506234D01*
X28419180Y-28513071D01*
X28407943Y-28518310D01*
X28381919Y-28535700D01*
X28362270Y-28539608D01*
X28353987Y-28543471D01*
X28321054Y-28547806D01*
X28305000Y-28551000D01*
X28005000Y-28551000D01*
X27988946Y-28547806D01*
X27956012Y-28543471D01*
X27947727Y-28539607D01*
X27928081Y-28535700D01*
X27902058Y-28518312D01*
X27890819Y-28513071D01*
X27883980Y-28506232D01*
X27862872Y-28492128D01*
X27848767Y-28471019D01*
X27841928Y-28464180D01*
X27836686Y-28452938D01*
X27819300Y-28426919D01*
X27815392Y-28407274D01*
X27811528Y-28398987D01*
X27807190Y-28366040D01*
X27804000Y-28350000D01*
X27804000Y-26700000D01*
X27807190Y-26683961D01*
X27811528Y-26651012D01*
X27815392Y-26642723D01*
X27819300Y-26623081D01*
X27836684Y-26597063D01*
X27841928Y-26585819D01*
X27848769Y-26578977D01*
X27862872Y-26557872D01*
X27883977Y-26543769D01*
X27890819Y-26536928D01*
X27902063Y-26531684D01*
X27928081Y-26514300D01*
X27947723Y-26510392D01*
X27956012Y-26506528D01*
X27988961Y-26502190D01*
X28005000Y-26499000D01*
X28305000Y-26499000D01*
X28321040Y-26502190D01*
G37*
G36*
X3309517Y-24202882D02*
G01*
X3326062Y-24213938D01*
X3337118Y-24230483D01*
X3341000Y-24250000D01*
X3341000Y-26250000D01*
X3337118Y-26269517D01*
X3326062Y-26286062D01*
X3309517Y-26297118D01*
X3290000Y-26301000D01*
X2390000Y-26301000D01*
X2370483Y-26297118D01*
X2353938Y-26286062D01*
X2342882Y-26269517D01*
X2339000Y-26250000D01*
X2339000Y-24250000D01*
X2342882Y-24230483D01*
X2353938Y-24213938D01*
X2370483Y-24202882D01*
X2390000Y-24199000D01*
X3290000Y-24199000D01*
X3309517Y-24202882D01*
G37*
G36*
X4579517Y-24202882D02*
G01*
X4596062Y-24213938D01*
X4607118Y-24230483D01*
X4611000Y-24250000D01*
X4611000Y-26250000D01*
X4607118Y-26269517D01*
X4596062Y-26286062D01*
X4579517Y-26297118D01*
X4560000Y-26301000D01*
X3660000Y-26301000D01*
X3640483Y-26297118D01*
X3623938Y-26286062D01*
X3612882Y-26269517D01*
X3609000Y-26250000D01*
X3609000Y-24250000D01*
X3612882Y-24230483D01*
X3623938Y-24213938D01*
X3640483Y-24202882D01*
X3660000Y-24199000D01*
X4560000Y-24199000D01*
X4579517Y-24202882D01*
G37*
G36*
X5849517Y-24202882D02*
G01*
X5866062Y-24213938D01*
X5877118Y-24230483D01*
X5881000Y-24250000D01*
X5881000Y-26250000D01*
X5877118Y-26269517D01*
X5866062Y-26286062D01*
X5849517Y-26297118D01*
X5830000Y-26301000D01*
X4930000Y-26301000D01*
X4910483Y-26297118D01*
X4893938Y-26286062D01*
X4882882Y-26269517D01*
X4879000Y-26250000D01*
X4879000Y-24250000D01*
X4882882Y-24230483D01*
X4893938Y-24213938D01*
X4910483Y-24202882D01*
X4930000Y-24199000D01*
X5830000Y-24199000D01*
X5849517Y-24202882D01*
G37*
G36*
X7119517Y-24202882D02*
G01*
X7136062Y-24213938D01*
X7147118Y-24230483D01*
X7151000Y-24250000D01*
X7151000Y-26250000D01*
X7147118Y-26269517D01*
X7136062Y-26286062D01*
X7119517Y-26297118D01*
X7100000Y-26301000D01*
X6200000Y-26301000D01*
X6180483Y-26297118D01*
X6163938Y-26286062D01*
X6152882Y-26269517D01*
X6149000Y-26250000D01*
X6149000Y-24250000D01*
X6152882Y-24230483D01*
X6163938Y-24213938D01*
X6180483Y-24202882D01*
X6200000Y-24199000D01*
X7100000Y-24199000D01*
X7119517Y-24202882D01*
G37*
G36*
X8389517Y-24202882D02*
G01*
X8406062Y-24213938D01*
X8417118Y-24230483D01*
X8421000Y-24250000D01*
X8421000Y-26250000D01*
X8417118Y-26269517D01*
X8406062Y-26286062D01*
X8389517Y-26297118D01*
X8370000Y-26301000D01*
X7470000Y-26301000D01*
X7450483Y-26297118D01*
X7433938Y-26286062D01*
X7422882Y-26269517D01*
X7419000Y-26250000D01*
X7419000Y-24250000D01*
X7422882Y-24230483D01*
X7433938Y-24213938D01*
X7450483Y-24202882D01*
X7470000Y-24199000D01*
X8370000Y-24199000D01*
X8389517Y-24202882D01*
G37*
G36*
X9659517Y-24202882D02*
G01*
X9676062Y-24213938D01*
X9687118Y-24230483D01*
X9691000Y-24250000D01*
X9691000Y-26250000D01*
X9687118Y-26269517D01*
X9676062Y-26286062D01*
X9659517Y-26297118D01*
X9640000Y-26301000D01*
X8740000Y-26301000D01*
X8720483Y-26297118D01*
X8703938Y-26286062D01*
X8692882Y-26269517D01*
X8689000Y-26250000D01*
X8689000Y-24250000D01*
X8692882Y-24230483D01*
X8703938Y-24213938D01*
X8720483Y-24202882D01*
X8740000Y-24199000D01*
X9640000Y-24199000D01*
X9659517Y-24202882D01*
G37*
G36*
X10929517Y-24202882D02*
G01*
X10946062Y-24213938D01*
X10957118Y-24230483D01*
X10961000Y-24250000D01*
X10961000Y-26250000D01*
X10957118Y-26269517D01*
X10946062Y-26286062D01*
X10929517Y-26297118D01*
X10910000Y-26301000D01*
X10010000Y-26301000D01*
X9990483Y-26297118D01*
X9973938Y-26286062D01*
X9962882Y-26269517D01*
X9959000Y-26250000D01*
X9959000Y-24250000D01*
X9962882Y-24230483D01*
X9973938Y-24213938D01*
X9990483Y-24202882D01*
X10010000Y-24199000D01*
X10910000Y-24199000D01*
X10929517Y-24202882D01*
G37*
G36*
X12199517Y-24202882D02*
G01*
X12216062Y-24213938D01*
X12227118Y-24230483D01*
X12231000Y-24250000D01*
X12231000Y-26250000D01*
X12227118Y-26269517D01*
X12216062Y-26286062D01*
X12199517Y-26297118D01*
X12180000Y-26301000D01*
X11280000Y-26301000D01*
X11260483Y-26297118D01*
X11243938Y-26286062D01*
X11232882Y-26269517D01*
X11229000Y-26250000D01*
X11229000Y-24250000D01*
X11232882Y-24230483D01*
X11243938Y-24213938D01*
X11260483Y-24202882D01*
X11280000Y-24199000D01*
X12180000Y-24199000D01*
X12199517Y-24202882D01*
G37*
G36*
X13469517Y-24202882D02*
G01*
X13486062Y-24213938D01*
X13497118Y-24230483D01*
X13501000Y-24250000D01*
X13501000Y-26250000D01*
X13497118Y-26269517D01*
X13486062Y-26286062D01*
X13469517Y-26297118D01*
X13450000Y-26301000D01*
X12550000Y-26301000D01*
X12530483Y-26297118D01*
X12513938Y-26286062D01*
X12502882Y-26269517D01*
X12499000Y-26250000D01*
X12499000Y-24250000D01*
X12502882Y-24230483D01*
X12513938Y-24213938D01*
X12530483Y-24202882D01*
X12550000Y-24199000D01*
X13450000Y-24199000D01*
X13469517Y-24202882D01*
G37*
G36*
X14739517Y-24202882D02*
G01*
X14756062Y-24213938D01*
X14767118Y-24230483D01*
X14771000Y-24250000D01*
X14771000Y-26250000D01*
X14767118Y-26269517D01*
X14756062Y-26286062D01*
X14739517Y-26297118D01*
X14720000Y-26301000D01*
X13820000Y-26301000D01*
X13800483Y-26297118D01*
X13783938Y-26286062D01*
X13772882Y-26269517D01*
X13769000Y-26250000D01*
X13769000Y-24250000D01*
X13772882Y-24230483D01*
X13783938Y-24213938D01*
X13800483Y-24202882D01*
X13820000Y-24199000D01*
X14720000Y-24199000D01*
X14739517Y-24202882D01*
G37*
G36*
X16009517Y-24202882D02*
G01*
X16026062Y-24213938D01*
X16037118Y-24230483D01*
X16041000Y-24250000D01*
X16041000Y-26250000D01*
X16037118Y-26269517D01*
X16026062Y-26286062D01*
X16009517Y-26297118D01*
X15990000Y-26301000D01*
X15090000Y-26301000D01*
X15070483Y-26297118D01*
X15053938Y-26286062D01*
X15042882Y-26269517D01*
X15039000Y-26250000D01*
X15039000Y-24250000D01*
X15042882Y-24230483D01*
X15053938Y-24213938D01*
X15070483Y-24202882D01*
X15090000Y-24199000D01*
X15990000Y-24199000D01*
X16009517Y-24202882D01*
G37*
G36*
X17279517Y-24202882D02*
G01*
X17296062Y-24213938D01*
X17307118Y-24230483D01*
X17311000Y-24250000D01*
X17311000Y-26250000D01*
X17307118Y-26269517D01*
X17296062Y-26286062D01*
X17279517Y-26297118D01*
X17260000Y-26301000D01*
X16360000Y-26301000D01*
X16340483Y-26297118D01*
X16323938Y-26286062D01*
X16312882Y-26269517D01*
X16309000Y-26250000D01*
X16309000Y-24250000D01*
X16312882Y-24230483D01*
X16323938Y-24213938D01*
X16340483Y-24202882D01*
X16360000Y-24199000D01*
X17260000Y-24199000D01*
X17279517Y-24202882D01*
G37*
G36*
X18549517Y-24202882D02*
G01*
X18566062Y-24213938D01*
X18577118Y-24230483D01*
X18581000Y-24250000D01*
X18581000Y-26250000D01*
X18577118Y-26269517D01*
X18566062Y-26286062D01*
X18549517Y-26297118D01*
X18530000Y-26301000D01*
X17630000Y-26301000D01*
X17610483Y-26297118D01*
X17593938Y-26286062D01*
X17582882Y-26269517D01*
X17579000Y-26250000D01*
X17579000Y-24250000D01*
X17582882Y-24230483D01*
X17593938Y-24213938D01*
X17610483Y-24202882D01*
X17630000Y-24199000D01*
X18530000Y-24199000D01*
X18549517Y-24202882D01*
G37*
G36*
X19819517Y-24202882D02*
G01*
X19836062Y-24213938D01*
X19847118Y-24230483D01*
X19851000Y-24250000D01*
X19851000Y-26250000D01*
X19847118Y-26269517D01*
X19836062Y-26286062D01*
X19819517Y-26297118D01*
X19800000Y-26301000D01*
X18900000Y-26301000D01*
X18880483Y-26297118D01*
X18863938Y-26286062D01*
X18852882Y-26269517D01*
X18849000Y-26250000D01*
X18849000Y-24250000D01*
X18852882Y-24230483D01*
X18863938Y-24213938D01*
X18880483Y-24202882D01*
X18900000Y-24199000D01*
X19800000Y-24199000D01*
X19819517Y-24202882D01*
G37*
G36*
X2859517Y-21967882D02*
G01*
X2876062Y-21978938D01*
X2887118Y-21995483D01*
X2891000Y-22015000D01*
X2891000Y-22915000D01*
X2887118Y-22934517D01*
X2876062Y-22951062D01*
X2859517Y-22962118D01*
X2840000Y-22966000D01*
X840000Y-22966000D01*
X820483Y-22962118D01*
X803938Y-22951062D01*
X792882Y-22934517D01*
X789000Y-22915000D01*
X789000Y-22015000D01*
X792882Y-21995483D01*
X803938Y-21978938D01*
X820483Y-21967882D01*
X840000Y-21964000D01*
X2840000Y-21964000D01*
X2859517Y-21967882D01*
G37*
G36*
X23069517Y-22377881D02*
G01*
X23086062Y-22388937D01*
X23097118Y-22405482D01*
X23101000Y-22424999D01*
X23101000Y-23075001D01*
X23097118Y-23094518D01*
X23086062Y-23111063D01*
X23069517Y-23122119D01*
X23063357Y-23123344D01*
X23011214Y-23158185D01*
X23011212Y-23291813D01*
X23063360Y-23326657D01*
X23069517Y-23327882D01*
X23086062Y-23338938D01*
X23097118Y-23355483D01*
X23101000Y-23375000D01*
X23101000Y-24025002D01*
X23097118Y-24044519D01*
X23086062Y-24061064D01*
X23069517Y-24072120D01*
X23063359Y-24073344D01*
X23011216Y-24108187D01*
X23011216Y-24241813D01*
X23063360Y-24276655D01*
X23069517Y-24277880D01*
X23086062Y-24288936D01*
X23097118Y-24305481D01*
X23101000Y-24324998D01*
X23101000Y-24975000D01*
X23097118Y-24994517D01*
X23086062Y-25011062D01*
X23069517Y-25022118D01*
X23050000Y-25026000D01*
X21950000Y-25026000D01*
X21930483Y-25022118D01*
X21913938Y-25011062D01*
X21902882Y-24994517D01*
X21899000Y-24975000D01*
X21899000Y-24324998D01*
X21902882Y-24305481D01*
X21913938Y-24288936D01*
X21930483Y-24277880D01*
X21936636Y-24276655D01*
X21988783Y-24241812D01*
X21988783Y-24108188D01*
X21936638Y-24073344D01*
X21930483Y-24072120D01*
X21913938Y-24061064D01*
X21902882Y-24044519D01*
X21899000Y-24025002D01*
X21899000Y-23375000D01*
X21902882Y-23355483D01*
X21913938Y-23338938D01*
X21930483Y-23327882D01*
X21936637Y-23326657D01*
X21988787Y-23291812D01*
X21988785Y-23158186D01*
X21936638Y-23123343D01*
X21930483Y-23122119D01*
X21913938Y-23111063D01*
X21902882Y-23094518D01*
X21899000Y-23075001D01*
X21899000Y-22424999D01*
X21902882Y-22405482D01*
X21913938Y-22388937D01*
X21930483Y-22377881D01*
X21950000Y-22373999D01*
X23050000Y-22373999D01*
X23069517Y-22377881D01*
G37*
G36*
X25469517Y-24277880D02*
G01*
X25486062Y-24288936D01*
X25497118Y-24305481D01*
X25501000Y-24324998D01*
X25501000Y-24975000D01*
X25497118Y-24994517D01*
X25486062Y-25011062D01*
X25469517Y-25022118D01*
X25450000Y-25026000D01*
X24350000Y-25026000D01*
X24330483Y-25022118D01*
X24313938Y-25011062D01*
X24302882Y-24994517D01*
X24299000Y-24975000D01*
X24299000Y-24324998D01*
X24302882Y-24305481D01*
X24313938Y-24288936D01*
X24330483Y-24277880D01*
X24350000Y-24273998D01*
X25450000Y-24273998D01*
X25469517Y-24277880D01*
G37*
G36*
X25469517Y-22377881D02*
G01*
X25486062Y-22388937D01*
X25497118Y-22405482D01*
X25501000Y-22424999D01*
X25501000Y-23075001D01*
X25497118Y-23094518D01*
X25486062Y-23111063D01*
X25469517Y-23122119D01*
X25450000Y-23126001D01*
X24350000Y-23126001D01*
X24330483Y-23122119D01*
X24313938Y-23111063D01*
X24302882Y-23094518D01*
X24299000Y-23075001D01*
X24299000Y-22424999D01*
X24302882Y-22405482D01*
X24313938Y-22388937D01*
X24330483Y-22377881D01*
X24350000Y-22373999D01*
X25450000Y-22373999D01*
X25469517Y-22377881D01*
G37*
G36*
X2859517Y-20697882D02*
G01*
X2876062Y-20708938D01*
X2887118Y-20725483D01*
X2891000Y-20745000D01*
X2891000Y-21645000D01*
X2887118Y-21664517D01*
X2876062Y-21681062D01*
X2859517Y-21692118D01*
X2840000Y-21696000D01*
X840000Y-21696000D01*
X820483Y-21692118D01*
X803938Y-21681062D01*
X792882Y-21664517D01*
X789000Y-21645000D01*
X789000Y-20745000D01*
X792882Y-20725483D01*
X803938Y-20708938D01*
X820483Y-20697882D01*
X840000Y-20694000D01*
X2840000Y-20694000D01*
X2859517Y-20697882D01*
G37*
G36*
X28293983Y-20893936D02*
G01*
X28344180Y-20893936D01*
X28387524Y-20903149D01*
X28425659Y-20906905D01*
X28473566Y-20921437D01*
X28528424Y-20933098D01*
X28563530Y-20948728D01*
X28594566Y-20958143D01*
X28643884Y-20984504D01*
X28700500Y-21009711D01*
X28726822Y-21028835D01*
X28750232Y-21041348D01*
X28797988Y-21080540D01*
X28852887Y-21120427D01*
X28870711Y-21140223D01*
X28886675Y-21153324D01*
X28929572Y-21205594D01*
X28978924Y-21260405D01*
X28989292Y-21278363D01*
X28998651Y-21289767D01*
X29033273Y-21354542D01*
X29073104Y-21423530D01*
X29077685Y-21437630D01*
X29081856Y-21445433D01*
X29104852Y-21521242D01*
X29131311Y-21602672D01*
X29132242Y-21611532D01*
X29133094Y-21614340D01*
X29141384Y-21698513D01*
X29151000Y-21790000D01*
X29141383Y-21881494D01*
X29133094Y-21965659D01*
X29132242Y-21968466D01*
X29131311Y-21977328D01*
X29104848Y-22058771D01*
X29081856Y-22134566D01*
X29077686Y-22142366D01*
X29073104Y-22156470D01*
X29033266Y-22225470D01*
X28998651Y-22290232D01*
X28989294Y-22301633D01*
X28978924Y-22319595D01*
X28929563Y-22374415D01*
X28886675Y-22426675D01*
X28870714Y-22439773D01*
X28852887Y-22459573D01*
X28797977Y-22499467D01*
X28750232Y-22538651D01*
X28726827Y-22551161D01*
X28700500Y-22570289D01*
X28643873Y-22595500D01*
X28594566Y-22621856D01*
X28563537Y-22631268D01*
X28528424Y-22646902D01*
X28473555Y-22658564D01*
X28425659Y-22673094D01*
X28387532Y-22676849D01*
X28344180Y-22686064D01*
X28293973Y-22686064D01*
X28250000Y-22690395D01*
X28206027Y-22686064D01*
X28155820Y-22686064D01*
X28112467Y-22676849D01*
X28074340Y-22673094D01*
X28026441Y-22658563D01*
X27971576Y-22646902D01*
X27936464Y-22631269D01*
X27905433Y-22621856D01*
X27856120Y-22595498D01*
X27799500Y-22570289D01*
X27773175Y-22551163D01*
X27749767Y-22538651D01*
X27702013Y-22499460D01*
X27647113Y-22459573D01*
X27629287Y-22439776D01*
X27613324Y-22426675D01*
X27570425Y-22374402D01*
X27521076Y-22319595D01*
X27510708Y-22301637D01*
X27501348Y-22290232D01*
X27466719Y-22225447D01*
X27426896Y-22156470D01*
X27422315Y-22142371D01*
X27418143Y-22134566D01*
X27395136Y-22058725D01*
X27368689Y-21977328D01*
X27367758Y-21968471D01*
X27366905Y-21965659D01*
X27358600Y-21881342D01*
X27349000Y-21790000D01*
X27358599Y-21698664D01*
X27366905Y-21614340D01*
X27367758Y-21611527D01*
X27368689Y-21602672D01*
X27395132Y-21521288D01*
X27418143Y-21445433D01*
X27422315Y-21437626D01*
X27426896Y-21423530D01*
X27466712Y-21354565D01*
X27501348Y-21289767D01*
X27510710Y-21278359D01*
X27521076Y-21260405D01*
X27570416Y-21205607D01*
X27613324Y-21153324D01*
X27629291Y-21140219D01*
X27647113Y-21120427D01*
X27702002Y-21080546D01*
X27749767Y-21041348D01*
X27773180Y-21028833D01*
X27799500Y-21009711D01*
X27856109Y-20984506D01*
X27905433Y-20958143D01*
X27936471Y-20948727D01*
X27971576Y-20933098D01*
X28026430Y-20921438D01*
X28074340Y-20906905D01*
X28112476Y-20903148D01*
X28155820Y-20893936D01*
X28206016Y-20893936D01*
X28250000Y-20889604D01*
X28293983Y-20893936D01*
G37*
G36*
X2859517Y-19427882D02*
G01*
X2876062Y-19438938D01*
X2887118Y-19455483D01*
X2891000Y-19475000D01*
X2891000Y-20375000D01*
X2887118Y-20394517D01*
X2876062Y-20411062D01*
X2859517Y-20422118D01*
X2840000Y-20426000D01*
X840000Y-20426000D01*
X820483Y-20422118D01*
X803938Y-20411062D01*
X792882Y-20394517D01*
X789000Y-20375000D01*
X789000Y-19475000D01*
X792882Y-19455483D01*
X803938Y-19438938D01*
X820483Y-19427882D01*
X840000Y-19424000D01*
X2840000Y-19424000D01*
X2859517Y-19427882D01*
G37*
G36*
X2859517Y-18157882D02*
G01*
X2876062Y-18168938D01*
X2887118Y-18185483D01*
X2891000Y-18205000D01*
X2891000Y-19105000D01*
X2887118Y-19124517D01*
X2876062Y-19141062D01*
X2859517Y-19152118D01*
X2840000Y-19156000D01*
X840000Y-19156000D01*
X820483Y-19152118D01*
X803938Y-19141062D01*
X792882Y-19124517D01*
X789000Y-19105000D01*
X789000Y-18205000D01*
X792882Y-18185483D01*
X803938Y-18168938D01*
X820483Y-18157882D01*
X840000Y-18154000D01*
X2840000Y-18154000D01*
X2859517Y-18157882D01*
G37*
G36*
X28293983Y-18353936D02*
G01*
X28344180Y-18353936D01*
X28387524Y-18363149D01*
X28425659Y-18366905D01*
X28473566Y-18381437D01*
X28528424Y-18393098D01*
X28563530Y-18408728D01*
X28594566Y-18418143D01*
X28643884Y-18444504D01*
X28700500Y-18469711D01*
X28726822Y-18488835D01*
X28750232Y-18501348D01*
X28797988Y-18540540D01*
X28852887Y-18580427D01*
X28870711Y-18600223D01*
X28886675Y-18613324D01*
X28929572Y-18665594D01*
X28978924Y-18720405D01*
X28989292Y-18738363D01*
X28998651Y-18749767D01*
X29033273Y-18814542D01*
X29073104Y-18883530D01*
X29077685Y-18897630D01*
X29081856Y-18905433D01*
X29104852Y-18981242D01*
X29131311Y-19062672D01*
X29132242Y-19071532D01*
X29133094Y-19074340D01*
X29141384Y-19158513D01*
X29151000Y-19250000D01*
X29141383Y-19341494D01*
X29133094Y-19425659D01*
X29132242Y-19428466D01*
X29131311Y-19437328D01*
X29104848Y-19518771D01*
X29081856Y-19594566D01*
X29077686Y-19602366D01*
X29073104Y-19616470D01*
X29033266Y-19685470D01*
X28998651Y-19750232D01*
X28989294Y-19761633D01*
X28978924Y-19779595D01*
X28929563Y-19834415D01*
X28886675Y-19886675D01*
X28870714Y-19899773D01*
X28852887Y-19919573D01*
X28797977Y-19959467D01*
X28750232Y-19998651D01*
X28726827Y-20011161D01*
X28700500Y-20030289D01*
X28643873Y-20055500D01*
X28594566Y-20081856D01*
X28563537Y-20091268D01*
X28528424Y-20106902D01*
X28473555Y-20118564D01*
X28425659Y-20133094D01*
X28387532Y-20136849D01*
X28344180Y-20146064D01*
X28293973Y-20146064D01*
X28250000Y-20150395D01*
X28206027Y-20146064D01*
X28155820Y-20146064D01*
X28112467Y-20136849D01*
X28074340Y-20133094D01*
X28026441Y-20118563D01*
X27971576Y-20106902D01*
X27936464Y-20091269D01*
X27905433Y-20081856D01*
X27856120Y-20055498D01*
X27799500Y-20030289D01*
X27773175Y-20011163D01*
X27749767Y-19998651D01*
X27702013Y-19959460D01*
X27647113Y-19919573D01*
X27629287Y-19899776D01*
X27613324Y-19886675D01*
X27570425Y-19834402D01*
X27521076Y-19779595D01*
X27510708Y-19761637D01*
X27501348Y-19750232D01*
X27466719Y-19685447D01*
X27426896Y-19616470D01*
X27422315Y-19602371D01*
X27418143Y-19594566D01*
X27395136Y-19518725D01*
X27368689Y-19437328D01*
X27367758Y-19428471D01*
X27366905Y-19425659D01*
X27358601Y-19341349D01*
X27349000Y-19250000D01*
X27358598Y-19158672D01*
X27366905Y-19074340D01*
X27367758Y-19071527D01*
X27368689Y-19062672D01*
X27395132Y-18981288D01*
X27418143Y-18905433D01*
X27422315Y-18897626D01*
X27426896Y-18883530D01*
X27466712Y-18814565D01*
X27501348Y-18749767D01*
X27510710Y-18738359D01*
X27521076Y-18720405D01*
X27570416Y-18665607D01*
X27613324Y-18613324D01*
X27629291Y-18600219D01*
X27647113Y-18580427D01*
X27702002Y-18540546D01*
X27749767Y-18501348D01*
X27773180Y-18488833D01*
X27799500Y-18469711D01*
X27856109Y-18444506D01*
X27905433Y-18418143D01*
X27936471Y-18408727D01*
X27971576Y-18393098D01*
X28026430Y-18381438D01*
X28074340Y-18366905D01*
X28112476Y-18363148D01*
X28155820Y-18353936D01*
X28206016Y-18353936D01*
X28250000Y-18349604D01*
X28293983Y-18353936D01*
G37*
G36*
X2859517Y-13077882D02*
G01*
X2876062Y-13088938D01*
X2887118Y-13105483D01*
X2891000Y-13125000D01*
X2891000Y-14025000D01*
X2887118Y-14044517D01*
X2876062Y-14061062D01*
X2859517Y-14072118D01*
X2840000Y-14076000D01*
X840000Y-14076000D01*
X820483Y-14072118D01*
X803938Y-14061062D01*
X792882Y-14044517D01*
X789000Y-14025000D01*
X789000Y-13125000D01*
X792882Y-13105483D01*
X803938Y-13088938D01*
X820483Y-13077882D01*
X840000Y-13074000D01*
X2840000Y-13074000D01*
X2859517Y-13077882D01*
G37*
G36*
X14369517Y-13202882D02*
G01*
X14386062Y-13213938D01*
X14397118Y-13230483D01*
X14401000Y-13250000D01*
X14401000Y-18250000D01*
X14397118Y-18269517D01*
X14386062Y-18286062D01*
X14369517Y-18297118D01*
X14350000Y-18301000D01*
X9350000Y-18301000D01*
X9330483Y-18297118D01*
X9313938Y-18286062D01*
X9302882Y-18269517D01*
X9299000Y-18250000D01*
X9299000Y-13250000D01*
X9302882Y-13230483D01*
X9313938Y-13213938D01*
X9330483Y-13202882D01*
X9350000Y-13199000D01*
X14350000Y-13199000D01*
X14369517Y-13202882D01*
G37*
G36*
X2859517Y-16887882D02*
G01*
X2876062Y-16898938D01*
X2887118Y-16915483D01*
X2891000Y-16935000D01*
X2891000Y-17835000D01*
X2887118Y-17854517D01*
X2876062Y-17871062D01*
X2859517Y-17882118D01*
X2840000Y-17886000D01*
X840000Y-17886000D01*
X820483Y-17882118D01*
X803938Y-17871062D01*
X792882Y-17854517D01*
X789000Y-17835000D01*
X789000Y-16935000D01*
X792882Y-16915483D01*
X803938Y-16898938D01*
X820483Y-16887882D01*
X840000Y-16884000D01*
X2840000Y-16884000D01*
X2859517Y-16887882D01*
G37*
G36*
X23618914Y-14981995D02*
G01*
X23634726Y-14988976D01*
X23642531Y-14990213D01*
X23675039Y-15006776D01*
X23720106Y-15026676D01*
X23798324Y-15104894D01*
X23818226Y-15149967D01*
X23834786Y-15182468D01*
X23836021Y-15190270D01*
X23843005Y-15206086D01*
X23851000Y-15275000D01*
X23851000Y-16225000D01*
X23843005Y-16293914D01*
X23836021Y-16309729D01*
X23834786Y-16317531D01*
X23818229Y-16350024D01*
X23798324Y-16395106D01*
X23720106Y-16473324D01*
X23675024Y-16493229D01*
X23642531Y-16509786D01*
X23634729Y-16511021D01*
X23618914Y-16518005D01*
X23550000Y-16526000D01*
X23050000Y-16526000D01*
X22981086Y-16518005D01*
X22965270Y-16511021D01*
X22957468Y-16509786D01*
X22924967Y-16493226D01*
X22879894Y-16473324D01*
X22801676Y-16395106D01*
X22781776Y-16350039D01*
X22765213Y-16317531D01*
X22763976Y-16309726D01*
X22756995Y-16293914D01*
X22749000Y-16225000D01*
X22749000Y-15275000D01*
X22756995Y-15206086D01*
X22763976Y-15190274D01*
X22765213Y-15182468D01*
X22781780Y-15149953D01*
X22801676Y-15104894D01*
X22879894Y-15026676D01*
X22924953Y-15006780D01*
X22957468Y-14990213D01*
X22965274Y-14988976D01*
X22981086Y-14981995D01*
X23050000Y-14974000D01*
X23550000Y-14974000D01*
X23618914Y-14981995D01*
G37*
G36*
X25518914Y-14981995D02*
G01*
X25534726Y-14988976D01*
X25542531Y-14990213D01*
X25575039Y-15006776D01*
X25620106Y-15026676D01*
X25698324Y-15104894D01*
X25718226Y-15149967D01*
X25734786Y-15182468D01*
X25736021Y-15190270D01*
X25743005Y-15206086D01*
X25751000Y-15275000D01*
X25751000Y-16225000D01*
X25743005Y-16293914D01*
X25736021Y-16309729D01*
X25734786Y-16317531D01*
X25718229Y-16350024D01*
X25698324Y-16395106D01*
X25620106Y-16473324D01*
X25575024Y-16493229D01*
X25542531Y-16509786D01*
X25534729Y-16511021D01*
X25518914Y-16518005D01*
X25450000Y-16526000D01*
X24950000Y-16526000D01*
X24881086Y-16518005D01*
X24865270Y-16511021D01*
X24857468Y-16509786D01*
X24824967Y-16493226D01*
X24779894Y-16473324D01*
X24701676Y-16395106D01*
X24681776Y-16350039D01*
X24665213Y-16317531D01*
X24663976Y-16309726D01*
X24656995Y-16293914D01*
X24649000Y-16225000D01*
X24649000Y-15275000D01*
X24656995Y-15206086D01*
X24663976Y-15190274D01*
X24665213Y-15182468D01*
X24681780Y-15149953D01*
X24701676Y-15104894D01*
X24779894Y-15026676D01*
X24824953Y-15006780D01*
X24857468Y-14990213D01*
X24865274Y-14988976D01*
X24881086Y-14981995D01*
X24950000Y-14974000D01*
X25450000Y-14974000D01*
X25518914Y-14981995D01*
G37*
G36*
X29119517Y-15812882D02*
G01*
X29136062Y-15823938D01*
X29147118Y-15840483D01*
X29151000Y-15860000D01*
X29151000Y-17560000D01*
X29147118Y-17579517D01*
X29136062Y-17596062D01*
X29119517Y-17607118D01*
X29100000Y-17611000D01*
X27400000Y-17611000D01*
X27380483Y-17607118D01*
X27363938Y-17596062D01*
X27352882Y-17579517D01*
X27349000Y-17560000D01*
X27349000Y-15860000D01*
X27352882Y-15840483D01*
X27363938Y-15823938D01*
X27380483Y-15812882D01*
X27400000Y-15809000D01*
X29100000Y-15809000D01*
X29119517Y-15812882D01*
G37*
G36*
X2859517Y-15617882D02*
G01*
X2876062Y-15628938D01*
X2887118Y-15645483D01*
X2891000Y-15665000D01*
X2891000Y-16565000D01*
X2887118Y-16584517D01*
X2876062Y-16601062D01*
X2859517Y-16612118D01*
X2840000Y-16616000D01*
X840000Y-16616000D01*
X820483Y-16612118D01*
X803938Y-16601062D01*
X792882Y-16584517D01*
X789000Y-16565000D01*
X789000Y-15665000D01*
X792882Y-15645483D01*
X803938Y-15628938D01*
X820483Y-15617882D01*
X840000Y-15614000D01*
X2840000Y-15614000D01*
X2859517Y-15617882D01*
G37*
G36*
X2859517Y-14347882D02*
G01*
X2876062Y-14358938D01*
X2887118Y-14375483D01*
X2891000Y-14395000D01*
X2891000Y-15295000D01*
X2887118Y-15314517D01*
X2876062Y-15331062D01*
X2859517Y-15342118D01*
X2840000Y-15346000D01*
X840000Y-15346000D01*
X820483Y-15342118D01*
X803938Y-15331062D01*
X792882Y-15314517D01*
X789000Y-15295000D01*
X789000Y-14395000D01*
X792882Y-14375483D01*
X803938Y-14358938D01*
X820483Y-14347882D01*
X840000Y-14344000D01*
X2840000Y-14344000D01*
X2859517Y-14347882D01*
G37*
G36*
X23444899Y-13486959D02*
G01*
X23444904Y-13486960D01*
X23462089Y-13498440D01*
X23537911Y-13498440D01*
X23555093Y-13486961D01*
X23555100Y-13486959D01*
X23555101Y-13486959D01*
X23560126Y-13485959D01*
X23569979Y-13484000D01*
X23930022Y-13484000D01*
X23930023Y-13484000D01*
X23944899Y-13486959D01*
X23944904Y-13486960D01*
X23962089Y-13498440D01*
X24037911Y-13498440D01*
X24055093Y-13486961D01*
X24055100Y-13486959D01*
X24055101Y-13486959D01*
X24060126Y-13485959D01*
X24069979Y-13484000D01*
X24430022Y-13484000D01*
X24430023Y-13484000D01*
X24444899Y-13486959D01*
X24444904Y-13486960D01*
X24462089Y-13498440D01*
X24537911Y-13498440D01*
X24555093Y-13486961D01*
X24555100Y-13486959D01*
X24555101Y-13486959D01*
X24560126Y-13485959D01*
X24569979Y-13484000D01*
X24930022Y-13484000D01*
X24930023Y-13484000D01*
X24944899Y-13486959D01*
X24944904Y-13486960D01*
X24962089Y-13498440D01*
X25037911Y-13498440D01*
X25055093Y-13486961D01*
X25055100Y-13486959D01*
X25055101Y-13486959D01*
X25060126Y-13485959D01*
X25069979Y-13484000D01*
X25430022Y-13484000D01*
X25430023Y-13484000D01*
X25444899Y-13486959D01*
X25444904Y-13486960D01*
X25462089Y-13498440D01*
X25537911Y-13498440D01*
X25555093Y-13486961D01*
X25555100Y-13486959D01*
X25555101Y-13486959D01*
X25560126Y-13485959D01*
X25569979Y-13484000D01*
X25930022Y-13484000D01*
X25930023Y-13484000D01*
X25944899Y-13486959D01*
X25944904Y-13486960D01*
X25962089Y-13498440D01*
X26037911Y-13498440D01*
X26055093Y-13486961D01*
X26055100Y-13486959D01*
X26055101Y-13486959D01*
X26060126Y-13485959D01*
X26069979Y-13484000D01*
X26430022Y-13484000D01*
X26430023Y-13484000D01*
X26444899Y-13486959D01*
X26461769Y-13498231D01*
X26473041Y-13515101D01*
X26475999Y-13529978D01*
X26476000Y-14130023D01*
X26473041Y-14144899D01*
X26461769Y-14161769D01*
X26444899Y-14173041D01*
X26430022Y-14175999D01*
X26069977Y-14176000D01*
X26055101Y-14173041D01*
X26038231Y-14161769D01*
X26038229Y-14161766D01*
X26037919Y-14161559D01*
X25962081Y-14161559D01*
X25961770Y-14161766D01*
X25961769Y-14161769D01*
X25944899Y-14173041D01*
X25930022Y-14175999D01*
X25569977Y-14176000D01*
X25555101Y-14173041D01*
X25538231Y-14161769D01*
X25538229Y-14161766D01*
X25537919Y-14161559D01*
X25462081Y-14161559D01*
X25461770Y-14161766D01*
X25461769Y-14161769D01*
X25444899Y-14173041D01*
X25430022Y-14175999D01*
X25069977Y-14176000D01*
X25055101Y-14173041D01*
X25038231Y-14161769D01*
X25038229Y-14161766D01*
X25037919Y-14161559D01*
X24962081Y-14161559D01*
X24961770Y-14161766D01*
X24961769Y-14161769D01*
X24944899Y-14173041D01*
X24930022Y-14175999D01*
X24569977Y-14176000D01*
X24555101Y-14173041D01*
X24538231Y-14161769D01*
X24538229Y-14161766D01*
X24537919Y-14161559D01*
X24462081Y-14161559D01*
X24461770Y-14161766D01*
X24461769Y-14161769D01*
X24444899Y-14173041D01*
X24430022Y-14175999D01*
X24069977Y-14176000D01*
X24055101Y-14173041D01*
X24038231Y-14161769D01*
X24038229Y-14161766D01*
X24037919Y-14161559D01*
X23962081Y-14161559D01*
X23961770Y-14161766D01*
X23961769Y-14161769D01*
X23944899Y-14173041D01*
X23930022Y-14175999D01*
X23569977Y-14176000D01*
X23555101Y-14173041D01*
X23538231Y-14161769D01*
X23538229Y-14161766D01*
X23537919Y-14161559D01*
X23462081Y-14161559D01*
X23461770Y-14161766D01*
X23461769Y-14161769D01*
X23444899Y-14173041D01*
X23430022Y-14175999D01*
X23069977Y-14176000D01*
X23055101Y-14173041D01*
X23038231Y-14161769D01*
X23026959Y-14144899D01*
X23024001Y-14130023D01*
X23024000Y-14130020D01*
X23024000Y-13529977D01*
X23026959Y-13515100D01*
X23038231Y-13498231D01*
X23055098Y-13486960D01*
X23055100Y-13486959D01*
X23055101Y-13486959D01*
X23060082Y-13485968D01*
X23069979Y-13484000D01*
X23430022Y-13484000D01*
X23430023Y-13484000D01*
X23444899Y-13486959D01*
G37*
G36*
X2859517Y-11807882D02*
G01*
X2876062Y-11818938D01*
X2887118Y-11835483D01*
X2891000Y-11855000D01*
X2891000Y-12755000D01*
X2887118Y-12774517D01*
X2876062Y-12791062D01*
X2859517Y-12802118D01*
X2840000Y-12806000D01*
X840000Y-12806000D01*
X820483Y-12802118D01*
X803938Y-12791062D01*
X792882Y-12774517D01*
X789000Y-12755000D01*
X789000Y-11855000D01*
X792882Y-11835483D01*
X803938Y-11818938D01*
X820483Y-11807882D01*
X840000Y-11804000D01*
X2840000Y-11804000D01*
X2859517Y-11807882D01*
G37*
G36*
X23149899Y-12441959D02*
G01*
X23166769Y-12453231D01*
X23178041Y-12470101D01*
X23180999Y-12484978D01*
X23181000Y-12845023D01*
X23178041Y-12859899D01*
X23166769Y-12876769D01*
X23149899Y-12888041D01*
X23135022Y-12890999D01*
X22534977Y-12891000D01*
X22520101Y-12888041D01*
X22503231Y-12876769D01*
X22491959Y-12859899D01*
X22489001Y-12845023D01*
X22489000Y-12845020D01*
X22489000Y-12484977D01*
X22491959Y-12470100D01*
X22503231Y-12453231D01*
X22520098Y-12441960D01*
X22520100Y-12441959D01*
X22520101Y-12441959D01*
X22525082Y-12440968D01*
X22534979Y-12439000D01*
X23135022Y-12439000D01*
X23135023Y-12439000D01*
X23149899Y-12441959D01*
G37*
G36*
X26979899Y-12441959D02*
G01*
X26996769Y-12453231D01*
X27008041Y-12470101D01*
X27010999Y-12484978D01*
X27011000Y-12845023D01*
X27008041Y-12859899D01*
X26996769Y-12876769D01*
X26979899Y-12888041D01*
X26965022Y-12890999D01*
X26364977Y-12891000D01*
X26350101Y-12888041D01*
X26333231Y-12876769D01*
X26321959Y-12859899D01*
X26319001Y-12845023D01*
X26319000Y-12845020D01*
X26319000Y-12484977D01*
X26321959Y-12470100D01*
X26333231Y-12453231D01*
X26350098Y-12441960D01*
X26350100Y-12441959D01*
X26350101Y-12441959D01*
X26355082Y-12440968D01*
X26364979Y-12439000D01*
X26965022Y-12439000D01*
X26965023Y-12439000D01*
X26979899Y-12441959D01*
G37*
G36*
X2859517Y-10537882D02*
G01*
X2876062Y-10548938D01*
X2887118Y-10565483D01*
X2891000Y-10585000D01*
X2891000Y-11485000D01*
X2887118Y-11504517D01*
X2876062Y-11521062D01*
X2859517Y-11532118D01*
X2840000Y-11536000D01*
X840000Y-11536000D01*
X820483Y-11532118D01*
X803938Y-11521062D01*
X792882Y-11504517D01*
X789000Y-11485000D01*
X789000Y-10585000D01*
X792882Y-10565483D01*
X803938Y-10548938D01*
X820483Y-10537882D01*
X840000Y-10534000D01*
X2840000Y-10534000D01*
X2859517Y-10537882D01*
G37*
G36*
X23444899Y-11156959D02*
G01*
X23444904Y-11156960D01*
X23462089Y-11168440D01*
X23537911Y-11168440D01*
X23555093Y-11156961D01*
X23555100Y-11156959D01*
X23555101Y-11156959D01*
X23560126Y-11155959D01*
X23569979Y-11154000D01*
X23930022Y-11154000D01*
X23930023Y-11154000D01*
X23944899Y-11156959D01*
X23944904Y-11156960D01*
X23962089Y-11168440D01*
X24037911Y-11168440D01*
X24055093Y-11156961D01*
X24055100Y-11156959D01*
X24055101Y-11156959D01*
X24060126Y-11155959D01*
X24069979Y-11154000D01*
X24430022Y-11154000D01*
X24430023Y-11154000D01*
X24444899Y-11156959D01*
X24444904Y-11156960D01*
X24462089Y-11168440D01*
X24537911Y-11168440D01*
X24555093Y-11156961D01*
X24555100Y-11156959D01*
X24555101Y-11156959D01*
X24560126Y-11155959D01*
X24569979Y-11154000D01*
X24930022Y-11154000D01*
X24930023Y-11154000D01*
X24944899Y-11156959D01*
X24944904Y-11156960D01*
X24962089Y-11168440D01*
X25037911Y-11168440D01*
X25055093Y-11156961D01*
X25055100Y-11156959D01*
X25055101Y-11156959D01*
X25060126Y-11155959D01*
X25069979Y-11154000D01*
X25430022Y-11154000D01*
X25430023Y-11154000D01*
X25444899Y-11156959D01*
X25444904Y-11156960D01*
X25462089Y-11168440D01*
X25537911Y-11168440D01*
X25555093Y-11156961D01*
X25555100Y-11156959D01*
X25555101Y-11156959D01*
X25560126Y-11155959D01*
X25569979Y-11154000D01*
X25930022Y-11154000D01*
X25930023Y-11154000D01*
X25944899Y-11156959D01*
X25944904Y-11156960D01*
X25962089Y-11168440D01*
X26037911Y-11168440D01*
X26055093Y-11156961D01*
X26055100Y-11156959D01*
X26055101Y-11156959D01*
X26060126Y-11155959D01*
X26069979Y-11154000D01*
X26430022Y-11154000D01*
X26430023Y-11154000D01*
X26444899Y-11156959D01*
X26461769Y-11168231D01*
X26473041Y-11185101D01*
X26475999Y-11199978D01*
X26476000Y-11800023D01*
X26473041Y-11814899D01*
X26461769Y-11831769D01*
X26444899Y-11843041D01*
X26430022Y-11845999D01*
X26069977Y-11846000D01*
X26055101Y-11843041D01*
X26038231Y-11831769D01*
X26038229Y-11831766D01*
X26037919Y-11831559D01*
X25962081Y-11831559D01*
X25961770Y-11831766D01*
X25961769Y-11831769D01*
X25944899Y-11843041D01*
X25930022Y-11845999D01*
X25569977Y-11846000D01*
X25555101Y-11843041D01*
X25538231Y-11831769D01*
X25538229Y-11831766D01*
X25537919Y-11831559D01*
X25462081Y-11831559D01*
X25461770Y-11831766D01*
X25461769Y-11831769D01*
X25444899Y-11843041D01*
X25430022Y-11845999D01*
X25069977Y-11846000D01*
X25055101Y-11843041D01*
X25038231Y-11831769D01*
X25038229Y-11831766D01*
X25037919Y-11831559D01*
X24962081Y-11831559D01*
X24961770Y-11831766D01*
X24961769Y-11831769D01*
X24944899Y-11843041D01*
X24930022Y-11845999D01*
X24569977Y-11846000D01*
X24555101Y-11843041D01*
X24538231Y-11831769D01*
X24538229Y-11831766D01*
X24537919Y-11831559D01*
X24462081Y-11831559D01*
X24461770Y-11831766D01*
X24461769Y-11831769D01*
X24444899Y-11843041D01*
X24430022Y-11845999D01*
X24069977Y-11846000D01*
X24055101Y-11843041D01*
X24038231Y-11831769D01*
X24038229Y-11831766D01*
X24037919Y-11831559D01*
X23962081Y-11831559D01*
X23961770Y-11831766D01*
X23961769Y-11831769D01*
X23944899Y-11843041D01*
X23930022Y-11845999D01*
X23569977Y-11846000D01*
X23555101Y-11843041D01*
X23538231Y-11831769D01*
X23538229Y-11831766D01*
X23537919Y-11831559D01*
X23462081Y-11831559D01*
X23461770Y-11831766D01*
X23461769Y-11831769D01*
X23444899Y-11843041D01*
X23430022Y-11845999D01*
X23069977Y-11846000D01*
X23055101Y-11843041D01*
X23038231Y-11831769D01*
X23026959Y-11814899D01*
X23024001Y-11800023D01*
X23024000Y-11800020D01*
X23024000Y-11199977D01*
X23026959Y-11185100D01*
X23038231Y-11168231D01*
X23055098Y-11156960D01*
X23055100Y-11156959D01*
X23055101Y-11156959D01*
X23060082Y-11155968D01*
X23069979Y-11154000D01*
X23430022Y-11154000D01*
X23430023Y-11154000D01*
X23444899Y-11156959D01*
G37*
G36*
X3309517Y-7202882D02*
G01*
X3326062Y-7213938D01*
X3337118Y-7230483D01*
X3341000Y-7250000D01*
X3341000Y-9250000D01*
X3337118Y-9269517D01*
X3326062Y-9286062D01*
X3309517Y-9297118D01*
X3290000Y-9301000D01*
X2390000Y-9301000D01*
X2370483Y-9297118D01*
X2353938Y-9286062D01*
X2342882Y-9269517D01*
X2339000Y-9250000D01*
X2339000Y-7250000D01*
X2342882Y-7230483D01*
X2353938Y-7213938D01*
X2370483Y-7202882D01*
X2390000Y-7199000D01*
X3290000Y-7199000D01*
X3309517Y-7202882D01*
G37*
G36*
X4579517Y-7202882D02*
G01*
X4596062Y-7213938D01*
X4607118Y-7230483D01*
X4611000Y-7250000D01*
X4611000Y-9250000D01*
X4607118Y-9269517D01*
X4596062Y-9286062D01*
X4579517Y-9297118D01*
X4560000Y-9301000D01*
X3660000Y-9301000D01*
X3640483Y-9297118D01*
X3623938Y-9286062D01*
X3612882Y-9269517D01*
X3609000Y-9250000D01*
X3609000Y-7250000D01*
X3612882Y-7230483D01*
X3623938Y-7213938D01*
X3640483Y-7202882D01*
X3660000Y-7199000D01*
X4560000Y-7199000D01*
X4579517Y-7202882D01*
G37*
G36*
X5849517Y-7202882D02*
G01*
X5866062Y-7213938D01*
X5877118Y-7230483D01*
X5881000Y-7250000D01*
X5881000Y-9250000D01*
X5877118Y-9269517D01*
X5866062Y-9286062D01*
X5849517Y-9297118D01*
X5830000Y-9301000D01*
X4930000Y-9301000D01*
X4910483Y-9297118D01*
X4893938Y-9286062D01*
X4882882Y-9269517D01*
X4879000Y-9250000D01*
X4879000Y-7250000D01*
X4882882Y-7230483D01*
X4893938Y-7213938D01*
X4910483Y-7202882D01*
X4930000Y-7199000D01*
X5830000Y-7199000D01*
X5849517Y-7202882D01*
G37*
G36*
X7119517Y-7202882D02*
G01*
X7136062Y-7213938D01*
X7147118Y-7230483D01*
X7151000Y-7250000D01*
X7151000Y-9250000D01*
X7147118Y-9269517D01*
X7136062Y-9286062D01*
X7119517Y-9297118D01*
X7100000Y-9301000D01*
X6200000Y-9301000D01*
X6180483Y-9297118D01*
X6163938Y-9286062D01*
X6152882Y-9269517D01*
X6149000Y-9250000D01*
X6149000Y-7250000D01*
X6152882Y-7230483D01*
X6163938Y-7213938D01*
X6180483Y-7202882D01*
X6200000Y-7199000D01*
X7100000Y-7199000D01*
X7119517Y-7202882D01*
G37*
G36*
X8389517Y-7202882D02*
G01*
X8406062Y-7213938D01*
X8417118Y-7230483D01*
X8421000Y-7250000D01*
X8421000Y-9250000D01*
X8417118Y-9269517D01*
X8406062Y-9286062D01*
X8389517Y-9297118D01*
X8370000Y-9301000D01*
X7470000Y-9301000D01*
X7450483Y-9297118D01*
X7433938Y-9286062D01*
X7422882Y-9269517D01*
X7419000Y-9250000D01*
X7419000Y-7250000D01*
X7422882Y-7230483D01*
X7433938Y-7213938D01*
X7450483Y-7202882D01*
X7470000Y-7199000D01*
X8370000Y-7199000D01*
X8389517Y-7202882D01*
G37*
G36*
X9659517Y-7202882D02*
G01*
X9676062Y-7213938D01*
X9687118Y-7230483D01*
X9691000Y-7250000D01*
X9691000Y-9250000D01*
X9687118Y-9269517D01*
X9676062Y-9286062D01*
X9659517Y-9297118D01*
X9640000Y-9301000D01*
X8740000Y-9301000D01*
X8720483Y-9297118D01*
X8703938Y-9286062D01*
X8692882Y-9269517D01*
X8689000Y-9250000D01*
X8689000Y-7250000D01*
X8692882Y-7230483D01*
X8703938Y-7213938D01*
X8720483Y-7202882D01*
X8740000Y-7199000D01*
X9640000Y-7199000D01*
X9659517Y-7202882D01*
G37*
G36*
X10929517Y-7202882D02*
G01*
X10946062Y-7213938D01*
X10957118Y-7230483D01*
X10961000Y-7250000D01*
X10961000Y-9250000D01*
X10957118Y-9269517D01*
X10946062Y-9286062D01*
X10929517Y-9297118D01*
X10910000Y-9301000D01*
X10010000Y-9301000D01*
X9990483Y-9297118D01*
X9973938Y-9286062D01*
X9962882Y-9269517D01*
X9959000Y-9250000D01*
X9959000Y-7250000D01*
X9962882Y-7230483D01*
X9973938Y-7213938D01*
X9990483Y-7202882D01*
X10010000Y-7199000D01*
X10910000Y-7199000D01*
X10929517Y-7202882D01*
G37*
G36*
X12199517Y-7202882D02*
G01*
X12216062Y-7213938D01*
X12227118Y-7230483D01*
X12231000Y-7250000D01*
X12231000Y-9250000D01*
X12227118Y-9269517D01*
X12216062Y-9286062D01*
X12199517Y-9297118D01*
X12180000Y-9301000D01*
X11280000Y-9301000D01*
X11260483Y-9297118D01*
X11243938Y-9286062D01*
X11232882Y-9269517D01*
X11229000Y-9250000D01*
X11229000Y-7250000D01*
X11232882Y-7230483D01*
X11243938Y-7213938D01*
X11260483Y-7202882D01*
X11280000Y-7199000D01*
X12180000Y-7199000D01*
X12199517Y-7202882D01*
G37*
G36*
X13469517Y-7202882D02*
G01*
X13486062Y-7213938D01*
X13497118Y-7230483D01*
X13501000Y-7250000D01*
X13501000Y-9250000D01*
X13497118Y-9269517D01*
X13486062Y-9286062D01*
X13469517Y-9297118D01*
X13450000Y-9301000D01*
X12550000Y-9301000D01*
X12530483Y-9297118D01*
X12513938Y-9286062D01*
X12502882Y-9269517D01*
X12499000Y-9250000D01*
X12499000Y-7250000D01*
X12502882Y-7230483D01*
X12513938Y-7213938D01*
X12530483Y-7202882D01*
X12550000Y-7199000D01*
X13450000Y-7199000D01*
X13469517Y-7202882D01*
G37*
G36*
X14739517Y-7202882D02*
G01*
X14756062Y-7213938D01*
X14767118Y-7230483D01*
X14771000Y-7250000D01*
X14771000Y-9250000D01*
X14767118Y-9269517D01*
X14756062Y-9286062D01*
X14739517Y-9297118D01*
X14720000Y-9301000D01*
X13820000Y-9301000D01*
X13800483Y-9297118D01*
X13783938Y-9286062D01*
X13772882Y-9269517D01*
X13769000Y-9250000D01*
X13769000Y-7250000D01*
X13772882Y-7230483D01*
X13783938Y-7213938D01*
X13800483Y-7202882D01*
X13820000Y-7199000D01*
X14720000Y-7199000D01*
X14739517Y-7202882D01*
G37*
G36*
X16009517Y-7202882D02*
G01*
X16026062Y-7213938D01*
X16037118Y-7230483D01*
X16041000Y-7250000D01*
X16041000Y-9250000D01*
X16037118Y-9269517D01*
X16026062Y-9286062D01*
X16009517Y-9297118D01*
X15990000Y-9301000D01*
X15090000Y-9301000D01*
X15070483Y-9297118D01*
X15053938Y-9286062D01*
X15042882Y-9269517D01*
X15039000Y-9250000D01*
X15039000Y-7250000D01*
X15042882Y-7230483D01*
X15053938Y-7213938D01*
X15070483Y-7202882D01*
X15090000Y-7199000D01*
X15990000Y-7199000D01*
X16009517Y-7202882D01*
G37*
G36*
X17279517Y-7202882D02*
G01*
X17296062Y-7213938D01*
X17307118Y-7230483D01*
X17311000Y-7250000D01*
X17311000Y-9250000D01*
X17307118Y-9269517D01*
X17296062Y-9286062D01*
X17279517Y-9297118D01*
X17260000Y-9301000D01*
X16360000Y-9301000D01*
X16340483Y-9297118D01*
X16323938Y-9286062D01*
X16312882Y-9269517D01*
X16309000Y-9250000D01*
X16309000Y-7250000D01*
X16312882Y-7230483D01*
X16323938Y-7213938D01*
X16340483Y-7202882D01*
X16360000Y-7199000D01*
X17260000Y-7199000D01*
X17279517Y-7202882D01*
G37*
G36*
X18549517Y-7202882D02*
G01*
X18566062Y-7213938D01*
X18577118Y-7230483D01*
X18581000Y-7250000D01*
X18581000Y-9250000D01*
X18577118Y-9269517D01*
X18566062Y-9286062D01*
X18549517Y-9297118D01*
X18530000Y-9301000D01*
X17630000Y-9301000D01*
X17610483Y-9297118D01*
X17593938Y-9286062D01*
X17582882Y-9269517D01*
X17579000Y-9250000D01*
X17579000Y-7250000D01*
X17582882Y-7230483D01*
X17593938Y-7213938D01*
X17610483Y-7202882D01*
X17630000Y-7199000D01*
X18530000Y-7199000D01*
X18549517Y-7202882D01*
G37*
G36*
X19819517Y-7202882D02*
G01*
X19836062Y-7213938D01*
X19847118Y-7230483D01*
X19851000Y-7250000D01*
X19851000Y-9250000D01*
X19847118Y-9269517D01*
X19836062Y-9286062D01*
X19819517Y-9297118D01*
X19800000Y-9301000D01*
X18900000Y-9301000D01*
X18880483Y-9297118D01*
X18863938Y-9286062D01*
X18852882Y-9269517D01*
X18849000Y-9250000D01*
X18849000Y-7250000D01*
X18852882Y-7230483D01*
X18863938Y-7213938D01*
X18880483Y-7202882D01*
X18900000Y-7199000D01*
X19800000Y-7199000D01*
X19819517Y-7202882D01*
G37*
G36*
X23568914Y-8731995D02*
G01*
X23584726Y-8738976D01*
X23592531Y-8740213D01*
X23625039Y-8756776D01*
X23670106Y-8776676D01*
X23748324Y-8854894D01*
X23768226Y-8899967D01*
X23784786Y-8932468D01*
X23786021Y-8940270D01*
X23793005Y-8956086D01*
X23801000Y-9025000D01*
X23801000Y-9975000D01*
X23793005Y-10043914D01*
X23786021Y-10059729D01*
X23784786Y-10067531D01*
X23768229Y-10100024D01*
X23748324Y-10145106D01*
X23670106Y-10223324D01*
X23625024Y-10243229D01*
X23592531Y-10259786D01*
X23584729Y-10261021D01*
X23568914Y-10268005D01*
X23500000Y-10276000D01*
X23000000Y-10276000D01*
X22931086Y-10268005D01*
X22915270Y-10261021D01*
X22907468Y-10259786D01*
X22874967Y-10243226D01*
X22829894Y-10223324D01*
X22751676Y-10145106D01*
X22731776Y-10100039D01*
X22715213Y-10067531D01*
X22713976Y-10059726D01*
X22706995Y-10043914D01*
X22699000Y-9975000D01*
X22699000Y-9025000D01*
X22706995Y-8956086D01*
X22713976Y-8940274D01*
X22715213Y-8932468D01*
X22731780Y-8899953D01*
X22751676Y-8854894D01*
X22829894Y-8776676D01*
X22874953Y-8756780D01*
X22907468Y-8740213D01*
X22915274Y-8738976D01*
X22931086Y-8731995D01*
X23000000Y-8724000D01*
X23500000Y-8724000D01*
X23568914Y-8731995D01*
G37*
G36*
X25468914Y-8731995D02*
G01*
X25484726Y-8738976D01*
X25492531Y-8740213D01*
X25525039Y-8756776D01*
X25570106Y-8776676D01*
X25648324Y-8854894D01*
X25668226Y-8899967D01*
X25684786Y-8932468D01*
X25686021Y-8940270D01*
X25693005Y-8956086D01*
X25701000Y-9025000D01*
X25701000Y-9975000D01*
X25693005Y-10043914D01*
X25686021Y-10059729D01*
X25684786Y-10067531D01*
X25668229Y-10100024D01*
X25648324Y-10145106D01*
X25570106Y-10223324D01*
X25525024Y-10243229D01*
X25492531Y-10259786D01*
X25484729Y-10261021D01*
X25468914Y-10268005D01*
X25400000Y-10276000D01*
X24900000Y-10276000D01*
X24831086Y-10268005D01*
X24815270Y-10261021D01*
X24807468Y-10259786D01*
X24774967Y-10243226D01*
X24729894Y-10223324D01*
X24651676Y-10145106D01*
X24631776Y-10100039D01*
X24615213Y-10067531D01*
X24613976Y-10059726D01*
X24606995Y-10043914D01*
X24599000Y-9975000D01*
X24599000Y-9025000D01*
X24606995Y-8956086D01*
X24613976Y-8940274D01*
X24615213Y-8932468D01*
X24631780Y-8899953D01*
X24651676Y-8854894D01*
X24729894Y-8776676D01*
X24774953Y-8756780D01*
X24807468Y-8740213D01*
X24815274Y-8738976D01*
X24831086Y-8731995D01*
X24900000Y-8724000D01*
X25400000Y-8724000D01*
X25468914Y-8731995D01*
G37*
G36*
X27969517Y-7702882D02*
G01*
X27986062Y-7713938D01*
X27997118Y-7730483D01*
X27998342Y-7736638D01*
X28033188Y-7788786D01*
X28166812Y-7788786D01*
X28201657Y-7736636D01*
X28202882Y-7730483D01*
X28213938Y-7713938D01*
X28230483Y-7702882D01*
X28250000Y-7699000D01*
X28750000Y-7699000D01*
X28769517Y-7702882D01*
X28771323Y-7704089D01*
X28812215Y-7704089D01*
X28821157Y-7704089D01*
X28835525Y-7706155D01*
X28844097Y-7708672D01*
X28844104Y-7708673D01*
X28963502Y-7743732D01*
X28963504Y-7743733D01*
X28972076Y-7746250D01*
X28985281Y-7752280D01*
X29105003Y-7829221D01*
X29115973Y-7838727D01*
X29209170Y-7946282D01*
X29217018Y-7958494D01*
X29220729Y-7966621D01*
X29220732Y-7966625D01*
X29272423Y-8079815D01*
X29276137Y-8087948D01*
X29280227Y-8101876D01*
X29300481Y-8242742D01*
X29301000Y-8250000D01*
X29301000Y-8750000D01*
X29300481Y-8757258D01*
X29280227Y-8898124D01*
X29276137Y-8912052D01*
X29217018Y-9041506D01*
X29209170Y-9053718D01*
X29115973Y-9161273D01*
X29105003Y-9170779D01*
X28985281Y-9247720D01*
X28972076Y-9253750D01*
X28835525Y-9293845D01*
X28821157Y-9295911D01*
X28771323Y-9295911D01*
X28769517Y-9297118D01*
X28750000Y-9301000D01*
X28737689Y-9301000D01*
X28262310Y-9301000D01*
X28250000Y-9301000D01*
X28230483Y-9297118D01*
X28213938Y-9286062D01*
X28202882Y-9269517D01*
X28201657Y-9263360D01*
X28166813Y-9211213D01*
X28033187Y-9211213D01*
X27998342Y-9263359D01*
X27997118Y-9269517D01*
X27986062Y-9286062D01*
X27969517Y-9297118D01*
X27950000Y-9301000D01*
X27937690Y-9301000D01*
X27462311Y-9301000D01*
X27450000Y-9301000D01*
X27430483Y-9297118D01*
X27428677Y-9295911D01*
X27387785Y-9295911D01*
X27378843Y-9295911D01*
X27364475Y-9293845D01*
X27355897Y-9291326D01*
X27355895Y-9291326D01*
X27290458Y-9272111D01*
X27227924Y-9253750D01*
X27214719Y-9247720D01*
X27094997Y-9170779D01*
X27084027Y-9161273D01*
X27063623Y-9137725D01*
X26996681Y-9060471D01*
X26996679Y-9060468D01*
X26990830Y-9053718D01*
X26982982Y-9041506D01*
X26979271Y-9033380D01*
X26979267Y-9033374D01*
X26927576Y-8920184D01*
X26927574Y-8920179D01*
X26923863Y-8912052D01*
X26919773Y-8898124D01*
X26899519Y-8757258D01*
X26899000Y-8750000D01*
X26899000Y-8250000D01*
X26899519Y-8242742D01*
X26919773Y-8101876D01*
X26923863Y-8087948D01*
X26927573Y-8079822D01*
X26927576Y-8079815D01*
X26979267Y-7966625D01*
X26979273Y-7966615D01*
X26982982Y-7958494D01*
X26990830Y-7946282D01*
X26996677Y-7939534D01*
X26996681Y-7939528D01*
X27078173Y-7845482D01*
X27078176Y-7845479D01*
X27084027Y-7838727D01*
X27094997Y-7829221D01*
X27102512Y-7824391D01*
X27102516Y-7824388D01*
X27207201Y-7757111D01*
X27207203Y-7757109D01*
X27214719Y-7752280D01*
X27227924Y-7746250D01*
X27236492Y-7743734D01*
X27236497Y-7743732D01*
X27355895Y-7708673D01*
X27355903Y-7708671D01*
X27364475Y-7706155D01*
X27378843Y-7704089D01*
X27428677Y-7704089D01*
X27430483Y-7702882D01*
X27450000Y-7699000D01*
X27950000Y-7699000D01*
X27969517Y-7702882D01*
G37*
G36*
X5073037Y-203787D02*
G01*
X5144468Y-203787D01*
X5221486Y-213516D01*
X5300341Y-218685D01*
X5366379Y-231820D01*
X5431115Y-239999D01*
X5512353Y-260857D01*
X5595543Y-277405D01*
X5653728Y-297156D01*
X5710973Y-311854D01*
X5794797Y-345042D01*
X5880555Y-374153D01*
X5930371Y-398719D01*
X5979613Y-418216D01*
X6064184Y-464709D01*
X6150500Y-507276D01*
X6191759Y-534844D01*
X6232802Y-557408D01*
X6316072Y-617907D01*
X6400760Y-674494D01*
X6433619Y-703310D01*
X6466555Y-727240D01*
X6546354Y-802176D01*
X6627053Y-872947D01*
X6651952Y-901339D01*
X6677174Y-925024D01*
X6751251Y-1014569D01*
X6825506Y-1099240D01*
X6843181Y-1125693D01*
X6861348Y-1147653D01*
X6927421Y-1251767D01*
X6992724Y-1349500D01*
X7004155Y-1372680D01*
X7016166Y-1391606D01*
X7071961Y-1510176D01*
X7125847Y-1619445D01*
X7132235Y-1638263D01*
X7139185Y-1653033D01*
X7182472Y-1786260D01*
X7222595Y-1904457D01*
X7225307Y-1918091D01*
X7228470Y-1927826D01*
X7257155Y-2078203D01*
X7281315Y-2199659D01*
X7281833Y-2207570D01*
X7282610Y-2211641D01*
X7294830Y-2405871D01*
X7301000Y-2500000D01*
X7294830Y-2594136D01*
X7282610Y-2788358D01*
X7281833Y-2792427D01*
X7281315Y-2800341D01*
X7257151Y-2921820D01*
X7228470Y-3072173D01*
X7225307Y-3081905D01*
X7222595Y-3095543D01*
X7182465Y-3213761D01*
X7139185Y-3346966D01*
X7132236Y-3361732D01*
X7125847Y-3380555D01*
X7071951Y-3489843D01*
X7016166Y-3608393D01*
X7004157Y-3627315D01*
X6992724Y-3650500D01*
X6927408Y-3748251D01*
X6861348Y-3852346D01*
X6843185Y-3874301D01*
X6825506Y-3900760D01*
X6751237Y-3985447D01*
X6677174Y-4074975D01*
X6651957Y-4098655D01*
X6627053Y-4127053D01*
X6546338Y-4197837D01*
X6466555Y-4272759D01*
X6433625Y-4296683D01*
X6400760Y-4325506D01*
X6316055Y-4382103D01*
X6232802Y-4442591D01*
X6191768Y-4465149D01*
X6150500Y-4492724D01*
X6064166Y-4535299D01*
X5979613Y-4581783D01*
X5930381Y-4601275D01*
X5880555Y-4625847D01*
X5794779Y-4654963D01*
X5710973Y-4688145D01*
X5653740Y-4702839D01*
X5595543Y-4722595D01*
X5512335Y-4739146D01*
X5431115Y-4760000D01*
X5366389Y-4768176D01*
X5300341Y-4781315D01*
X5221481Y-4786483D01*
X5144468Y-4796213D01*
X5073037Y-4796213D01*
X5000000Y-4801000D01*
X4926963Y-4796213D01*
X4855532Y-4796213D01*
X4778517Y-4786483D01*
X4699659Y-4781315D01*
X4633611Y-4768177D01*
X4568884Y-4760000D01*
X4487659Y-4739145D01*
X4404457Y-4722595D01*
X4346262Y-4702840D01*
X4289026Y-4688145D01*
X4205213Y-4654961D01*
X4119445Y-4625847D01*
X4069622Y-4601277D01*
X4020386Y-4581783D01*
X3935823Y-4535294D01*
X3849500Y-4492724D01*
X3808236Y-4465152D01*
X3767197Y-4442591D01*
X3683931Y-4382095D01*
X3599240Y-4325506D01*
X3566378Y-4296687D01*
X3533444Y-4272759D01*
X3453646Y-4197824D01*
X3372947Y-4127053D01*
X3348047Y-4098660D01*
X3322825Y-4074975D01*
X3248744Y-3985427D01*
X3174494Y-3900760D01*
X3156818Y-3874307D01*
X3138651Y-3852346D01*
X3072571Y-3748221D01*
X3007276Y-3650500D01*
X2995845Y-3627322D01*
X2983833Y-3608393D01*
X2928026Y-3489799D01*
X2874153Y-3380555D01*
X2867766Y-3361740D01*
X2860814Y-3346966D01*
X2817511Y-3213692D01*
X2777405Y-3095543D01*
X2774693Y-3081913D01*
X2771529Y-3072173D01*
X2742824Y-2921697D01*
X2718685Y-2800341D01*
X2718166Y-2792435D01*
X2717389Y-2788358D01*
X2705144Y-2593755D01*
X2699000Y-2500000D01*
X2705144Y-2406252D01*
X2717389Y-2211641D01*
X2718166Y-2207562D01*
X2718685Y-2199659D01*
X2742819Y-2078325D01*
X2771529Y-1927826D01*
X2774694Y-1918083D01*
X2777405Y-1904457D01*
X2817503Y-1786329D01*
X2860814Y-1653033D01*
X2867767Y-1638256D01*
X2874153Y-1619445D01*
X2928016Y-1510221D01*
X2983833Y-1391606D01*
X2995848Y-1372673D01*
X3007276Y-1349500D01*
X3072558Y-1251797D01*
X3138651Y-1147653D01*
X3156822Y-1125687D01*
X3174494Y-1099240D01*
X3248730Y-1014589D01*
X3322825Y-925024D01*
X3348052Y-901333D01*
X3372947Y-872947D01*
X3453630Y-802189D01*
X3533444Y-727240D01*
X3566385Y-703306D01*
X3599240Y-674494D01*
X3683914Y-617916D01*
X3767197Y-557408D01*
X3808245Y-534841D01*
X3849500Y-507276D01*
X3935805Y-464714D01*
X4020386Y-418216D01*
X4069632Y-398717D01*
X4119445Y-374153D01*
X4205195Y-345044D01*
X4289026Y-311854D01*
X4346274Y-297155D01*
X4404457Y-277405D01*
X4487642Y-260858D01*
X4568884Y-239999D01*
X4633622Y-231820D01*
X4699659Y-218685D01*
X4778513Y-213516D01*
X4855532Y-203787D01*
X4926963Y-203787D01*
X5000000Y-199000D01*
X5073037Y-203787D01*
G37*
G36*
X9343914Y-4231995D02*
G01*
X9359726Y-4238976D01*
X9367531Y-4240213D01*
X9400039Y-4256776D01*
X9445106Y-4276676D01*
X9523324Y-4354894D01*
X9543226Y-4399967D01*
X9559786Y-4432468D01*
X9561021Y-4440270D01*
X9568005Y-4456086D01*
X9576000Y-4525000D01*
X9576000Y-5475000D01*
X9568005Y-5543914D01*
X9561021Y-5559729D01*
X9559786Y-5567531D01*
X9543229Y-5600024D01*
X9523324Y-5645106D01*
X9445106Y-5723324D01*
X9400024Y-5743229D01*
X9367531Y-5759786D01*
X9359729Y-5761021D01*
X9343914Y-5768005D01*
X9275000Y-5776000D01*
X8775000Y-5776000D01*
X8706086Y-5768005D01*
X8690270Y-5761021D01*
X8682468Y-5759786D01*
X8649967Y-5743226D01*
X8604894Y-5723324D01*
X8526676Y-5645106D01*
X8506776Y-5600039D01*
X8490213Y-5567531D01*
X8488976Y-5559726D01*
X8481995Y-5543914D01*
X8474000Y-5475000D01*
X8474000Y-4525000D01*
X8481995Y-4456086D01*
X8488976Y-4440274D01*
X8490213Y-4432468D01*
X8506780Y-4399953D01*
X8526676Y-4354894D01*
X8604894Y-4276676D01*
X8649953Y-4256780D01*
X8682468Y-4240213D01*
X8690274Y-4238976D01*
X8706086Y-4231995D01*
X8775000Y-4224000D01*
X9275000Y-4224000D01*
X9343914Y-4231995D01*
G37*
G36*
X11243914Y-4231995D02*
G01*
X11259726Y-4238976D01*
X11267531Y-4240213D01*
X11300039Y-4256776D01*
X11345106Y-4276676D01*
X11423324Y-4354894D01*
X11443226Y-4399967D01*
X11459786Y-4432468D01*
X11461021Y-4440270D01*
X11468005Y-4456086D01*
X11476000Y-4525000D01*
X11476000Y-5475000D01*
X11468005Y-5543914D01*
X11461021Y-5559729D01*
X11459786Y-5567531D01*
X11443229Y-5600024D01*
X11423324Y-5645106D01*
X11345106Y-5723324D01*
X11300024Y-5743229D01*
X11267531Y-5759786D01*
X11259729Y-5761021D01*
X11243914Y-5768005D01*
X11175000Y-5776000D01*
X10675000Y-5776000D01*
X10606086Y-5768005D01*
X10590270Y-5761021D01*
X10582468Y-5759786D01*
X10549967Y-5743226D01*
X10504894Y-5723324D01*
X10426676Y-5645106D01*
X10406776Y-5600039D01*
X10390213Y-5567531D01*
X10388976Y-5559726D01*
X10381995Y-5543914D01*
X10374000Y-5475000D01*
X10374000Y-4525000D01*
X10381995Y-4456086D01*
X10388976Y-4440274D01*
X10390213Y-4432468D01*
X10406780Y-4399953D01*
X10426676Y-4354894D01*
X10504894Y-4276676D01*
X10549953Y-4256780D01*
X10582468Y-4240213D01*
X10590274Y-4238976D01*
X10606086Y-4231995D01*
X10675000Y-4224000D01*
X11175000Y-4224000D01*
X11243914Y-4231995D01*
G37*
G36*
X15118914Y-4231995D02*
G01*
X15134726Y-4238976D01*
X15142531Y-4240213D01*
X15175039Y-4256776D01*
X15220106Y-4276676D01*
X15298324Y-4354894D01*
X15318226Y-4399967D01*
X15334786Y-4432468D01*
X15336021Y-4440270D01*
X15343005Y-4456086D01*
X15351000Y-4525000D01*
X15351000Y-5475000D01*
X15343005Y-5543914D01*
X15336021Y-5559729D01*
X15334786Y-5567531D01*
X15318229Y-5600024D01*
X15298324Y-5645106D01*
X15220106Y-5723324D01*
X15175024Y-5743229D01*
X15142531Y-5759786D01*
X15134729Y-5761021D01*
X15118914Y-5768005D01*
X15050000Y-5776000D01*
X14550000Y-5776000D01*
X14481086Y-5768005D01*
X14465270Y-5761021D01*
X14457468Y-5759786D01*
X14424967Y-5743226D01*
X14379894Y-5723324D01*
X14301676Y-5645106D01*
X14281776Y-5600039D01*
X14265213Y-5567531D01*
X14263976Y-5559726D01*
X14256995Y-5543914D01*
X14249000Y-5475000D01*
X14249000Y-4525000D01*
X14256995Y-4456086D01*
X14263976Y-4440274D01*
X14265213Y-4432468D01*
X14281780Y-4399953D01*
X14301676Y-4354894D01*
X14379894Y-4276676D01*
X14424953Y-4256780D01*
X14457468Y-4240213D01*
X14465274Y-4238976D01*
X14481086Y-4231995D01*
X14550000Y-4224000D01*
X15050000Y-4224000D01*
X15118914Y-4231995D01*
G37*
G36*
X17018914Y-4231995D02*
G01*
X17034726Y-4238976D01*
X17042531Y-4240213D01*
X17075039Y-4256776D01*
X17120106Y-4276676D01*
X17198324Y-4354894D01*
X17218226Y-4399967D01*
X17234786Y-4432468D01*
X17236021Y-4440270D01*
X17243005Y-4456086D01*
X17251000Y-4525000D01*
X17251000Y-5475000D01*
X17243005Y-5543914D01*
X17236021Y-5559729D01*
X17234786Y-5567531D01*
X17218229Y-5600024D01*
X17198324Y-5645106D01*
X17120106Y-5723324D01*
X17075024Y-5743229D01*
X17042531Y-5759786D01*
X17034729Y-5761021D01*
X17018914Y-5768005D01*
X16950000Y-5776000D01*
X16450000Y-5776000D01*
X16381086Y-5768005D01*
X16365270Y-5761021D01*
X16357468Y-5759786D01*
X16324967Y-5743226D01*
X16279894Y-5723324D01*
X16201676Y-5645106D01*
X16181776Y-5600039D01*
X16165213Y-5567531D01*
X16163976Y-5559726D01*
X16156995Y-5543914D01*
X16149000Y-5475000D01*
X16149000Y-4525000D01*
X16156995Y-4456086D01*
X16163976Y-4440274D01*
X16165213Y-4432468D01*
X16181780Y-4399953D01*
X16201676Y-4354894D01*
X16279894Y-4276676D01*
X16324953Y-4256780D01*
X16357468Y-4240213D01*
X16365274Y-4238976D01*
X16381086Y-4231995D01*
X16450000Y-4224000D01*
X16950000Y-4224000D01*
X17018914Y-4231995D01*
G37*
G36*
X25233037Y-295787D02*
G01*
X25304468Y-295787D01*
X25381486Y-305516D01*
X25460341Y-310685D01*
X25526379Y-323820D01*
X25591115Y-331999D01*
X25672353Y-352857D01*
X25755543Y-369405D01*
X25813728Y-389156D01*
X25870973Y-403854D01*
X25954797Y-437042D01*
X26040555Y-466153D01*
X26090371Y-490719D01*
X26139613Y-510216D01*
X26224184Y-556709D01*
X26310500Y-599276D01*
X26351759Y-626844D01*
X26392802Y-649408D01*
X26476072Y-709907D01*
X26560760Y-766494D01*
X26593619Y-795310D01*
X26626555Y-819240D01*
X26706354Y-894176D01*
X26787053Y-964947D01*
X26811952Y-993339D01*
X26837174Y-1017024D01*
X26911251Y-1106569D01*
X26985506Y-1191240D01*
X27003181Y-1217693D01*
X27021348Y-1239653D01*
X27087421Y-1343767D01*
X27152724Y-1441500D01*
X27164155Y-1464680D01*
X27176166Y-1483606D01*
X27231961Y-1602176D01*
X27285847Y-1711445D01*
X27292235Y-1730263D01*
X27299185Y-1745033D01*
X27342472Y-1878260D01*
X27382595Y-1996457D01*
X27385307Y-2010091D01*
X27388470Y-2019826D01*
X27417155Y-2170203D01*
X27441315Y-2291659D01*
X27441833Y-2299570D01*
X27442610Y-2303641D01*
X27454830Y-2497871D01*
X27461000Y-2592000D01*
X27454830Y-2686136D01*
X27442610Y-2880358D01*
X27441833Y-2884427D01*
X27441315Y-2892341D01*
X27417151Y-3013820D01*
X27388470Y-3164173D01*
X27385307Y-3173905D01*
X27382595Y-3187543D01*
X27342465Y-3305761D01*
X27299185Y-3438966D01*
X27292236Y-3453732D01*
X27285847Y-3472555D01*
X27231951Y-3581843D01*
X27176166Y-3700393D01*
X27164157Y-3719315D01*
X27152724Y-3742500D01*
X27087408Y-3840251D01*
X27021348Y-3944346D01*
X27003185Y-3966301D01*
X26985506Y-3992760D01*
X26911237Y-4077447D01*
X26837174Y-4166975D01*
X26811957Y-4190655D01*
X26787053Y-4219053D01*
X26706338Y-4289837D01*
X26626555Y-4364759D01*
X26593625Y-4388683D01*
X26560760Y-4417506D01*
X26476055Y-4474103D01*
X26392802Y-4534591D01*
X26351768Y-4557149D01*
X26310500Y-4584724D01*
X26224166Y-4627299D01*
X26139613Y-4673783D01*
X26090381Y-4693275D01*
X26040555Y-4717847D01*
X25954779Y-4746963D01*
X25870973Y-4780145D01*
X25813740Y-4794839D01*
X25755543Y-4814595D01*
X25672335Y-4831146D01*
X25591115Y-4852000D01*
X25526389Y-4860176D01*
X25460341Y-4873315D01*
X25381481Y-4878483D01*
X25304468Y-4888213D01*
X25233037Y-4888213D01*
X25160000Y-4893000D01*
X25086963Y-4888213D01*
X25015532Y-4888213D01*
X24938517Y-4878483D01*
X24859659Y-4873315D01*
X24793611Y-4860177D01*
X24728884Y-4852000D01*
X24647659Y-4831145D01*
X24564457Y-4814595D01*
X24506262Y-4794840D01*
X24449026Y-4780145D01*
X24365213Y-4746961D01*
X24279445Y-4717847D01*
X24229622Y-4693277D01*
X24180386Y-4673783D01*
X24095823Y-4627294D01*
X24009500Y-4584724D01*
X23968236Y-4557152D01*
X23927197Y-4534591D01*
X23843931Y-4474095D01*
X23759240Y-4417506D01*
X23726378Y-4388687D01*
X23693444Y-4364759D01*
X23613646Y-4289824D01*
X23532947Y-4219053D01*
X23508047Y-4190660D01*
X23482825Y-4166975D01*
X23408744Y-4077427D01*
X23334494Y-3992760D01*
X23316818Y-3966307D01*
X23298651Y-3944346D01*
X23232571Y-3840221D01*
X23167276Y-3742500D01*
X23155845Y-3719322D01*
X23143833Y-3700393D01*
X23088026Y-3581799D01*
X23034153Y-3472555D01*
X23027766Y-3453740D01*
X23020814Y-3438966D01*
X22977511Y-3305692D01*
X22937405Y-3187543D01*
X22934693Y-3173913D01*
X22931529Y-3164173D01*
X22902824Y-3013697D01*
X22878685Y-2892341D01*
X22878166Y-2884435D01*
X22877389Y-2880358D01*
X22865144Y-2685755D01*
X22859000Y-2592000D01*
X22865144Y-2498252D01*
X22877389Y-2303641D01*
X22878166Y-2299562D01*
X22878685Y-2291659D01*
X22902819Y-2170325D01*
X22931529Y-2019826D01*
X22934694Y-2010083D01*
X22937405Y-1996457D01*
X22977503Y-1878329D01*
X23020814Y-1745033D01*
X23027767Y-1730256D01*
X23034153Y-1711445D01*
X23088016Y-1602221D01*
X23143833Y-1483606D01*
X23155848Y-1464673D01*
X23167276Y-1441500D01*
X23232558Y-1343797D01*
X23298651Y-1239653D01*
X23316822Y-1217687D01*
X23334494Y-1191240D01*
X23408730Y-1106589D01*
X23482825Y-1017024D01*
X23508052Y-993333D01*
X23532947Y-964947D01*
X23613630Y-894189D01*
X23693444Y-819240D01*
X23726385Y-795306D01*
X23759240Y-766494D01*
X23843914Y-709916D01*
X23927197Y-649408D01*
X23968245Y-626841D01*
X24009500Y-599276D01*
X24095805Y-556714D01*
X24180386Y-510216D01*
X24229632Y-490717D01*
X24279445Y-466153D01*
X24365195Y-437044D01*
X24449026Y-403854D01*
X24506274Y-389155D01*
X24564457Y-369405D01*
X24647642Y-352858D01*
X24728884Y-331999D01*
X24793622Y-323820D01*
X24859659Y-310685D01*
X24938513Y-305516D01*
X25015532Y-295787D01*
X25086963Y-295787D01*
X25160000Y-291000D01*
X25233037Y-295787D01*
G37*
G36*
X11918914Y-1506995D02*
G01*
X11934726Y-1513976D01*
X11942531Y-1515213D01*
X11975039Y-1531776D01*
X12020106Y-1551676D01*
X12098324Y-1629894D01*
X12118226Y-1674967D01*
X12134786Y-1707468D01*
X12136021Y-1715270D01*
X12143005Y-1731086D01*
X12151000Y-1800000D01*
X12151000Y-2700000D01*
X12143005Y-2768914D01*
X12136021Y-2784729D01*
X12134786Y-2792531D01*
X12118229Y-2825024D01*
X12098324Y-2870106D01*
X12020106Y-2948324D01*
X11975024Y-2968229D01*
X11942531Y-2984786D01*
X11934729Y-2986021D01*
X11918914Y-2993005D01*
X11850000Y-3001000D01*
X11325000Y-3001000D01*
X11256086Y-2993005D01*
X11240270Y-2986021D01*
X11232468Y-2984786D01*
X11199967Y-2968226D01*
X11154894Y-2948324D01*
X11076676Y-2870106D01*
X11056776Y-2825039D01*
X11040213Y-2792531D01*
X11038976Y-2784726D01*
X11031995Y-2768914D01*
X11024000Y-2700000D01*
X11024000Y-1800000D01*
X11031995Y-1731086D01*
X11038976Y-1715274D01*
X11040213Y-1707468D01*
X11056780Y-1674953D01*
X11076676Y-1629894D01*
X11154894Y-1551676D01*
X11199953Y-1531780D01*
X11232468Y-1515213D01*
X11240274Y-1513976D01*
X11256086Y-1506995D01*
X11325000Y-1499000D01*
X11850000Y-1499000D01*
X11918914Y-1506995D01*
G37*
G36*
X13743914Y-1506995D02*
G01*
X13759726Y-1513976D01*
X13767531Y-1515213D01*
X13800039Y-1531776D01*
X13845106Y-1551676D01*
X13923324Y-1629894D01*
X13943226Y-1674967D01*
X13959786Y-1707468D01*
X13961021Y-1715270D01*
X13968005Y-1731086D01*
X13976000Y-1800000D01*
X13976000Y-2700000D01*
X13968005Y-2768914D01*
X13961021Y-2784729D01*
X13959786Y-2792531D01*
X13943229Y-2825024D01*
X13923324Y-2870106D01*
X13845106Y-2948324D01*
X13800024Y-2968229D01*
X13767531Y-2984786D01*
X13759729Y-2986021D01*
X13743914Y-2993005D01*
X13675000Y-3001000D01*
X13150000Y-3001000D01*
X13081086Y-2993005D01*
X13065270Y-2986021D01*
X13057468Y-2984786D01*
X13024967Y-2968226D01*
X12979894Y-2948324D01*
X12901676Y-2870106D01*
X12881776Y-2825039D01*
X12865213Y-2792531D01*
X12863976Y-2784726D01*
X12856995Y-2768914D01*
X12849000Y-2700000D01*
X12849000Y-1800000D01*
X12856995Y-1731086D01*
X12863976Y-1715274D01*
X12865213Y-1707468D01*
X12881780Y-1674953D01*
X12901676Y-1629894D01*
X12979894Y-1551676D01*
X13024953Y-1531780D01*
X13057468Y-1515213D01*
X13065274Y-1513976D01*
X13081086Y-1506995D01*
X13150000Y-1499000D01*
X13675000Y-1499000D01*
X13743914Y-1506995D01*
G37*
G36*
X19368914Y-1231995D02*
G01*
X19384726Y-1238976D01*
X19392531Y-1240213D01*
X19425039Y-1256776D01*
X19470106Y-1276676D01*
X19548324Y-1354894D01*
X19568226Y-1399967D01*
X19584786Y-1432468D01*
X19586021Y-1440270D01*
X19593005Y-1456086D01*
X19601000Y-1525000D01*
X19601000Y-2475000D01*
X19593005Y-2543914D01*
X19586021Y-2559729D01*
X19584786Y-2567531D01*
X19568229Y-2600024D01*
X19548324Y-2645106D01*
X19470106Y-2723324D01*
X19425024Y-2743229D01*
X19392531Y-2759786D01*
X19384729Y-2761021D01*
X19368914Y-2768005D01*
X19300000Y-2776000D01*
X18800000Y-2776000D01*
X18731086Y-2768005D01*
X18715270Y-2761021D01*
X18707468Y-2759786D01*
X18674967Y-2743226D01*
X18629894Y-2723324D01*
X18551676Y-2645106D01*
X18531776Y-2600039D01*
X18515213Y-2567531D01*
X18513976Y-2559726D01*
X18506995Y-2543914D01*
X18499000Y-2475000D01*
X18499000Y-1525000D01*
X18506995Y-1456086D01*
X18513976Y-1440274D01*
X18515213Y-1432468D01*
X18531780Y-1399953D01*
X18551676Y-1354894D01*
X18629894Y-1276676D01*
X18674953Y-1256780D01*
X18707468Y-1240213D01*
X18715274Y-1238976D01*
X18731086Y-1231995D01*
X18800000Y-1224000D01*
X19300000Y-1224000D01*
X19368914Y-1231995D01*
G37*
G36*
X21268914Y-1231995D02*
G01*
X21284726Y-1238976D01*
X21292531Y-1240213D01*
X21325039Y-1256776D01*
X21370106Y-1276676D01*
X21448324Y-1354894D01*
X21468226Y-1399967D01*
X21484786Y-1432468D01*
X21486021Y-1440270D01*
X21493005Y-1456086D01*
X21501000Y-1525000D01*
X21501000Y-2475000D01*
X21493005Y-2543914D01*
X21486021Y-2559729D01*
X21484786Y-2567531D01*
X21468229Y-2600024D01*
X21448324Y-2645106D01*
X21370106Y-2723324D01*
X21325024Y-2743229D01*
X21292531Y-2759786D01*
X21284729Y-2761021D01*
X21268914Y-2768005D01*
X21200000Y-2776000D01*
X20700000Y-2776000D01*
X20631086Y-2768005D01*
X20615270Y-2761021D01*
X20607468Y-2759786D01*
X20574967Y-2743226D01*
X20529894Y-2723324D01*
X20451676Y-2645106D01*
X20431776Y-2600039D01*
X20415213Y-2567531D01*
X20413976Y-2559726D01*
X20406995Y-2543914D01*
X20399000Y-2475000D01*
X20399000Y-1525000D01*
X20406995Y-1456086D01*
X20413976Y-1440274D01*
X20415213Y-1432468D01*
X20431780Y-1399953D01*
X20451676Y-1354894D01*
X20529894Y-1276676D01*
X20574953Y-1256780D01*
X20607468Y-1240213D01*
X20615274Y-1238976D01*
X20631086Y-1231995D01*
X20700000Y-1224000D01*
X21200000Y-1224000D01*
X21268914Y-1231995D01*
G37*
M02*
