G04 #@! TF.GenerationSoftware,KiCad,Pcbnew,7.0.2-6a45011f42~172~ubuntu22.04.1*
G04 #@! TF.CreationDate,2023-06-14T15:20:01+02:00*
G04 #@! TF.ProjectId,imu_module,696d755f-6d6f-4647-956c-652e6b696361,rev?*
G04 #@! TF.SameCoordinates,Original*
G04 #@! TF.FileFunction,Paste,Top*
G04 #@! TF.FilePolarity,Positive*
%FSLAX46Y46*%
G04 Gerber Fmt 4.6, Leading zero omitted, Abs format (unit mm)*
G04 Created by KiCad (PCBNEW 7.0.2-6a45011f42~172~ubuntu22.04.1) date 2023-06-14 15:20:01*
%MOMM*%
%LPD*%
G01*
G04 APERTURE LIST*
G04 Aperture macros list*
%AMRoundRect*
0 Rectangle with rounded corners*
0 $1 Rounding radius*
0 $2 $3 $4 $5 $6 $7 $8 $9 X,Y pos of 4 corners*
0 Add a 4 corners polygon primitive as box body*
4,1,4,$2,$3,$4,$5,$6,$7,$8,$9,$2,$3,0*
0 Add four circle primitives for the rounded corners*
1,1,$1+$1,$2,$3*
1,1,$1+$1,$4,$5*
1,1,$1+$1,$6,$7*
1,1,$1+$1,$8,$9*
0 Add four rect primitives between the rounded corners*
20,1,$1+$1,$2,$3,$4,$5,0*
20,1,$1+$1,$4,$5,$6,$7,0*
20,1,$1+$1,$6,$7,$8,$9,0*
20,1,$1+$1,$8,$9,$2,$3,0*%
G04 Aperture macros list end*
%ADD10RoundRect,0.250000X0.450000X-0.262500X0.450000X0.262500X-0.450000X0.262500X-0.450000X-0.262500X0*%
%ADD11RoundRect,0.250000X0.262500X0.450000X-0.262500X0.450000X-0.262500X-0.450000X0.262500X-0.450000X0*%
%ADD12R,0.350000X0.590000*%
%ADD13R,0.590000X0.350000*%
%ADD14RoundRect,0.250000X-0.250000X-0.475000X0.250000X-0.475000X0.250000X0.475000X-0.250000X0.475000X0*%
%ADD15RoundRect,0.250000X0.475000X-0.250000X0.475000X0.250000X-0.475000X0.250000X-0.475000X-0.250000X0*%
%ADD16C,1.524000*%
%ADD17RoundRect,0.150000X-0.150000X0.825000X-0.150000X-0.825000X0.150000X-0.825000X0.150000X0.825000X0*%
%ADD18R,5.000000X5.000000*%
%ADD19R,0.900000X2.000000*%
%ADD20R,2.000000X0.900000*%
%ADD21R,1.100000X0.650001*%
%ADD22RoundRect,0.250000X-0.262500X-0.450000X0.262500X-0.450000X0.262500X0.450000X-0.262500X0.450000X0*%
G04 APERTURE END LIST*
D10*
X1500000Y-32912500D03*
X1500000Y-31087500D03*
D11*
X6500000Y-33000000D03*
X4675000Y-33000000D03*
D12*
X26250000Y-11500000D03*
X25750000Y-11500000D03*
X25250000Y-11500000D03*
X24750000Y-11500000D03*
X24250000Y-11500000D03*
X23750000Y-11500000D03*
X23250000Y-11500000D03*
D13*
X22835000Y-12665000D03*
D12*
X23250000Y-13830000D03*
X23750000Y-13830000D03*
X24250000Y-13830000D03*
X24750000Y-13830000D03*
X25250000Y-13830000D03*
X25750000Y-13830000D03*
X26250000Y-13830000D03*
D13*
X26665000Y-12665000D03*
D14*
X19050000Y-2000000D03*
X20950000Y-2000000D03*
X14800000Y-5000000D03*
X16700000Y-5000000D03*
X9025000Y-5000000D03*
X10925000Y-5000000D03*
D15*
X21250000Y-31450000D03*
X21250000Y-29550000D03*
D16*
X5130000Y-30000000D03*
X7670000Y-30000000D03*
X10210000Y-30000000D03*
X12750000Y-30000000D03*
X15290000Y-30000000D03*
X17830000Y-30000000D03*
D17*
X28155000Y-27525000D03*
X26885000Y-27525000D03*
X25615000Y-27525000D03*
X24345000Y-27525000D03*
X24345000Y-32475000D03*
X25615000Y-32475000D03*
X26885000Y-32475000D03*
X28155000Y-32475000D03*
D18*
X11850000Y-15750000D03*
D19*
X19350000Y-25250000D03*
X18080000Y-25250000D03*
X16810000Y-25250000D03*
X15540000Y-25250000D03*
X14270000Y-25250000D03*
X13000000Y-25250000D03*
X11730000Y-25250000D03*
X10460000Y-25250000D03*
X9190000Y-25250000D03*
X7920000Y-25250000D03*
X6650000Y-25250000D03*
X5380000Y-25250000D03*
X4110000Y-25250000D03*
X2840000Y-25250000D03*
D20*
X1840000Y-22465000D03*
X1840000Y-21195000D03*
X1840000Y-19925000D03*
X1840000Y-18655000D03*
X1840000Y-17385000D03*
X1840000Y-16115000D03*
X1840000Y-14845000D03*
X1840000Y-13575000D03*
X1840000Y-12305000D03*
X1840000Y-11035000D03*
D19*
X2840000Y-8250000D03*
X4110000Y-8250000D03*
X5380000Y-8250000D03*
X6650000Y-8250000D03*
X7920000Y-8250000D03*
X9190000Y-8250000D03*
X10460000Y-8250000D03*
X11730000Y-8250000D03*
X13000000Y-8250000D03*
X14270000Y-8250000D03*
X15540000Y-8250000D03*
X16810000Y-8250000D03*
X18080000Y-8250000D03*
X19350000Y-8250000D03*
D21*
X22500000Y-22750000D03*
X22500000Y-23700001D03*
X22500000Y-24649999D03*
X24900000Y-24649999D03*
X24900000Y-22750000D03*
D22*
X11587500Y-2250000D03*
X13412500Y-2250000D03*
D14*
X23250000Y-9500000D03*
X25150000Y-9500000D03*
X23300000Y-15750000D03*
X25200000Y-15750000D03*
M02*
