G04 #@! TF.GenerationSoftware,KiCad,Pcbnew,7.0.2-6a45011f42~172~ubuntu22.04.1*
G04 #@! TF.CreationDate,2023-06-14T15:20:01+02:00*
G04 #@! TF.ProjectId,imu_module,696d755f-6d6f-4647-956c-652e6b696361,rev?*
G04 #@! TF.SameCoordinates,Original*
G04 #@! TF.FileFunction,Copper,L2,Bot*
G04 #@! TF.FilePolarity,Positive*
%FSLAX46Y46*%
G04 Gerber Fmt 4.6, Leading zero omitted, Abs format (unit mm)*
G04 Created by KiCad (PCBNEW 7.0.2-6a45011f42~172~ubuntu22.04.1) date 2023-06-14 15:20:01*
%MOMM*%
%LPD*%
G01*
G04 APERTURE LIST*
G04 Aperture macros list*
%AMRoundRect*
0 Rectangle with rounded corners*
0 $1 Rounding radius*
0 $2 $3 $4 $5 $6 $7 $8 $9 X,Y pos of 4 corners*
0 Add a 4 corners polygon primitive as box body*
4,1,4,$2,$3,$4,$5,$6,$7,$8,$9,$2,$3,0*
0 Add four circle primitives for the rounded corners*
1,1,$1+$1,$2,$3*
1,1,$1+$1,$4,$5*
1,1,$1+$1,$6,$7*
1,1,$1+$1,$8,$9*
0 Add four rect primitives between the rounded corners*
20,1,$1+$1,$2,$3,$4,$5,0*
20,1,$1+$1,$4,$5,$6,$7,0*
20,1,$1+$1,$6,$7,$8,$9,0*
20,1,$1+$1,$8,$9,$2,$3,0*%
G04 Aperture macros list end*
G04 #@! TA.AperFunction,SMDPad,CuDef*
%ADD10R,4.000000X1.500000*%
G04 #@! TD*
G04 #@! TA.AperFunction,SMDPad,CuDef*
%ADD11R,1.500000X1.000000*%
G04 #@! TD*
G04 #@! TA.AperFunction,SMDPad,CuDef*
%ADD12R,2.500000X2.500000*%
G04 #@! TD*
G04 #@! TA.AperFunction,ComponentPad*
%ADD13O,1.700000X1.850000*%
G04 #@! TD*
G04 #@! TA.AperFunction,ComponentPad*
%ADD14RoundRect,0.250000X0.600000X0.675000X-0.600000X0.675000X-0.600000X-0.675000X0.600000X-0.675000X0*%
G04 #@! TD*
G04 #@! TA.AperFunction,ComponentPad*
%ADD15C,4.500000*%
G04 #@! TD*
G04 #@! TA.AperFunction,SMDPad,CuDef*
%ADD16RoundRect,0.250000X0.325000X0.650000X-0.325000X0.650000X-0.325000X-0.650000X0.325000X-0.650000X0*%
G04 #@! TD*
G04 #@! TA.AperFunction,SMDPad,CuDef*
%ADD17R,2.000000X1.500000*%
G04 #@! TD*
G04 #@! TA.AperFunction,SMDPad,CuDef*
%ADD18R,2.000000X3.800000*%
G04 #@! TD*
G04 #@! TA.AperFunction,SMDPad,CuDef*
%ADD19RoundRect,0.250000X0.650000X-0.325000X0.650000X0.325000X-0.650000X0.325000X-0.650000X-0.325000X0*%
G04 #@! TD*
G04 #@! TA.AperFunction,SMDPad,CuDef*
%ADD20RoundRect,0.250000X-0.650000X0.325000X-0.650000X-0.325000X0.650000X-0.325000X0.650000X0.325000X0*%
G04 #@! TD*
G04 #@! TA.AperFunction,SMDPad,CuDef*
%ADD21RoundRect,0.250000X-0.325000X-0.650000X0.325000X-0.650000X0.325000X0.650000X-0.325000X0.650000X0*%
G04 #@! TD*
G04 #@! TA.AperFunction,ComponentPad*
%ADD22R,1.700000X1.700000*%
G04 #@! TD*
G04 #@! TA.AperFunction,ComponentPad*
%ADD23O,1.700000X1.700000*%
G04 #@! TD*
G04 APERTURE END LIST*
D10*
X15750000Y-6500000D03*
X15750000Y-2900000D03*
D11*
X21050000Y-27150000D03*
X21050000Y-30350000D03*
X25950000Y-30350000D03*
X25950000Y-27150000D03*
X12550000Y-27150000D03*
X12550000Y-30350000D03*
X17450000Y-30350000D03*
X17450000Y-27150000D03*
X4300000Y-27150000D03*
X4300000Y-30350000D03*
X9200000Y-30350000D03*
X9200000Y-27150000D03*
D12*
X2750000Y-20500000D03*
X2750000Y-10000000D03*
X13250000Y-10000000D03*
X13250000Y-20500000D03*
D13*
X19850000Y-36550000D03*
X22350000Y-36550000D03*
X24850000Y-36550000D03*
D14*
X27350000Y-36550000D03*
D13*
X2650000Y-36550000D03*
X5150000Y-36550000D03*
X7650000Y-36550000D03*
D14*
X10150000Y-36550000D03*
D15*
X5000000Y-2500000D03*
X25160000Y-2592000D03*
X15000000Y-37450000D03*
D16*
X23225000Y-10500000D03*
X20275000Y-10500000D03*
X23225000Y-22000000D03*
X20275000Y-22000000D03*
D17*
X24400000Y-13700000D03*
X24400000Y-16000000D03*
D18*
X18100000Y-16000000D03*
D17*
X24400000Y-18300000D03*
D19*
X10000000Y-6975000D03*
X10000000Y-4025000D03*
D20*
X21000000Y-4800000D03*
X21000000Y-7750000D03*
D21*
X7275000Y-23500000D03*
X10225000Y-23500000D03*
D22*
X28250000Y-16710000D03*
D23*
X28250000Y-19250000D03*
X28250000Y-21790000D03*
M02*
